<svg width="102" height="103" viewBox="0 0 102 103" fill="none" xmlns="http://www.w3.org/2000/svg">
<mask id="path-1-outside-1_367_6" maskUnits="userSpaceOnUse" x="-6" y="-6" width="114" height="115" fill="black">
<rect fill="white" x="-6" y="-6" width="114" height="115"/>
<path d="M0.8 40.2H39.2V0.399989H62.6V40.2H101.2V62.6H62.6V102.8H39.2V62.6H0.8V40.2Z"/>
</mask>
<path d="M0.8 40.2H39.2V0.399989H62.6V40.2H101.2V62.6H62.6V102.8H39.2V62.6H0.8V40.2Z" fill="#FF6F6A"/>
<path d="M0.8 40.2V34.2H-5.2V40.2H0.8ZM39.2 40.2V46.2H45.2V40.2H39.2ZM39.2 0.39999V-5.60001H33.2V0.39999H39.2ZM62.6 0.39999H68.6V-5.60001H62.6V0.39999ZM62.6 40.2H56.6V46.2H62.6V40.2ZM101.2 40.2H107.2V34.2H101.2V40.2ZM101.2 62.6V68.6H107.2V62.6H101.2ZM62.6 62.6V56.6H56.6V62.6H62.6ZM62.6 102.8V108.8H68.6V102.8H62.6ZM39.2 102.8H33.2V108.8H39.2V102.8ZM39.2 62.6H45.2V56.6H39.2V62.6ZM0.8 62.6H-5.2V68.6H0.8V62.6ZM0.8 46.2H39.2V34.2H0.8V46.2ZM45.2 40.2V0.39999H33.2V40.2H45.2ZM39.2 6.39999H62.6V-5.60001H39.2V6.39999ZM56.6 0.39999V40.2H68.6V0.39999H56.6ZM62.6 46.2H101.2V34.2H62.6V46.2ZM95.2 40.2V62.6H107.2V40.2H95.2ZM101.2 56.6H62.6V68.6H101.2V56.6ZM56.6 62.6V102.8H68.6V62.6H56.6ZM62.6 96.8H39.2V108.8H62.6V96.8ZM45.2 102.8V62.6H33.2V102.8H45.2ZM39.2 56.6H0.8V68.6H39.2V56.6ZM6.8 62.6V40.2H-5.2V62.6H6.8Z" fill="black" mask="url(#path-1-outside-1_367_6)"/>
</svg>
