<svg width="15" height="11" viewBox="0 0 15 11" fill="none" xmlns="http://www.w3.org/2000/svg">
<path d="M6.88147 7.30614C6.88147 7.67213 6.81338 8.02535 6.6772 8.36581C6.54953 8.70627 6.35802 9.00842 6.10268 9.27227C5.84734 9.53613 5.53241 9.74891 5.15791 9.91063C4.78341 10.0723 4.34933 10.1532 3.85567 10.1532C3.39605 10.1532 2.97899 10.0809 2.60449 9.93616C2.22999 9.79147 1.90656 9.5872 1.63419 9.32334C1.36183 9.05098 1.14904 8.71903 0.995835 8.32751C0.851141 7.93598 0.778794 7.49765 0.778794 7.0125C0.778794 6.21242 0.893698 5.45491 1.12351 4.73995C1.36183 4.02499 1.68951 3.39515 2.10657 2.85042C2.53214 2.30569 3.03432 1.8631 3.61309 1.52264C4.20038 1.18218 4.84299 0.977908 5.54093 0.909818L5.71967 1.72691C5.18345 1.795 4.68979 1.95246 4.23868 2.1993C3.79609 2.44613 3.40882 2.75254 3.07687 3.11853C2.74493 3.48452 2.47256 3.88881 2.25978 4.3314C2.0555 4.774 1.92358 5.2251 1.864 5.68472C1.93209 5.57407 2.02997 5.45916 2.15764 5.34C2.29382 5.22085 2.45129 5.11871 2.63002 5.03359C2.81728 4.93997 3.02155 4.86337 3.24285 4.80379C3.47265 4.74421 3.71948 4.71442 3.98334 4.71442C4.43444 4.71442 4.83873 4.77825 5.19621 4.90592C5.55369 5.02508 5.85585 5.19957 6.10268 5.42937C6.35802 5.65067 6.54953 5.92304 6.6772 6.24647C6.81338 6.56139 6.88147 6.91462 6.88147 7.30614ZM5.83457 7.40828C5.83457 6.81248 5.6686 6.35712 5.33665 6.0422C5.00471 5.72727 4.49402 5.56981 3.8046 5.56981C3.55777 5.56981 3.32796 5.5996 3.11518 5.65918C2.90239 5.71876 2.71088 5.79962 2.54066 5.90176C2.37043 5.99538 2.22148 6.10603 2.09381 6.2337C1.96613 6.36137 1.86825 6.48904 1.80016 6.61672C1.78314 6.73588 1.77463 6.8295 1.77463 6.89759C1.77463 6.96568 1.77463 7.04654 1.77463 7.14017C1.77463 7.39551 1.81719 7.65511 1.9023 7.91896C1.98741 8.1743 2.11508 8.40411 2.28531 8.60838C2.46405 8.81266 2.68535 8.97863 2.9492 9.1063C3.21306 9.23397 3.52372 9.29781 3.8812 9.29781C4.17059 9.29781 4.43444 9.24674 4.67276 9.1446C4.91108 9.04247 5.11536 8.90628 5.28558 8.73606C5.46432 8.56583 5.60051 8.36581 5.69413 8.136C5.78776 7.90619 5.83457 7.66362 5.83457 7.40828ZM10.9237 9.25951C11.2471 9.25951 11.545 9.22121 11.8174 9.1446C12.0897 9.05949 12.3195 8.93607 12.5068 8.77436C12.7025 8.60413 12.8515 8.3956 12.9536 8.14877C13.0643 7.90194 13.1196 7.61255 13.1196 7.28061C13.1196 6.66778 12.8983 6.20391 12.4557 5.88899C12.0216 5.56556 11.4258 5.40384 10.6683 5.40384L9.46821 5.46768V1.06302H13.8473V1.98225H10.4257V4.57398L11.0641 4.54844C12.0089 4.54844 12.7536 4.77825 13.2983 5.23787C13.8431 5.69748 14.1154 6.35286 14.1154 7.204C14.1154 7.68064 14.0303 8.10196 13.8601 8.46795C13.6984 8.83394 13.4728 9.1446 13.1834 9.39995C12.894 9.64678 12.5493 9.83403 12.1493 9.9617C11.7578 10.0894 11.328 10.1532 10.8598 10.1532C10.6045 10.1532 10.3619 10.1319 10.1321 10.0894C9.90229 10.0553 9.69376 10.0128 9.50651 9.9617C9.31926 9.90212 9.15329 9.84254 9.00859 9.78296C8.87241 9.71487 8.77453 9.65529 8.71495 9.60422L9.1235 8.77436C9.26819 8.85947 9.48949 8.96161 9.78739 9.08077C10.0853 9.19993 10.464 9.25951 10.9237 9.25951Z" fill="black"/>
</svg>
