<svg width="59" height="229" viewBox="0 0 59 229" fill="none" xmlns="http://www.w3.org/2000/svg">
<g clip-path="url(#clip0_587_86)">
<path d="M8.04721 35.34H50.5279C50.5816 35.4214 50.6418 35.5816 50.6418 35.7943C50.6418 35.7943 50.6418 35.7944 50.6418 35.7945V196.943C50.6418 205.436 48.1715 213.114 44.2477 218.639C40.3208 224.166 35.0077 227.46 29.2876 227.46H28.7828C23.2014 227.46 18.0139 224.246 14.1791 218.847L13.2686 219.494L14.1791 218.847C10.3467 213.452 7.93326 205.952 7.93326 197.653V35.7945C7.93326 35.7944 7.93326 35.7943 7.93326 35.7943C7.93336 35.5816 7.99348 35.4214 8.04721 35.34Z" fill="#9BCCDE" stroke="black" stroke-width="2.23371"/>
<path d="M8.94987 33.703H49.6249V196.508C49.6249 204.713 47.2675 212.129 43.5247 217.464C39.7785 222.804 34.7204 225.972 29.2874 225.972H28.7802C23.4866 225.972 18.5553 222.885 14.901 217.677C11.2502 212.473 8.94987 205.238 8.94987 197.231V33.703Z" fill="#DAF6FF" stroke="black" stroke-width="2.23371"/>
<path d="M55.0632 32.8477H57.149V34.5942H1.42545V32.8477H3.46622H4.58307V31.7309L4.58307 5.32259C4.58307 5.32242 4.58307 5.32224 4.58307 5.32206C4.58307 5.322 4.58307 5.32193 4.58307 5.32186C4.58331 5.1486 4.62527 4.97022 4.71518 4.79563C4.80579 4.6197 4.94594 4.44654 5.13901 4.29412L5.56381 3.95875V3.41752V2.76424C5.56381 2.11283 6.27647 1.2609 7.56093 1.2609H50.87C52.1551 1.2609 52.8679 2.11305 52.8679 2.76424V3.34291V3.91226L53.3286 4.24673C53.5425 4.40202 53.6986 4.58286 53.7995 4.768C53.8997 4.95186 53.9461 5.14045 53.9463 5.32309V31.7309V32.8477H55.0632Z" fill="#E83436" stroke="black" stroke-width="2.23371"/>
<path d="M12.7047 3.12061V32.5862H11.6963V3.12061H12.7047ZM46.8774 3.12061V32.5862H45.869V3.12061H46.8774ZM43.0802 3.12061V32.5862H42.0718V3.12061H43.0802ZM39.2835 3.12061V32.5862H38.2751V3.12061H39.2835ZM35.4866 3.12061V32.5862H34.4782V3.12061H35.4866ZM31.6893 3.12061V32.5862H30.6807V3.12061H31.6893ZM27.8924 3.12061V32.5862H26.884V3.12061H27.8924ZM24.0955 3.12061V32.5862H23.0871V3.12061H24.0955ZM20.2985 3.12061V32.5862H19.2902V3.12061H20.2985ZM16.5016 3.12061V32.5862H15.4932V3.12061H16.5016Z" fill="#B00E11"/>
<path fill-rule="evenodd" clip-rule="evenodd" d="M10.4316 114.966H48.143V198.524C48.143 213.567 41.0397 225.563 29.2873 225.563C17.8125 225.563 10.4316 213.861 10.4316 199.17V114.966Z" fill="#FB4B4D"/>
<path fill-rule="evenodd" clip-rule="evenodd" d="M17.8848 114.966H48.143V198.523C48.143 200.379 48.0341 202.164 47.8221 203.863C44.8597 206.416 41.1225 207.83 36.7408 207.83H36.2356C24.7614 207.83 17.8848 197.958 17.8848 183.267V114.966Z" fill="#FF3939"/>
<path d="M13.4375 50.6764C13.4375 49.4973 14.3934 48.5414 15.5725 48.5414H44.4304C45.6096 48.5414 46.5655 49.4973 46.5655 50.6764V142.084C46.5655 143.263 45.6096 144.219 44.4304 144.219H15.5725C14.3934 144.219 13.4375 143.263 13.4375 142.084V50.6764Z" fill="#D9D9D9"/>
<path d="M11.9756 51.7932C11.9756 50.6141 12.9315 49.6582 14.1106 49.6582H43.6354C44.8145 49.6582 45.7704 50.6141 45.7704 51.7932V141.466C45.7704 142.645 44.8145 143.601 43.6354 143.601H14.1106C12.9315 143.601 11.9756 142.645 11.9756 141.466V51.7932Z" fill="white"/>
</g>
<defs>
<clipPath id="clip0_587_86">
<rect width="57.9573" height="228.433" fill="white" transform="translate(0.308594 0.144043)"/>
</clipPath>
</defs>
</svg>
