<svg width="389" height="627" viewBox="0 0 389 627" fill="none" xmlns="http://www.w3.org/2000/svg">
<g clip-path="url(#clip0_529_292)">
<path d="M13.7629 192.34H81.7448C81.7683 192.495 81.784 192.676 81.784 192.878C81.784 192.878 81.784 192.878 81.784 192.878V555.763C81.784 574.97 77.6927 592.288 71.2453 604.693C64.7165 617.252 56.243 624 47.7538 624H46.922C38.6615 624 30.395 617.432 24.0181 605.163L21.3562 606.547L24.018 605.163C17.7212 593.049 13.7236 576.13 13.7236 557.364V192.878C13.7236 192.878 13.7236 192.878 13.7236 192.878C13.7237 192.676 13.7394 192.495 13.7629 192.34ZM81.5772 191.749C81.5747 191.745 81.5734 191.743 81.5735 191.743C81.5735 191.743 81.5748 191.745 81.5772 191.749ZM13.9304 191.749C13.9328 191.745 13.9341 191.743 13.9342 191.743C13.9342 191.743 13.933 191.745 13.9304 191.749Z" fill="#9BCCDE" stroke="black" stroke-width="6"/>
<path d="M15.3994 188.654H80.1087V554.785C80.1087 573.341 76.2041 590.069 70.0536 602.049C63.818 614.194 55.7607 620.649 47.754 620.649H46.9183C39.1413 620.649 31.2931 614.378 25.209 602.528C19.21 590.844 15.3994 574.523 15.3994 556.413V188.654Z" fill="#DAF6FF" stroke="black" stroke-width="6"/>
<path d="M90.2301 186.728H92.5077V189.691H3V186.728H5.20344H8.20345V183.728L8.20344 124.26C8.20344 124.259 8.20345 124.259 8.20345 124.258C8.20383 123.809 8.28467 123.373 8.43264 122.98C8.58075 122.587 8.78724 122.26 9.01977 122.01L9.8196 121.147V119.97V118.499C9.8196 116.504 11.165 115.599 11.9511 115.599H83.3201C84.1074 115.599 85.4528 116.504 85.4528 118.499V119.802V121.052L86.34 121.932C86.5891 122.179 86.8142 122.511 86.9771 122.919C87.1399 123.327 87.2297 123.786 87.2301 124.261V183.728V186.728H90.2301Z" fill="#E83436" stroke="black" stroke-width="6"/>
<path d="M18.4175 119.301V185.654H16.7559V119.301H18.4175ZM74.7307 119.301V185.654H73.069V119.301H74.7307ZM68.4733 119.301V185.654H66.8116V119.301H68.4733ZM62.2168 119.301V185.654H60.5551V119.301H62.2168ZM55.9598 119.301V185.654H54.2981V119.301H55.9598ZM49.7024 119.301V185.654H48.0403V119.301H49.7024ZM43.4454 119.301V185.654H41.7837V119.301H43.4454ZM37.1884 119.301V185.654H35.5268V119.301H37.1884ZM30.9315 119.301V185.654H29.2698V119.301H30.9315ZM24.6745 119.301V185.654H23.0128V119.301H24.6745Z" fill="#B00E11"/>
<path fill-rule="evenodd" clip-rule="evenodd" d="M16.6816 371.163H78.8261V559.324C78.8261 593.199 67.1987 619 47.832 619H47C28.0906 619 16.6816 593.862 16.6816 560.779V371.163Z" fill="#E83436"/>
<path fill-rule="evenodd" clip-rule="evenodd" d="M28.9639 371.163H78.8264V559.323C78.8264 563.502 78.6469 567.521 78.2976 571.347C73.4158 577.096 67.2573 580.282 60.0367 580.282H59.2042C40.2959 580.282 28.9639 558.05 28.9639 524.969V371.163Z" fill="#FF3939"/>
<path d="M17 242H66.4871C69.6544 242 72.222 244.568 72.222 247.735V429.291C72.222 432.459 69.6544 435.026 66.4871 435.026H17V242Z" fill="#D9D9D9"/>
<path d="M18.5059 243.757H64.7299C67.8972 243.757 70.4648 246.325 70.4648 249.492V427.032C70.4648 430.2 67.8972 432.767 64.7299 432.767H18.5059V243.757Z" fill="white"/>
<path d="M17.9532 276.837C17.4179 276.753 16.8979 276.585 16.3933 276.333C15.8886 276.08 15.4413 275.74 15.0513 275.312C14.6613 274.884 14.3478 274.364 14.1108 273.752C13.8814 273.14 13.7667 272.429 13.7667 271.619C13.7667 270.816 13.8814 270.108 14.1108 269.497C14.3478 268.877 14.6613 268.35 15.0513 267.914C15.4413 267.478 15.8886 267.13 16.3933 266.87C16.8979 266.61 17.4179 266.43 17.9532 266.331L18.2284 267.558C17.9608 267.619 17.6549 267.73 17.3108 267.891C16.9744 268.044 16.6532 268.277 16.3474 268.591C16.0415 268.896 15.7815 269.294 15.5674 269.783C15.361 270.273 15.2577 270.884 15.2577 271.619C15.2577 272.322 15.3686 272.915 15.5904 273.396C15.8121 273.878 16.0797 274.272 16.3933 274.578C16.7144 274.891 17.0432 275.125 17.3797 275.277C17.7161 275.438 17.999 275.541 18.2284 275.587L17.9532 276.837ZM20.2312 273.006H22.2613V267.776H20.2312V266.377H25.8743V267.776H23.8327V273.006H25.8743V274.406H20.2312V273.006ZM29.999 272.261H30.0564L31.6392 266.377H33.2679L30.8592 274.406H29.0699L26.5925 266.377H28.3473L29.999 272.261ZM34.743 275.587C34.9724 275.541 35.2554 275.438 35.5918 275.277C35.9283 275.125 36.2532 274.891 36.5667 274.578C36.8879 274.272 37.1594 273.878 37.3811 273.396C37.6029 272.915 37.7137 272.322 37.7137 271.619C37.7137 270.884 37.6067 270.273 37.3926 269.783C37.1861 269.294 36.93 268.896 36.6241 268.591C36.3182 268.277 35.9933 268.044 35.6492 267.891C35.3127 267.73 35.0107 267.619 34.743 267.558L35.0183 266.331C35.5536 266.43 36.0735 266.61 36.5782 266.87C37.0829 267.13 37.5302 267.478 37.9202 267.914C38.3102 268.35 38.6199 268.877 38.8492 269.497C39.0863 270.108 39.2048 270.816 39.2048 271.619C39.2048 272.429 39.0863 273.14 38.8492 273.752C38.6199 274.364 38.3102 274.884 37.9202 275.312C37.5302 275.74 37.0829 276.08 36.5782 276.333C36.0735 276.585 35.5536 276.753 35.0183 276.837L34.743 275.587ZM42.7445 273.672C42.7445 273.412 42.8286 273.205 42.9969 273.052C43.1727 272.899 43.3907 272.823 43.6506 272.823C44.0712 272.823 44.3885 272.961 44.6026 273.236C44.8167 273.511 44.9238 273.851 44.9238 274.257C44.9238 274.601 44.855 274.914 44.7173 275.197C44.5873 275.48 44.4153 275.725 44.2012 275.931C43.9871 276.138 43.7462 276.306 43.4786 276.436C43.2186 276.566 42.9586 276.654 42.6986 276.7L42.389 276.069C42.5725 276.023 42.756 275.958 42.9395 275.874C43.1307 275.79 43.3027 275.683 43.4556 275.553C43.6086 275.43 43.7347 275.285 43.8342 275.117C43.9412 274.949 44.0024 274.765 44.0177 274.566C43.7883 274.612 43.5933 274.616 43.4327 274.578C43.2721 274.547 43.1383 274.49 43.0313 274.406C42.9319 274.314 42.8592 274.207 42.8133 274.085C42.7675 273.955 42.7445 273.817 42.7445 273.672ZM13.4455 279.457C13.6214 279.427 13.8087 279.4 14.0075 279.377C14.214 279.346 14.4166 279.323 14.6154 279.308C14.8219 279.293 15.0207 279.281 15.2119 279.274C15.403 279.266 15.5789 279.262 15.7395 279.262C16.1142 279.262 16.4812 279.3 16.8406 279.377C17.2076 279.446 17.5326 279.568 17.8155 279.744C18.1061 279.92 18.3355 280.157 18.5037 280.455C18.6796 280.753 18.7675 281.124 18.7675 281.568C18.7675 281.896 18.7331 282.183 18.6643 282.428C18.6031 282.665 18.5152 282.875 18.4005 283.059C18.2858 283.242 18.1443 283.403 17.9761 283.54C17.8155 283.67 17.6396 283.789 17.4485 283.896L19.3869 287.406H17.5747L15.9574 284.263H15.0169V287.406H13.4455V279.457ZM15.8542 280.661C15.6936 280.661 15.533 280.665 15.3724 280.673C15.2195 280.681 15.101 280.696 15.0169 280.719V283.047H15.6362C16.0721 283.047 16.4277 282.948 16.7029 282.749C16.9782 282.55 17.1159 282.221 17.1159 281.763C17.1159 281.418 17.0088 281.151 16.7947 280.96C16.5806 280.761 16.2671 280.661 15.8542 280.661ZM19.6118 279.377H21.9287V282.313H21.9746C22.1581 282.068 22.4028 281.873 22.7087 281.728C23.0145 281.583 23.3739 281.51 23.7868 281.51C24.0774 281.51 24.345 281.548 24.5897 281.625C24.8344 281.701 25.0447 281.828 25.2206 282.003C25.3964 282.179 25.5341 282.42 25.6335 282.726C25.7329 283.024 25.7826 283.395 25.7826 283.839V287.406H24.2915V284.148C24.2915 283.682 24.1921 283.345 23.9933 283.139C23.7945 282.932 23.5345 282.829 23.2133 282.829C22.9304 282.829 22.6704 282.917 22.4334 283.093C22.1963 283.261 22.0281 283.479 21.9287 283.747V287.406H20.4376V280.639H19.6118V279.377ZM27.166 282.887H32.6944V284.171H27.166V282.887ZM13.1358 310.538C13.1358 310.057 13.2085 309.628 13.3537 309.254C13.499 308.879 13.7055 308.562 13.9731 308.302C14.2407 308.042 14.5581 307.847 14.9251 307.717C15.2998 307.579 15.7165 307.51 16.1753 307.51C16.6571 307.51 17.0853 307.583 17.46 307.728C17.8423 307.873 18.1634 308.08 18.4234 308.348C18.6834 308.608 18.8784 308.925 19.0084 309.3C19.146 309.674 19.2148 310.087 19.2148 310.538C19.2148 311.02 19.1422 311.448 18.9969 311.823C18.8516 312.198 18.6452 312.515 18.3775 312.775C18.1099 313.035 17.7888 313.234 17.4141 313.371C17.047 313.501 16.6341 313.566 16.1753 313.566C15.6936 313.566 15.2616 313.494 14.8792 313.348C14.5046 313.203 14.1872 313 13.9272 312.74C13.6673 312.473 13.4684 312.152 13.3308 311.777C13.2008 311.402 13.1358 310.989 13.1358 310.538ZM14.6728 310.538C14.6728 310.791 14.7072 311.024 14.776 311.238C14.8448 311.452 14.9442 311.639 15.0742 311.8C15.2042 311.961 15.361 312.087 15.5445 312.178C15.728 312.263 15.9383 312.305 16.1753 312.305C16.6188 312.305 16.9782 312.163 17.2535 311.88C17.5364 311.597 17.6779 311.15 17.6779 310.538C17.6779 310.011 17.5479 309.586 17.2879 309.265C17.0279 308.936 16.6571 308.772 16.1753 308.772C15.9612 308.772 15.7624 308.806 15.5789 308.875C15.3954 308.936 15.2348 309.04 15.0972 309.185C14.9672 309.33 14.8639 309.514 14.7875 309.735C14.711 309.957 14.6728 310.225 14.6728 310.538ZM23.2019 311.674H23.2822L24.5668 307.671H26.1726L23.9818 313.406H22.3875L19.9215 307.671H21.6534L23.2019 311.674ZM27.5215 308.061C27.8274 307.923 28.1791 307.805 28.5767 307.705C28.982 307.606 29.4599 307.556 30.0105 307.556C30.4081 307.556 30.7445 307.606 31.0198 307.705C31.3027 307.797 31.5283 307.931 31.6965 308.107C31.8724 308.283 31.9986 308.493 32.075 308.738C32.1515 308.982 32.1897 309.257 32.1897 309.563C32.1897 309.953 32.1745 310.286 32.1439 310.561C32.1209 310.836 32.1095 311.081 32.1095 311.295C32.1095 311.456 32.1171 311.636 32.1324 311.834C32.1477 311.941 32.1592 312.045 32.1668 312.144H32.9123V313.406H31.0084L30.8592 312.626H30.8019C30.649 312.863 30.431 313.069 30.1481 313.245C29.8652 313.413 29.4829 313.497 29.0011 313.497C28.4276 313.497 27.9727 313.345 27.6362 313.039C27.2998 312.733 27.1315 312.328 27.1315 311.823C27.1315 311.502 27.1889 311.226 27.3036 310.997C27.4259 310.76 27.598 310.569 27.8197 310.424C28.0491 310.271 28.3206 310.16 28.6341 310.091C28.9553 310.014 29.3108 309.976 29.7008 309.976C29.8384 309.976 29.9837 309.984 30.1366 309.999C30.2896 310.014 30.4769 310.03 30.6987 310.045C30.714 309.969 30.7216 309.892 30.7216 309.816V309.598C30.7216 309.307 30.6375 309.101 30.4693 308.978C30.301 308.848 30.0525 308.783 29.7237 308.783C29.3338 308.783 28.982 308.833 28.6685 308.932C28.355 309.032 28.0912 309.131 27.8771 309.231L27.5215 308.061ZM29.4829 312.27C29.8499 312.27 30.1252 312.205 30.3087 312.075C30.4922 311.938 30.626 311.792 30.7101 311.639V310.951C30.6337 310.936 30.519 310.921 30.366 310.905C30.2131 310.882 30.0487 310.871 29.8728 310.871C29.7276 310.871 29.5823 310.886 29.437 310.917C29.2917 310.94 29.1617 310.982 29.047 311.043C28.9323 311.096 28.8406 311.169 28.7717 311.261C28.7029 311.353 28.6685 311.464 28.6685 311.593C28.6685 311.808 28.7297 311.976 28.852 312.098C28.982 312.213 29.1923 312.27 29.4829 312.27ZM13.4111 338.144H15.4298V334.932H13.4111V333.671H16.9209V338.144H19.0428V339.406H13.4111V338.144ZM15.1545 332.111C15.1545 331.874 15.2424 331.671 15.4183 331.503C15.5942 331.335 15.8389 331.251 16.1524 331.251C16.4735 331.251 16.7297 331.335 16.9209 331.503C17.112 331.671 17.2076 331.874 17.2076 332.111C17.2076 332.356 17.112 332.558 16.9209 332.719C16.7297 332.872 16.4735 332.948 16.1524 332.948C15.8389 332.948 15.5942 332.872 15.4183 332.719C15.2424 332.558 15.1545 332.356 15.1545 332.111ZM23.1216 331.377H25.5188V336.332C25.5188 336.905 25.5494 337.471 25.6105 338.029C25.6105 338.068 25.6144 338.106 25.622 338.144H26.3561V339.406H24.5094L24.3603 338.672H24.3144C24.238 338.809 24.1347 338.932 24.0048 339.039C23.8748 339.146 23.7295 339.241 23.5689 339.325C23.4083 339.402 23.2325 339.459 23.0413 339.497C22.8501 339.543 22.659 339.566 22.4678 339.566C22.1084 339.566 21.7681 339.509 21.447 339.394C21.1335 339.28 20.8582 339.104 20.6212 338.867C20.3841 338.622 20.1968 338.316 20.0591 337.949C19.9215 337.574 19.8527 337.135 19.8527 336.63C19.8527 336.141 19.9253 335.705 20.0706 335.322C20.2235 334.94 20.43 334.619 20.69 334.359C20.9576 334.091 21.2711 333.889 21.6305 333.751C21.9899 333.606 22.3837 333.533 22.8119 333.533C23.0489 333.533 23.2707 333.548 23.4771 333.579C23.6912 333.602 23.8748 333.644 24.0277 333.705V332.639H23.1216V331.377ZM22.8119 338.305C23.1025 338.305 23.3586 338.236 23.5804 338.098C23.8098 337.953 23.9589 337.746 24.0277 337.479V335.047C23.9206 334.963 23.7715 334.902 23.5804 334.864C23.3969 334.818 23.2019 334.795 22.9954 334.795C22.789 334.795 22.5863 334.829 22.3875 334.898C22.1963 334.967 22.0243 335.078 21.8714 335.231C21.7261 335.376 21.6076 335.567 21.5158 335.804C21.4317 336.041 21.3896 336.332 21.3896 336.676C21.3896 337.165 21.512 337.559 21.7567 337.857C22.0014 338.156 22.3531 338.305 22.8119 338.305ZM28.2556 335.449H31.5933V336.768H28.2556V335.449ZM34.5825 338.144H36.3374V333.132L34.8233 334.29L34.1351 333.373L36.7503 331.377H37.7596V338.144H39.4801V339.406H34.5825V338.144ZM40.8635 333.889C40.8635 333.499 40.9285 333.139 41.0585 332.811C41.1961 332.482 41.3834 332.203 41.6205 331.973C41.8652 331.736 42.1557 331.553 42.4922 331.423C42.8363 331.285 43.2186 331.216 43.6392 331.216C44.0674 331.216 44.4573 331.281 44.8091 331.411C45.1608 331.541 45.4629 331.736 45.7152 331.996C45.9675 332.249 46.1625 332.566 46.3002 332.948C46.4378 333.323 46.5066 333.755 46.5066 334.244C46.5066 335.131 46.3919 335.896 46.1625 336.538C45.9331 337.181 45.6235 337.716 45.2335 338.144C44.8511 338.572 44.4038 338.901 43.8915 339.13C43.3792 339.36 42.8439 339.505 42.2857 339.566L41.9646 338.396C42.3851 338.343 42.7636 338.24 43.1001 338.087C43.4442 337.934 43.7424 337.746 43.9947 337.525C44.2471 337.295 44.4535 337.039 44.6141 336.756C44.7747 336.466 44.8779 336.156 44.9238 335.827C44.7632 335.988 44.5568 336.118 44.3044 336.217C44.0521 336.309 43.75 336.355 43.3983 336.355H43.3754C43.0848 336.355 42.7904 336.305 42.4922 336.206C42.194 336.106 41.9225 335.953 41.6778 335.747C41.4408 335.54 41.2458 335.284 41.0929 334.978C40.9399 334.665 40.8635 334.302 40.8635 333.889ZM42.3087 333.808C42.3087 334.023 42.3469 334.214 42.4234 334.382C42.5075 334.543 42.6145 334.68 42.7445 334.795C42.8745 334.902 43.0236 334.986 43.1918 335.047C43.3677 335.101 43.5474 335.127 43.7309 335.127C44.0444 335.127 44.3159 335.078 44.5453 334.978C44.7747 334.879 44.9429 334.757 45.05 334.611C45.0729 334.451 45.0844 334.298 45.0844 334.153C45.0844 333.938 45.0538 333.728 44.9926 333.522C44.9314 333.315 44.8397 333.132 44.7173 332.971C44.595 332.811 44.4421 332.684 44.2585 332.593C44.075 332.493 43.8647 332.444 43.6277 332.444C43.253 332.444 42.9395 332.566 42.6872 332.811C42.4348 333.048 42.3087 333.38 42.3087 333.808ZM13.3537 359.889C13.3537 359.499 13.4187 359.139 13.5487 358.811C13.6864 358.482 13.8737 358.203 14.1108 357.973C14.3554 357.736 14.646 357.553 14.9825 357.423C15.3266 357.285 15.7089 357.216 16.1295 357.216C16.5577 357.216 16.9476 357.281 17.2994 357.411C17.6511 357.541 17.9532 357.736 18.2055 357.996C18.4578 358.249 18.6528 358.566 18.7905 358.948C18.9281 359.323 18.9969 359.755 18.9969 360.244C18.9969 361.131 18.8822 361.896 18.6528 362.538C18.4234 363.181 18.1137 363.716 17.7238 364.144C17.3414 364.572 16.8941 364.901 16.3818 365.13C15.8695 365.36 15.3342 365.505 14.776 365.566L14.4549 364.396C14.8754 364.343 15.2539 364.24 15.5904 364.087C15.9345 363.934 16.2327 363.746 16.485 363.525C16.7374 363.295 16.9438 363.039 17.1044 362.756C17.265 362.466 17.3682 362.156 17.4141 361.827C17.2535 361.988 17.047 362.118 16.7947 362.217C16.5424 362.309 16.2403 362.355 15.8886 362.355H15.8656C15.5751 362.355 15.2807 362.305 14.9825 362.206C14.6842 362.106 14.4128 361.953 14.1681 361.747C13.9311 361.54 13.7361 361.284 13.5831 360.978C13.4302 360.665 13.3537 360.302 13.3537 359.889ZM14.7989 359.808C14.7989 360.023 14.8372 360.214 14.9136 360.382C14.9978 360.543 15.1048 360.68 15.2348 360.795C15.3648 360.902 15.5139 360.986 15.6821 361.047C15.858 361.101 16.0377 361.127 16.2212 361.127C16.5347 361.127 16.8062 361.078 17.0356 360.978C17.265 360.879 17.4332 360.757 17.5402 360.611C17.5632 360.451 17.5747 360.298 17.5747 360.153C17.5747 359.938 17.5441 359.728 17.4829 359.522C17.4217 359.315 17.33 359.132 17.2076 358.971C17.0853 358.811 16.9323 358.684 16.7488 358.593C16.5653 358.493 16.355 358.444 16.118 358.444C15.7433 358.444 15.4298 358.566 15.1775 358.811C14.9251 359.048 14.7989 359.38 14.7989 359.808ZM24.5324 357.239L25.6564 357.744L21.5617 367.012L20.4376 366.484L24.5324 357.239ZM32.488 365.406H27.3724V364.293C27.4642 364.217 27.5789 364.117 27.7165 363.995C27.8541 363.865 28.0071 363.72 28.1753 363.559C28.3512 363.399 28.5347 363.223 28.7259 363.031C28.917 362.84 29.1044 362.641 29.2879 362.435C29.5479 362.144 29.7734 361.881 29.9646 361.644C30.1634 361.407 30.324 361.185 30.4463 360.978C30.5763 360.764 30.6719 360.558 30.7331 360.359C30.7942 360.153 30.8248 359.942 30.8248 359.728C30.8248 359.575 30.7904 359.426 30.7216 359.281C30.6528 359.136 30.5572 359.009 30.4349 358.902C30.3125 358.788 30.1634 358.7 29.9875 358.639C29.8193 358.57 29.632 358.535 29.4255 358.535C29.1502 358.535 28.8979 358.577 28.6685 358.661C28.4468 358.746 28.2135 358.887 27.9688 359.086L27.3724 358.031C27.6936 357.801 28.0491 357.61 28.4391 357.457C28.8367 357.297 29.2917 357.216 29.804 357.216C30.1328 357.216 30.4463 357.262 30.7445 357.354C31.0504 357.446 31.318 357.583 31.5474 357.767C31.7845 357.943 31.9718 358.164 32.1095 358.432C32.2471 358.7 32.3159 359.009 32.3159 359.361C32.3159 359.606 32.293 359.835 32.2471 360.049C32.2089 360.256 32.1439 360.466 32.0521 360.68C31.968 360.887 31.8533 361.101 31.708 361.322C31.5704 361.544 31.4022 361.785 31.2033 362.045C31.0504 362.244 30.8822 362.447 30.6987 362.653C30.5228 362.852 30.3469 363.043 30.1711 363.226C29.9952 363.41 29.8193 363.582 29.6434 363.743C29.4752 363.903 29.3223 364.037 29.1846 364.144H32.488V365.406ZM39.9848 363.169H38.6084V365.406H37.2205V363.169H33.7452V362.148L37.3811 357.319H38.6084V361.976H39.9848V363.169ZM37.2205 359.43L35.2248 361.976H37.2205V359.43Z" fill="black"/>
</g>
<g clip-path="url(#clip1_529_292)">
<path d="M165.202 587.814L162.54 589.198L165.202 587.814C157.639 573.267 152.855 552.99 152.855 530.531V95.7603C152.855 95.7601 152.855 95.7599 152.855 95.7598C152.856 95.2624 152.927 94.8442 153.015 94.5396H235.049C235.137 94.8442 235.208 95.2624 235.208 95.7598C235.208 95.7599 235.208 95.7601 235.208 95.7603V528.622C235.208 551.606 230.313 572.359 222.57 587.253C214.747 602.301 204.487 610.595 194.032 610.595H193.039C182.858 610.595 172.844 602.516 165.202 587.814ZM153.201 94.0893C153.202 94.0893 153.201 94.0906 153.199 94.0931C153.201 94.0905 153.201 94.0892 153.201 94.0893ZM234.862 94.0893C234.862 94.0892 234.863 94.0905 234.865 94.093C234.863 94.0906 234.862 94.0893 234.862 94.0893Z" fill="#9BCCDE" stroke="black" stroke-width="6"/>
<path d="M154.854 90.1425H233.209V527.455C233.209 549.662 228.537 569.71 221.15 584.096C213.678 598.649 203.915 606.598 194.032 606.598H193.035C183.426 606.598 173.912 598.869 166.621 584.669C159.415 570.635 154.854 551.072 154.854 529.396V90.1425Z" fill="#DAF6FF" stroke="black" stroke-width="6"/>
<path d="M244.705 87.8457H248.002V92.537H140.062V87.8457H143.27H146.27V84.8457V13.9096C146.27 13.3045 146.379 12.7145 146.581 12.1792C146.782 11.644 147.067 11.1894 147.398 10.8325L148.198 9.96957V8.79292V7.03812C148.198 4.4173 149.989 3 151.32 3H236.462C237.794 3 239.585 4.41799 239.585 7.03812V8.59251V9.84233L240.473 10.7225C240.829 11.0761 241.14 11.5398 241.362 12.0963C241.584 12.6529 241.705 13.2729 241.705 13.9106V84.8457V87.8457H244.705Z" fill="#E83436" stroke="black" stroke-width="6"/>
<path d="M161.433 7.99471V87.1425H159.45V7.99471H161.433ZM228.613 7.99471V87.1425H226.631V7.99471H228.613ZM221.148 7.99471V87.1425H219.166V7.99471H221.148ZM213.684 7.99471V87.1425H211.702V7.99471H213.684ZM206.22 7.99471V87.1425H204.237V7.99471H206.22ZM198.755 7.99471V87.1425H196.772V7.99471H198.755ZM191.29 7.99471V87.1425H189.308V7.99471H191.29ZM183.826 7.99471V87.1425H181.844V7.99471H183.826ZM176.361 7.99471V87.1425H174.379V7.99471H176.361ZM168.897 7.99471V87.1425H166.915V7.99471H168.897Z" fill="#B00E11"/>
<path fill-rule="evenodd" clip-rule="evenodd" d="M156.963 308.424H231.1V532.869C231.1 573.277 217.136 605.5 194.032 605.5C171.473 605.5 156.963 574.067 156.963 534.605V308.424Z" fill="#FB4B4D"/>
<path fill-rule="evenodd" clip-rule="evenodd" d="M171.616 308.425H231.101V532.868C231.101 537.852 230.887 542.647 230.471 547.211C224.647 554.069 217.3 557.868 208.686 557.868H207.692C185.135 557.868 171.616 531.349 171.616 491.889V308.425Z" fill="#FF3939"/>
<path d="M162.873 135.735C162.873 132.568 165.441 130 168.608 130H222.265C225.432 130 228 132.568 228 135.735V381.265C228 384.432 225.432 387 222.265 387H168.608C165.441 387 162.873 384.432 162.873 381.265V135.735Z" fill="#D9D9D9"/>
<path d="M160 138.735C160 135.568 162.568 133 165.735 133H220.703C223.87 133 226.438 135.568 226.438 138.735V379.607C226.438 382.774 223.87 385.341 220.703 385.341H165.735C162.568 385.341 160 382.774 160 379.607V138.735Z" fill="white"/>
</g>
<g clip-path="url(#clip2_529_292)">
<path d="M304.838 143H375.162C375.65 143 376.117 143.373 376.462 144.035C376.806 144.697 377 145.596 377 146.533V508.871C377 528.433 372.837 546.218 366.132 559.108C359.427 571.997 350.176 580 340 580H339.169C329.222 580 320.177 572.177 313.624 559.577C307.07 546.977 303 529.592 303 510.469V146.533C303 145.596 303.194 144.697 303.538 144.035C303.883 143.373 304.35 143 304.838 143Z" fill="#9BCCDE"/>
<path fill-rule="evenodd" clip-rule="evenodd" d="M305 139H376V508.135C376 546.007 360.023 577 340.5 577H339.661C320.6 577 305 546.744 305 509.763V139Z" fill="#DAF6FF"/>
<path d="M308 142H373V508.135C373 526.689 369.08 543.416 362.905 555.395C356.645 567.537 348.553 574 340.5 574H339.661C331.838 574 323.956 567.721 317.849 555.875C311.826 544.191 308 527.872 308 509.763V142Z" fill="#DAF6FF" stroke="black" stroke-width="6"/>
<path fill-rule="evenodd" clip-rule="evenodd" d="M311 368L371 368V512.272C371 546.144 359.698 571 341 571C322.743 571 311 546.806 311 513.727V368Z" fill="#FF2929"/>
<path d="M382.75 140.047H385V143H296V140.047H298.176H301.176V137.047V77.6478C301.176 77.197 301.257 76.7598 301.404 76.3666C301.552 75.9735 301.757 75.6476 301.988 75.3978L302.783 74.5359V73.363V71.8935C302.783 69.8894 304.127 69 304.888 69H375.877C376.639 69 377.983 69.8901 377.983 71.8935V73.1951V74.4412L378.865 75.3206C379.112 75.5664 379.336 75.8974 379.498 76.3058C379.66 76.7142 379.75 77.1735 379.75 77.6487V137.047V140.047H382.75Z" fill="#E83436" stroke="black" stroke-width="6"/>
<path d="M312.662 73V139H311V73H312.662ZM369 73V139H367.338V73H369ZM362.74 73V139H361.077V73H362.74ZM356.481 73V139H354.818V73H356.481ZM350.221 73V139H348.559V73H350.221ZM343.961 73V139H342.298V73H343.961ZM337.701 73V139H336.039V73H337.701ZM331.441 73V139H329.779V73H331.441ZM325.182 73V139H323.519V73H325.182ZM318.922 73V139H317.26V73H318.922Z" fill="#B00E11"/>
<path fill-rule="evenodd" clip-rule="evenodd" d="M321.532 356.418H371.395V512.765C371.395 516.944 371.215 520.963 370.866 524.79C365.984 530.539 359.826 533.724 352.605 533.724H351.773C332.864 533.724 321.532 511.492 321.532 478.411V356.418Z" fill="#FF3939"/>
<path d="M316 205.735C316 202.568 318.568 200 321.735 200H371.222V393.026H321.735C318.568 393.026 316 390.459 316 387.291V205.735Z" fill="#D9D9D9"/>
<path d="M317.506 207.492C317.506 204.325 320.073 201.757 323.241 201.757H369.465V390.767H323.241C320.073 390.767 317.506 388.2 317.506 385.032V207.492Z" fill="white"/>
<path d="M358.796 234.531C358.796 234.733 358.769 234.935 358.714 235.137C358.668 235.339 358.586 235.525 358.47 235.696C358.353 235.859 358.202 236.007 358.015 236.139C357.829 236.263 357.604 236.356 357.34 236.419V236.488C357.573 236.527 357.794 236.593 358.004 236.687C358.213 236.78 358.396 236.908 358.551 237.071C358.707 237.234 358.827 237.432 358.913 237.665C359.006 237.898 359.052 238.174 359.052 238.493C359.052 238.912 358.963 239.277 358.784 239.588C358.606 239.891 358.365 240.14 358.062 240.334C357.767 240.528 357.429 240.672 357.048 240.765C356.668 240.858 356.275 240.905 355.871 240.905C355.739 240.905 355.568 240.905 355.359 240.905C355.157 240.905 354.935 240.897 354.694 240.881C354.461 240.874 354.221 240.858 353.972 240.835C353.731 240.811 353.51 240.777 353.308 240.73V232.69C353.455 232.667 353.622 232.643 353.809 232.62C354.003 232.597 354.209 232.577 354.426 232.562C354.644 232.546 354.865 232.534 355.091 232.527C355.324 232.519 355.553 232.515 355.778 232.515C356.159 232.515 356.528 232.546 356.885 232.608C357.25 232.663 357.573 232.764 357.852 232.911C358.14 233.059 358.369 233.265 358.54 233.529C358.711 233.793 358.796 234.127 358.796 234.531ZM355.883 239.588C356.077 239.588 356.264 239.565 356.442 239.518C356.629 239.471 356.792 239.402 356.932 239.308C357.072 239.207 357.184 239.083 357.27 238.935C357.355 238.788 357.398 238.613 357.398 238.411C357.398 238.155 357.347 237.953 357.246 237.805C357.145 237.658 357.013 237.545 356.85 237.467C356.687 237.382 356.504 237.327 356.302 237.304C356.1 237.281 355.899 237.269 355.697 237.269H354.846V239.518C354.885 239.534 354.947 239.545 355.032 239.553C355.118 239.561 355.207 239.569 355.3 239.576C355.401 239.576 355.502 239.58 355.603 239.588C355.712 239.588 355.805 239.588 355.883 239.588ZM355.359 236.057C355.467 236.057 355.592 236.053 355.732 236.046C355.879 236.038 356 236.026 356.093 236.011C356.388 235.918 356.64 235.778 356.85 235.591C357.068 235.405 357.176 235.16 357.176 234.857C357.176 234.655 357.138 234.488 357.06 234.356C356.982 234.224 356.877 234.119 356.745 234.042C356.621 233.964 356.477 233.909 356.314 233.878C356.151 233.847 355.98 233.832 355.801 233.832C355.599 233.832 355.413 233.836 355.242 233.843C355.071 233.851 354.939 233.863 354.846 233.878V236.057H355.359ZM365.783 234.531C365.783 234.733 365.756 234.935 365.701 235.137C365.655 235.339 365.573 235.525 365.457 235.696C365.34 235.859 365.189 236.007 365.002 236.139C364.816 236.263 364.59 236.356 364.326 236.419V236.488C364.559 236.527 364.781 236.593 364.99 236.687C365.2 236.78 365.383 236.908 365.538 237.071C365.694 237.234 365.814 237.432 365.899 237.665C365.993 237.898 366.039 238.174 366.039 238.493C366.039 238.912 365.95 239.277 365.771 239.588C365.593 239.891 365.352 240.14 365.049 240.334C364.754 240.528 364.416 240.672 364.035 240.765C363.654 240.858 363.262 240.905 362.858 240.905C362.726 240.905 362.555 240.905 362.345 240.905C362.143 240.905 361.922 240.897 361.681 240.881C361.448 240.874 361.207 240.858 360.959 240.835C360.718 240.811 360.497 240.777 360.295 240.73V232.69C360.442 232.667 360.609 232.643 360.796 232.62C360.99 232.597 361.196 232.577 361.413 232.562C361.631 232.546 361.852 232.534 362.077 232.527C362.31 232.519 362.54 232.515 362.765 232.515C363.146 232.515 363.515 232.546 363.872 232.608C364.237 232.663 364.559 232.764 364.839 232.911C365.126 233.059 365.356 233.265 365.526 233.529C365.697 233.793 365.783 234.127 365.783 234.531ZM362.87 239.588C363.064 239.588 363.25 239.565 363.429 239.518C363.616 239.471 363.779 239.402 363.918 239.308C364.058 239.207 364.171 239.083 364.256 238.935C364.342 238.788 364.385 238.613 364.385 238.411C364.385 238.155 364.334 237.953 364.233 237.805C364.132 237.658 364 237.545 363.837 237.467C363.674 237.382 363.491 237.327 363.289 237.304C363.087 237.281 362.885 237.269 362.683 237.269H361.833V239.518C361.872 239.534 361.934 239.545 362.019 239.553C362.105 239.561 362.194 239.569 362.287 239.576C362.388 239.576 362.489 239.58 362.59 239.588C362.699 239.588 362.792 239.588 362.87 239.588ZM362.345 236.057C362.454 236.057 362.578 236.053 362.718 236.046C362.866 236.038 362.986 236.026 363.08 236.011C363.375 235.918 363.627 235.778 363.837 235.591C364.054 235.405 364.163 235.16 364.163 234.857C364.163 234.655 364.124 234.488 364.047 234.356C363.969 234.224 363.864 234.119 363.732 234.042C363.608 233.964 363.464 233.909 363.301 233.878C363.138 233.847 362.967 233.832 362.788 233.832C362.586 233.832 362.4 233.836 362.229 233.843C362.058 233.851 361.926 233.863 361.833 233.878V236.057H362.345ZM369.099 240.042C369.099 239.778 369.185 239.569 369.356 239.413C369.534 239.258 369.756 239.18 370.02 239.18C370.447 239.18 370.769 239.32 370.987 239.6C371.204 239.879 371.313 240.225 371.313 240.637C371.313 240.986 371.243 241.305 371.103 241.592C370.971 241.88 370.797 242.128 370.579 242.338C370.362 242.548 370.117 242.719 369.845 242.851C369.581 242.983 369.317 243.072 369.053 243.119L368.738 242.478C368.924 242.431 369.111 242.365 369.297 242.28C369.491 242.194 369.666 242.085 369.822 241.953C369.977 241.829 370.105 241.682 370.206 241.511C370.315 241.34 370.377 241.153 370.393 240.951C370.16 240.998 369.961 241.002 369.798 240.963C369.635 240.932 369.499 240.874 369.39 240.788C369.29 240.695 369.216 240.586 369.169 240.462C369.122 240.33 369.099 240.19 369.099 240.042ZM360.295 245.713C360.473 245.682 360.664 245.655 360.866 245.632C361.075 245.601 361.281 245.577 361.483 245.562C361.693 245.546 361.895 245.534 362.089 245.527C362.283 245.519 362.462 245.515 362.625 245.515C363.006 245.515 363.379 245.554 363.744 245.632C364.117 245.702 364.447 245.826 364.734 246.004C365.029 246.183 365.262 246.424 365.433 246.727C365.612 247.03 365.701 247.407 365.701 247.857C365.701 248.191 365.666 248.483 365.596 248.731C365.534 248.972 365.445 249.186 365.328 249.372C365.212 249.558 365.068 249.722 364.897 249.861C364.734 249.993 364.555 250.114 364.361 250.223L366.331 253.788H364.489L362.846 250.595H361.891V253.788H360.295V245.713ZM362.742 246.937C362.578 246.937 362.415 246.941 362.252 246.948C362.097 246.956 361.976 246.972 361.891 246.995V249.36H362.52C362.963 249.36 363.324 249.259 363.604 249.057C363.884 248.855 364.023 248.521 364.023 248.055C364.023 247.706 363.915 247.434 363.697 247.24C363.48 247.038 363.161 246.937 362.742 246.937ZM366.559 245.632H368.913V248.615H368.959C369.146 248.366 369.394 248.168 369.705 248.02C370.016 247.873 370.381 247.799 370.8 247.799C371.096 247.799 371.367 247.838 371.616 247.915C371.865 247.993 372.078 248.121 372.257 248.3C372.436 248.479 372.575 248.723 372.676 249.034C372.777 249.337 372.828 249.714 372.828 250.164V253.788H371.313V250.479C371.313 250.005 371.212 249.663 371.01 249.454C370.808 249.244 370.544 249.139 370.218 249.139C369.93 249.139 369.666 249.228 369.425 249.407C369.185 249.578 369.014 249.799 368.913 250.071V253.788H367.398V246.913H366.559V245.632ZM355.568 276.386H354.741V279.788H353.145V271.632H354.741V274.964H355.568L357.433 271.632H359.25L356.955 275.57L359.542 279.788H357.573L355.568 276.386ZM360.027 278.506H361.472V275.244H360.027V273.962H362.648L362.823 274.731H362.87C363.087 274.475 363.336 274.261 363.616 274.09C363.895 273.919 364.221 273.834 364.594 273.834C365.06 273.834 365.426 274.005 365.69 274.347C365.962 274.688 366.097 275.259 366.097 276.059H364.734C364.734 275.78 364.691 275.578 364.606 275.454C364.528 275.321 364.4 275.255 364.221 275.255C363.911 275.255 363.658 275.333 363.464 275.488C363.278 275.644 363.118 275.823 362.986 276.025V278.506H365.515V279.788H360.027V278.506ZM367.608 274.358C367.918 274.218 368.276 274.098 368.68 273.997C369.091 273.896 369.577 273.846 370.136 273.846C370.54 273.846 370.882 273.896 371.162 273.997C371.449 274.09 371.678 274.226 371.849 274.405C372.028 274.584 372.156 274.797 372.234 275.046C372.311 275.294 372.35 275.574 372.35 275.885C372.35 276.281 372.335 276.619 372.304 276.898C372.28 277.178 372.269 277.427 372.269 277.644C372.269 277.807 372.276 277.99 372.292 278.192C372.307 278.301 372.319 278.405 372.327 278.506H373.084V279.788H371.15L370.999 278.996H370.94C370.785 279.237 370.563 279.446 370.276 279.625C369.989 279.796 369.6 279.881 369.111 279.881C368.528 279.881 368.066 279.726 367.724 279.415C367.382 279.105 367.212 278.693 367.212 278.18C367.212 277.854 367.27 277.574 367.386 277.341C367.511 277.1 367.685 276.906 367.911 276.759C368.144 276.603 368.419 276.491 368.738 276.421C369.064 276.343 369.425 276.304 369.822 276.304C369.961 276.304 370.109 276.312 370.264 276.327C370.42 276.343 370.61 276.359 370.835 276.374C370.851 276.296 370.859 276.219 370.859 276.141V275.92C370.859 275.624 370.773 275.415 370.602 275.29C370.431 275.158 370.179 275.092 369.845 275.092C369.449 275.092 369.091 275.143 368.773 275.244C368.454 275.345 368.186 275.446 367.969 275.547L367.608 274.358ZM369.6 278.635C369.973 278.635 370.253 278.569 370.439 278.437C370.626 278.297 370.762 278.149 370.847 277.994V277.295C370.769 277.279 370.653 277.264 370.497 277.248C370.342 277.225 370.175 277.213 369.996 277.213C369.849 277.213 369.701 277.229 369.554 277.26C369.406 277.283 369.274 277.326 369.157 277.388C369.041 277.442 368.948 277.516 368.878 277.609C368.808 277.702 368.773 277.815 368.773 277.947C368.773 278.165 368.835 278.336 368.959 278.46C369.091 278.576 369.305 278.635 369.6 278.635ZM364.746 303.05H366.028V305.38C365.779 305.559 365.46 305.699 365.072 305.8C364.691 305.901 364.299 305.951 363.895 305.951C363.382 305.951 362.893 305.878 362.427 305.73C361.969 305.575 361.565 305.33 361.215 304.996C360.866 304.654 360.586 304.215 360.376 303.679C360.166 303.135 360.062 302.479 360.062 301.71C360.062 300.91 360.178 300.242 360.411 299.706C360.652 299.162 360.959 298.727 361.332 298.401C361.705 298.067 362.12 297.83 362.578 297.69C363.037 297.542 363.487 297.468 363.93 297.468C364.396 297.468 364.789 297.507 365.107 297.585C365.433 297.663 365.701 297.752 365.911 297.853V300.277H364.629V298.948C364.388 298.909 364.14 298.89 363.884 298.89C363.581 298.89 363.297 298.948 363.033 299.065C362.777 299.174 362.551 299.344 362.357 299.578C362.163 299.811 362.011 300.106 361.903 300.463C361.794 300.813 361.74 301.228 361.74 301.71C361.74 302.129 361.79 302.514 361.891 302.863C361.992 303.205 362.14 303.5 362.334 303.749C362.528 303.998 362.765 304.192 363.045 304.332C363.324 304.464 363.643 304.53 364 304.53C364.256 304.53 364.505 304.506 364.746 304.46V303.05ZM366.967 302.875C366.967 302.386 367.041 301.951 367.188 301.57C367.336 301.189 367.546 300.867 367.817 300.603C368.089 300.339 368.412 300.141 368.785 300.009C369.165 299.869 369.589 299.799 370.055 299.799C370.544 299.799 370.979 299.873 371.36 300.02C371.748 300.168 372.074 300.378 372.339 300.65C372.603 300.914 372.801 301.236 372.933 301.617C373.073 301.997 373.143 302.417 373.143 302.875C373.143 303.365 373.069 303.8 372.921 304.18C372.774 304.561 372.564 304.883 372.292 305.147C372.02 305.411 371.694 305.613 371.313 305.753C370.94 305.885 370.521 305.951 370.055 305.951C369.565 305.951 369.126 305.878 368.738 305.73C368.357 305.582 368.035 305.376 367.771 305.112C367.507 304.84 367.305 304.514 367.165 304.134C367.033 303.753 366.967 303.333 366.967 302.875ZM368.528 302.875C368.528 303.131 368.563 303.368 368.633 303.586C368.703 303.803 368.804 303.994 368.936 304.157C369.068 304.32 369.227 304.448 369.414 304.541C369.6 304.627 369.814 304.67 370.055 304.67C370.505 304.67 370.87 304.526 371.15 304.238C371.437 303.951 371.581 303.497 371.581 302.875C371.581 302.339 371.449 301.908 371.185 301.582C370.921 301.248 370.544 301.081 370.055 301.081C369.837 301.081 369.635 301.116 369.449 301.186C369.262 301.248 369.099 301.353 368.959 301.5C368.827 301.648 368.722 301.834 368.645 302.059C368.567 302.285 368.528 302.557 368.528 302.875ZM351.693 331.788H346.496V330.658C346.589 330.58 346.706 330.479 346.845 330.355C346.985 330.223 347.141 330.075 347.311 329.912C347.49 329.749 347.677 329.57 347.871 329.376C348.065 329.182 348.255 328.98 348.442 328.77C348.706 328.475 348.935 328.207 349.129 327.966C349.331 327.725 349.494 327.5 349.619 327.29C349.751 327.073 349.848 326.863 349.91 326.661C349.972 326.451 350.003 326.238 350.003 326.02C350.003 325.865 349.968 325.713 349.898 325.566C349.828 325.418 349.731 325.29 349.607 325.181C349.483 325.065 349.331 324.975 349.153 324.913C348.982 324.843 348.791 324.808 348.582 324.808C348.302 324.808 348.046 324.851 347.813 324.937C347.587 325.022 347.35 325.166 347.102 325.368L346.496 324.296C346.822 324.063 347.183 323.869 347.579 323.713C347.983 323.55 348.446 323.468 348.966 323.468C349.3 323.468 349.619 323.515 349.922 323.608C350.232 323.702 350.504 323.841 350.737 324.028C350.978 324.206 351.168 324.432 351.308 324.704C351.448 324.975 351.518 325.29 351.518 325.647C351.518 325.896 351.495 326.129 351.448 326.347C351.409 326.556 351.343 326.77 351.25 326.987C351.164 327.197 351.048 327.415 350.9 327.64C350.761 327.865 350.59 328.11 350.388 328.374C350.232 328.576 350.061 328.782 349.875 328.992C349.696 329.194 349.518 329.388 349.339 329.574C349.16 329.761 348.982 329.935 348.803 330.099C348.632 330.262 348.477 330.398 348.337 330.506H351.693V331.788ZM355.475 330.67C355.732 330.67 355.965 330.638 356.174 330.576C356.392 330.506 356.574 330.413 356.722 330.297C356.877 330.172 356.998 330.033 357.083 329.877C357.169 329.714 357.211 329.539 357.211 329.353C357.211 329.12 357.161 328.926 357.06 328.77C356.967 328.607 356.835 328.479 356.664 328.386C356.493 328.293 356.287 328.226 356.046 328.188C355.805 328.149 355.545 328.129 355.265 328.129H354.613V327.302L356.57 324.913H353.622V323.632H358.377V324.692L356.326 327.034H356.594C356.866 327.034 357.13 327.081 357.386 327.174C357.642 327.267 357.868 327.407 358.062 327.593C358.264 327.78 358.423 328.013 358.54 328.293C358.664 328.572 358.726 328.895 358.726 329.26C358.726 329.702 358.633 330.091 358.446 330.425C358.268 330.759 358.027 331.042 357.724 331.275C357.429 331.501 357.087 331.672 356.699 331.788C356.31 331.897 355.91 331.951 355.498 331.951C355.149 331.951 354.799 331.92 354.45 331.858C354.1 331.796 353.762 331.699 353.436 331.567L353.844 330.308C353.914 330.347 354.007 330.386 354.123 330.425C354.248 330.464 354.384 330.503 354.531 330.541C354.687 330.58 354.842 330.611 354.997 330.635C355.161 330.658 355.32 330.67 355.475 330.67ZM364.571 323.492L365.713 324.004L361.553 333.419L360.411 332.883L364.571 323.492ZM367.002 327.698C367.002 326.991 367.076 326.374 367.223 325.846C367.371 325.31 367.577 324.867 367.841 324.517C368.113 324.168 368.435 323.907 368.808 323.736C369.181 323.558 369.596 323.468 370.055 323.468C371.033 323.468 371.787 323.814 372.315 324.506C372.843 325.189 373.108 326.253 373.108 327.698C373.108 328.413 373.034 329.038 372.886 329.574C372.739 330.102 372.529 330.545 372.257 330.903C371.993 331.252 371.67 331.516 371.29 331.695C370.917 331.866 370.501 331.951 370.043 331.951C369.056 331.951 368.303 331.59 367.782 330.868C367.262 330.137 367.002 329.081 367.002 327.698ZM371.616 327.698C371.616 327.574 371.612 327.457 371.604 327.349C371.604 327.232 371.601 327.12 371.593 327.011L368.738 329.609C368.979 330.316 369.418 330.67 370.055 330.67C370.552 330.67 370.936 330.433 371.208 329.959C371.48 329.485 371.616 328.731 371.616 327.698ZM368.493 327.698C368.493 327.815 368.493 327.927 368.493 328.036C368.501 328.137 368.509 328.242 368.517 328.351L371.36 325.752C371.127 325.084 370.688 324.75 370.043 324.75C369.546 324.75 369.161 324.991 368.889 325.473C368.625 325.947 368.493 326.688 368.493 327.698Z" fill="black"/>
</g>
<defs>
<clipPath id="clip0_529_292">
<rect width="95.5077" height="514.401" fill="white" transform="translate(0 112.599)"/>
</clipPath>
<clipPath id="clip1_529_292">
<rect width="113.939" height="613.595" fill="white" transform="translate(137.062)"/>
</clipPath>
<clipPath id="clip2_529_292">
<rect width="95.5077" height="514.401" fill="white" transform="translate(292.568 66.0409)"/>
</clipPath>
</defs>
</svg>
