<svg width="1406" height="1256" viewBox="0 0 1406 1256" fill="none" xmlns="http://www.w3.org/2000/svg">
<path d="M932.752 936.198C932.752 942.325 927.455 948.892 915.945 955.365C904.628 961.73 888.096 967.538 867.465 972.446C826.24 982.252 769.169 988.34 706.046 988.34C642.924 988.34 585.853 982.252 544.628 972.446C523.997 967.538 507.464 961.73 496.147 955.365C484.638 948.892 479.34 942.325 479.34 936.198C479.34 930.072 484.638 923.504 496.147 917.031C507.464 910.667 523.997 904.858 544.628 899.951C585.853 890.145 642.924 884.057 706.046 884.057C769.169 884.057 826.24 890.145 867.465 899.951C888.096 904.858 904.628 910.667 915.945 917.031C927.455 923.504 932.752 930.072 932.752 936.198Z" fill="#CED0C4"/>
<path d="M932.752 936.198C932.752 942.325 927.455 948.892 915.945 955.365C904.628 961.73 888.096 967.538 867.465 972.446C826.24 982.252 769.169 988.34 706.046 988.34C642.924 988.34 585.853 982.252 544.628 972.446C523.997 967.538 507.464 961.73 496.147 955.365C484.638 948.892 479.34 942.325 479.34 936.198C479.34 930.072 484.638 923.504 496.147 917.031C507.464 910.667 523.997 904.858 544.628 899.951C585.853 890.145 642.924 884.057 706.046 884.057C769.169 884.057 826.24 890.145 867.465 899.951C888.096 904.858 904.628 910.667 915.945 917.031C927.455 923.504 932.752 930.072 932.752 936.198Z" fill="#CED0C4"/>
<path d="M932.752 936.198C932.752 942.325 927.455 948.892 915.945 955.365C904.628 961.73 888.096 967.538 867.465 972.446C826.24 982.252 769.169 988.34 706.046 988.34C642.924 988.34 585.853 982.252 544.628 972.446C523.997 967.538 507.464 961.73 496.147 955.365C484.638 948.892 479.34 942.325 479.34 936.198C479.34 930.072 484.638 923.504 496.147 917.031C507.464 910.667 523.997 904.858 544.628 899.951C585.853 890.145 642.924 884.057 706.046 884.057C769.169 884.057 826.24 890.145 867.465 899.951C888.096 904.858 904.628 910.667 915.945 917.031C927.455 923.504 932.752 930.072 932.752 936.198Z" fill="#CED0C4"/>
<path d="M932.752 936.198C932.752 942.325 927.455 948.892 915.945 955.365C904.628 961.73 888.096 967.538 867.465 972.446C826.24 982.252 769.169 988.34 706.046 988.34C642.924 988.34 585.853 982.252 544.628 972.446C523.997 967.538 507.464 961.73 496.147 955.365C484.638 948.892 479.34 942.325 479.34 936.198C479.34 930.072 484.638 923.504 496.147 917.031C507.464 910.667 523.997 904.858 544.628 899.951C585.853 890.145 642.924 884.057 706.046 884.057C769.169 884.057 826.24 890.145 867.465 899.951C888.096 904.858 904.628 910.667 915.945 917.031C927.455 923.504 932.752 930.072 932.752 936.198Z" stroke="black" stroke-width="4.68099"/>
<rect x="655.201" y="558.178" width="101.329" height="366.355" fill="#CED0C4" stroke="black" stroke-width="4.68099"/>
<rect x="142.34" y="2.3405" width="1128.32" height="783.331" fill="#CED0C4" stroke="black" stroke-width="4.68099"/>
<rect x="171.517" y="55.8702" width="1068.47" height="676.325" fill="#454545"/>
<rect x="172" y="678" width="1068" height="54" fill="#D9D9D9"/>
<path d="M817.5 351.816L836.63 363.072L823.64 373.146L817.5 351.816Z" fill="black"/>
<rect x="827.018" y="365.931" width="2.61814" height="11.1271" transform="rotate(-37.79 827.018 365.931)" fill="black"/>
<rect x="186" y="685" width="41" height="38" fill="#FB4B4D"/>
<line x1="205.5" y1="685" x2="205.5" y2="723" stroke="black"/>
<line x1="186" y1="703.5" x2="227" y2="703.5" stroke="black"/>
<path d="M1028.43 709.48H1031.93V699.469L1028.91 701.783L1027.53 699.95L1032.76 695.964H1034.77V709.48H1038.21V712H1028.43V709.48ZM1051.72 712H1041.5V709.778C1041.68 709.625 1041.91 709.427 1042.19 709.182C1042.46 708.923 1042.77 708.632 1043.1 708.312C1043.46 707.991 1043.82 707.64 1044.2 707.258C1044.59 706.876 1044.96 706.479 1045.33 706.067C1045.85 705.486 1046.3 704.959 1046.68 704.486C1047.07 704.012 1047.4 703.57 1047.64 703.157C1047.9 702.73 1048.09 702.317 1048.21 701.92C1048.33 701.508 1048.4 701.088 1048.4 700.66C1048.4 700.355 1048.33 700.057 1048.19 699.767C1048.05 699.477 1047.86 699.225 1047.62 699.011C1047.37 698.782 1047.07 698.606 1046.72 698.484C1046.39 698.346 1046.01 698.278 1045.6 698.278C1045.05 698.278 1044.55 698.362 1044.09 698.53C1043.65 698.698 1043.18 698.98 1042.69 699.377L1041.5 697.27C1042.14 696.812 1042.85 696.43 1043.63 696.124C1044.42 695.804 1045.33 695.643 1046.36 695.643C1047.01 695.643 1047.64 695.735 1048.24 695.918C1048.85 696.101 1049.38 696.376 1049.84 696.743C1050.31 697.094 1050.69 697.537 1050.96 698.071C1051.24 698.606 1051.37 699.225 1051.37 699.927C1051.37 700.416 1051.33 700.874 1051.24 701.302C1051.16 701.714 1051.03 702.134 1050.85 702.562C1050.68 702.974 1050.45 703.402 1050.16 703.844C1049.88 704.287 1049.55 704.768 1049.15 705.288C1048.85 705.685 1048.51 706.09 1048.14 706.502C1047.79 706.899 1047.44 707.281 1047.09 707.647C1046.74 708.014 1046.39 708.358 1046.04 708.678C1045.7 708.999 1045.39 709.266 1045.12 709.48H1051.72V712ZM1058.49 702.195C1058.49 701.661 1058.66 701.241 1058.99 700.935C1059.33 700.614 1059.77 700.454 1060.32 700.454C1060.9 700.454 1061.36 700.614 1061.7 700.935C1062.03 701.241 1062.2 701.661 1062.2 702.195C1062.2 702.73 1062.03 703.157 1061.7 703.478C1061.36 703.799 1060.9 703.959 1060.32 703.959C1059.77 703.959 1059.33 703.799 1058.99 703.478C1058.66 703.157 1058.49 702.73 1058.49 702.195ZM1058.49 710.488C1058.49 709.953 1058.66 709.533 1058.99 709.228C1059.33 708.907 1059.77 708.747 1060.32 708.747C1060.9 708.747 1061.36 708.907 1061.7 709.228C1062.03 709.533 1062.2 709.953 1062.2 710.488C1062.2 711.023 1062.03 711.45 1061.7 711.771C1061.36 712.092 1060.9 712.252 1060.32 712.252C1059.77 712.252 1059.33 712.092 1058.99 711.771C1058.66 711.45 1058.49 711.023 1058.49 710.488ZM1072.89 709.801C1073.39 709.801 1073.85 709.74 1074.26 709.617C1074.69 709.48 1075.05 709.297 1075.34 709.068C1075.65 708.823 1075.88 708.548 1076.05 708.243C1076.22 707.922 1076.3 707.579 1076.3 707.212C1076.3 706.754 1076.2 706.372 1076.01 706.067C1075.82 705.746 1075.56 705.494 1075.23 705.311C1074.89 705.127 1074.49 704.998 1074.01 704.921C1073.54 704.845 1073.03 704.807 1072.48 704.807H1071.19V703.18L1075.04 698.484H1069.25V695.964H1078.59V698.049L1074.56 702.653H1075.09C1075.62 702.653 1076.14 702.745 1076.65 702.928C1077.15 703.111 1077.59 703.386 1077.98 703.753C1078.37 704.119 1078.69 704.578 1078.92 705.127C1079.16 705.677 1079.28 706.311 1079.28 707.029C1079.28 707.899 1079.1 708.663 1078.73 709.32C1078.38 709.976 1077.91 710.534 1077.31 710.992C1076.73 711.435 1076.06 711.771 1075.3 712C1074.53 712.214 1073.75 712.321 1072.94 712.321C1072.25 712.321 1071.56 712.26 1070.87 712.137C1070.19 712.015 1069.52 711.824 1068.88 711.565L1069.68 709.091C1069.82 709.167 1070 709.243 1070.23 709.32C1070.48 709.396 1070.74 709.472 1071.03 709.549C1071.34 709.625 1071.65 709.686 1071.95 709.732C1072.27 709.778 1072.58 709.801 1072.89 709.801ZM1081.82 703.959C1081.82 702.569 1081.96 701.355 1082.25 700.317C1082.54 699.263 1082.95 698.392 1083.47 697.705C1084 697.018 1084.63 696.506 1085.37 696.17C1086.1 695.819 1086.92 695.643 1087.82 695.643C1089.74 695.643 1091.22 696.323 1092.26 697.682C1093.3 699.026 1093.82 701.118 1093.82 703.959C1093.82 705.364 1093.67 706.594 1093.38 707.647C1093.09 708.686 1092.68 709.556 1092.15 710.259C1091.63 710.946 1090.99 711.465 1090.25 711.817C1089.51 712.153 1088.7 712.321 1087.79 712.321C1085.86 712.321 1084.37 711.611 1083.35 710.19C1082.33 708.755 1081.82 706.678 1081.82 703.959ZM1090.89 703.959C1090.89 703.715 1090.88 703.486 1090.86 703.272C1090.86 703.043 1090.86 702.821 1090.84 702.607L1085.23 707.716C1085.7 709.106 1086.57 709.801 1087.82 709.801C1088.8 709.801 1089.55 709.335 1090.09 708.403C1090.62 707.472 1090.89 705.99 1090.89 703.959ZM1084.75 703.959C1084.75 704.188 1084.75 704.41 1084.75 704.623C1084.76 704.822 1084.78 705.028 1084.79 705.242L1090.38 700.133C1089.93 698.82 1089.06 698.163 1087.79 698.163C1086.82 698.163 1086.06 698.637 1085.53 699.583C1085.01 700.515 1084.75 701.974 1084.75 703.959ZM1110.85 709.48H1114.35V699.469L1111.33 701.783L1109.95 699.95L1115.18 695.964H1117.19V709.48H1120.63V712H1110.85V709.48ZM1123.02 703.959C1123.02 702.569 1123.17 701.355 1123.46 700.317C1123.75 699.263 1124.15 698.392 1124.67 697.705C1125.21 697.018 1125.84 696.506 1126.58 696.17C1127.31 695.819 1128.13 695.643 1129.03 695.643C1130.95 695.643 1132.43 696.323 1133.47 697.682C1134.51 699.026 1135.03 701.118 1135.03 703.959C1135.03 705.364 1134.88 706.594 1134.59 707.647C1134.3 708.686 1133.89 709.556 1133.36 710.259C1132.84 710.946 1132.2 711.465 1131.45 711.817C1130.72 712.153 1129.9 712.321 1129 712.321C1127.06 712.321 1125.58 711.611 1124.56 710.19C1123.54 708.755 1123.02 706.678 1123.02 703.959ZM1132.1 703.959C1132.1 703.715 1132.09 703.486 1132.07 703.272C1132.07 703.043 1132.07 702.821 1132.05 702.607L1126.44 707.716C1126.91 709.106 1127.77 709.801 1129.03 709.801C1130 709.801 1130.76 709.335 1131.29 708.403C1131.83 707.472 1132.1 705.99 1132.1 703.959ZM1125.96 703.959C1125.96 704.188 1125.96 704.41 1125.96 704.623C1125.97 704.822 1125.99 705.028 1126 705.242L1131.59 700.133C1131.13 698.82 1130.27 698.163 1129 698.163C1128.03 698.163 1127.27 698.637 1126.74 699.583C1126.22 700.515 1125.96 701.974 1125.96 703.959ZM1145.72 695.689L1147.96 696.697L1139.78 715.207L1137.54 714.153L1145.72 695.689ZM1152.05 709.48H1155.56V699.469L1152.54 701.783L1151.16 699.95L1156.38 695.964H1158.4V709.48H1161.84V712H1152.05V709.48ZM1175.34 712H1165.13V709.778C1165.31 709.625 1165.54 709.427 1165.81 709.182C1166.09 708.923 1166.39 708.632 1166.73 708.312C1167.08 707.991 1167.45 707.64 1167.83 707.258C1168.21 706.876 1168.59 706.479 1168.95 706.067C1169.47 705.486 1169.92 704.959 1170.3 704.486C1170.7 704.012 1171.02 703.57 1171.27 703.157C1171.53 702.73 1171.72 702.317 1171.84 701.92C1171.96 701.508 1172.02 701.088 1172.02 700.66C1172.02 700.355 1171.95 700.057 1171.82 699.767C1171.68 699.477 1171.49 699.225 1171.24 699.011C1171 698.782 1170.7 698.606 1170.35 698.484C1170.01 698.346 1169.64 698.278 1169.23 698.278C1168.68 698.278 1168.17 698.362 1167.72 698.53C1167.27 698.698 1166.81 698.98 1166.32 699.377L1165.13 697.27C1165.77 696.812 1166.48 696.43 1167.26 696.124C1168.05 695.804 1168.96 695.643 1169.98 695.643C1170.64 695.643 1171.27 695.735 1171.86 695.918C1172.47 696.101 1173.01 696.376 1173.47 696.743C1173.94 697.094 1174.31 697.537 1174.59 698.071C1174.86 698.606 1175 699.225 1175 699.927C1175 700.416 1174.95 700.874 1174.86 701.302C1174.79 701.714 1174.66 702.134 1174.47 702.562C1174.31 702.974 1174.08 703.402 1173.79 703.844C1173.51 704.287 1173.18 704.768 1172.78 705.288C1172.47 705.685 1172.14 706.09 1171.77 706.502C1171.42 706.899 1171.07 707.281 1170.72 707.647C1170.37 708.014 1170.01 708.358 1169.66 708.678C1169.33 708.999 1169.02 709.266 1168.75 709.48H1175.34V712ZM1186.93 695.689L1189.17 696.697L1180.99 715.207L1178.75 714.153L1186.93 695.689ZM1202.82 712H1192.6V709.778C1192.78 709.625 1193.01 709.427 1193.29 709.182C1193.56 708.923 1193.87 708.632 1194.2 708.312C1194.55 707.991 1194.92 707.64 1195.3 707.258C1195.68 706.876 1196.06 706.479 1196.43 706.067C1196.94 705.486 1197.39 704.959 1197.78 704.486C1198.17 704.012 1198.49 703.57 1198.74 703.157C1199 702.73 1199.19 702.317 1199.31 701.92C1199.43 701.508 1199.49 701.088 1199.49 700.66C1199.49 700.355 1199.43 700.057 1199.29 699.767C1199.15 699.477 1198.96 699.225 1198.72 699.011C1198.47 698.782 1198.17 698.606 1197.82 698.484C1197.49 698.346 1197.11 698.278 1196.7 698.278C1196.15 698.278 1195.65 698.362 1195.19 698.53C1194.75 698.698 1194.28 698.98 1193.79 699.377L1192.6 697.27C1193.24 696.812 1193.95 696.43 1194.73 696.124C1195.52 695.804 1196.43 695.643 1197.46 695.643C1198.11 695.643 1198.74 695.735 1199.33 695.918C1199.95 696.101 1200.48 696.376 1200.94 696.743C1201.41 697.094 1201.79 697.537 1202.06 698.071C1202.34 698.606 1202.47 699.225 1202.47 699.927C1202.47 700.416 1202.43 700.874 1202.34 701.302C1202.26 701.714 1202.13 702.134 1201.95 702.562C1201.78 702.974 1201.55 703.402 1201.26 703.844C1200.98 704.287 1200.65 704.768 1200.25 705.288C1199.95 705.685 1199.61 706.09 1199.24 706.502C1198.89 706.899 1198.54 707.281 1198.19 707.647C1197.84 708.014 1197.49 708.358 1197.14 708.678C1196.8 708.999 1196.49 709.266 1196.22 709.48H1202.82V712ZM1217.79 707.533H1215.04V712H1212.27V707.533H1205.33V705.494L1212.59 695.849H1215.04V705.15H1217.79V707.533ZM1212.27 700.065L1208.28 705.15H1212.27V700.065Z" fill="black"/>
<path d="M72.0887 728.919L107.766 859.161L98.1243 861.802L62.5757 731.32L72.0887 728.919Z" fill="#FF918E" stroke="black" stroke-width="4"/>
<g filter="url(#filter0_d_612_47)">
<ellipse cx="41" cy="931" rx="37" ry="40" fill="#D9D9D9"/>
<path d="M76 931C76 952.136 60.186 969 41 969C21.814 969 6 952.136 6 931C6 909.864 21.814 893 41 893C60.186 893 76 909.864 76 931Z" stroke="black" stroke-width="4"/>
</g>
<g filter="url(#filter1_d_612_47)">
<ellipse cx="41.5" cy="931" rx="27.5" ry="30" fill="#E2E3D6"/>
<path d="M67 931C67 946.631 55.423 959 41.5 959C27.577 959 16 946.631 16 931C16 915.369 27.577 903 41.5 903C55.423 903 67 915.369 67 931Z" stroke="black" stroke-width="4"/>
</g>
<g filter="url(#filter2_d_612_47)">
<path d="M50 819H205V983C205 1003.74 205 1014.11 198.556 1020.56C192.113 1027 181.742 1027 161 1027H94C73.2582 1027 62.8873 1027 56.4437 1020.56C50 1014.11 50 1003.74 50 983V819Z" fill="#D9D9D9"/>
<path d="M52 821H203V983C203 993.427 202.996 1001.05 202.212 1006.87C201.437 1012.64 199.93 1016.35 197.142 1019.14C194.354 1021.93 190.643 1023.44 184.873 1024.21C179.047 1025 171.427 1025 161 1025H94C83.5726 1025 75.9532 1025 70.1265 1024.21C64.3574 1023.44 60.6462 1021.93 57.8579 1019.14C55.0696 1016.35 53.5633 1012.64 52.7876 1006.87C52.0042 1001.05 52 993.427 52 983V821Z" stroke="black" stroke-width="4" stroke-linejoin="round"/>
</g>
<path d="M60.6078 729.326L62.864 714.357L72.6166 726.213L60.6078 729.326Z" fill="#D9D9D9" stroke="black"/>
<path d="M62.3008 718.129L62.8827 714.206L65.576 717.634L62.3008 718.129Z" fill="#FF918E" stroke="black"/>
<g clip-path="url(#clip0_612_47)">
<rect x="1050" y="799" width="289" height="222" fill="#D9D9D9"/>
<rect x="1103" y="868" width="249" height="140" fill="#D9D9D9"/>
<rect x="1079" y="866" width="228" height="127" fill="white"/>
<path d="M1085.61 794.854V793.323C1085.61 789.87 1086.95 786.636 1089.38 784.223C1091.81 781.789 1095.04 780.449 1098.48 780.449C1105.58 780.449 1111.36 786.224 1111.36 793.323V794.854H1137.95V793.323C1137.95 789.87 1139.29 786.636 1141.72 784.223C1144.15 781.789 1147.38 780.449 1150.82 780.449C1157.92 780.449 1163.7 786.224 1163.7 793.323V794.854H1190.29V793.323C1190.29 789.871 1191.63 786.636 1194.06 784.222C1196.49 781.789 1199.73 780.449 1203.17 780.449C1210.26 780.449 1216.04 786.224 1216.04 793.323V794.854H1242.63V793.323C1242.63 789.871 1243.98 786.636 1246.4 784.222C1248.84 781.789 1252.07 780.449 1255.51 780.449C1262.61 780.449 1268.38 786.224 1268.38 793.323V794.854H1294.98V793.323C1294.98 789.871 1296.32 786.636 1298.74 784.222C1301.18 781.789 1304.41 780.449 1307.85 780.449C1314.95 780.449 1320.72 786.224 1320.72 793.323V794.854H1346.59V799.672L1365 1017.07H1346.59V1028.55H1044V794.854H1085.61ZM1101.29 793.323C1101.29 791.773 1100.03 790.512 1098.48 790.512C1097.73 790.512 1097.03 790.805 1096.48 791.349C1095.96 791.869 1095.67 792.569 1095.67 793.324V794.855H1101.29V793.323ZM1153.64 793.323C1153.64 791.773 1152.37 790.512 1150.83 790.512C1149.86 790.512 1149.21 790.961 1148.82 791.349C1148.3 791.869 1148.01 792.569 1148.01 793.324V794.855H1153.64V793.323ZM1205.98 793.323C1205.98 791.773 1204.72 790.512 1203.17 790.512C1202.2 790.512 1201.55 790.961 1201.17 791.347C1200.64 791.867 1200.36 792.569 1200.36 793.323V794.854H1205.98V793.323ZM1258.32 793.323C1258.32 791.773 1257.06 790.512 1255.51 790.512C1254.55 790.512 1253.89 790.961 1253.51 791.348C1252.99 791.868 1252.7 792.569 1252.7 793.324V794.855H1258.32V793.323ZM1310.66 793.323C1310.66 791.773 1309.4 790.512 1307.85 790.512C1306.89 790.512 1306.24 790.961 1305.85 791.348C1305.33 791.868 1305.04 792.569 1305.04 793.324V794.855H1310.66V793.323ZM1354.05 1007.01L1346.59 918.905V1007.01H1354.05ZM1054.06 1018.49H1336.52V804.917H1305.04V811.453C1310.46 813.496 1314.33 818.717 1314.33 824.838C1314.33 832.732 1307.9 839.154 1300.01 839.154C1292.11 839.154 1285.69 832.732 1285.69 824.838C1285.69 818.717 1289.56 813.496 1294.98 811.453V804.917H1252.7V811.453C1258.11 813.496 1261.98 818.717 1261.98 824.838C1261.98 832.732 1255.56 839.154 1247.67 839.154C1239.77 839.154 1233.35 832.732 1233.35 824.838C1233.35 818.717 1237.22 813.497 1242.64 811.454V804.918H1200.36V811.454C1205.77 813.497 1209.64 818.717 1209.64 824.839C1209.64 832.732 1203.22 839.155 1195.33 839.155C1187.43 839.155 1181.01 832.733 1181.01 824.839C1181.01 818.718 1184.88 813.497 1190.29 811.454V804.918H1148.02V811.454C1153.43 813.497 1157.3 818.717 1157.3 824.839C1157.3 832.732 1150.88 839.155 1142.98 839.155C1135.09 839.155 1128.67 832.733 1128.67 824.839C1128.67 818.718 1132.54 813.497 1137.95 811.454V804.918H1095.67V811.454C1101.09 813.497 1104.96 818.717 1104.96 824.839C1104.96 832.732 1098.53 839.155 1090.64 839.155C1082.75 839.155 1076.33 832.733 1076.33 824.839C1076.33 818.718 1080.19 813.497 1085.61 811.454V804.918H1054.06V1018.49H1054.06ZM1295.76 824.838C1295.76 827.183 1297.66 829.091 1300.01 829.091C1302.35 829.091 1304.26 827.183 1304.26 824.838C1304.26 822.493 1302.35 820.586 1300.01 820.586C1297.66 820.586 1295.76 822.493 1295.76 824.838ZM1243.41 824.838C1243.41 827.183 1245.32 829.091 1247.67 829.091C1250.01 829.091 1251.92 827.183 1251.92 824.838C1251.92 822.493 1250.01 820.586 1247.67 820.586C1245.32 820.586 1243.41 822.493 1243.41 824.838ZM1191.07 824.838C1191.07 827.183 1192.98 829.091 1195.32 829.091C1197.67 829.091 1199.58 827.183 1199.58 824.838C1199.58 822.493 1197.67 820.586 1195.32 820.586C1192.98 820.586 1191.07 822.493 1191.07 824.838ZM1138.73 824.838C1138.73 827.183 1140.64 829.091 1142.98 829.091C1145.33 829.091 1147.24 827.183 1147.24 824.838C1147.24 822.493 1145.33 820.586 1142.98 820.586C1140.64 820.586 1138.73 822.493 1138.73 824.838ZM1086.39 824.838C1086.39 827.183 1088.3 829.091 1090.64 829.091C1092.98 829.091 1094.89 827.183 1094.89 824.838C1094.89 822.493 1092.98 820.586 1090.64 820.586C1088.3 820.586 1086.39 822.493 1086.39 824.838Z" fill="black"/>
<path d="M1317.38 999.1H1073.2V859.519H1317.38V999.1ZM1307.32 869.583H1083.27V989.036H1307.32V869.583Z" fill="black"/>
<path d="M1282.27 881.867H1298.08V897.681H1282.27V881.867Z" fill="#FB4B4D"/>
<path d="M1252.62 881.867H1268.43V897.681H1252.62V881.867Z" fill="#FB4B4D"/>
<path d="M1222.97 881.867H1238.78V897.681H1222.97V881.867Z" fill="black"/>
<path d="M1193.32 881.867H1209.13V897.681H1193.32V881.867Z" fill="black"/>
<path d="M1163.66 881.867H1179.48V897.681H1163.66V881.867Z" fill="black"/>
<path d="M1092.5 881.867H1108.31V897.681H1092.5V881.867Z" fill="black"/>
<path d="M1120.53 881.867H1136.35V897.681H1120.53V881.867Z" fill="black"/>
<path d="M1282.27 908.224H1298.08V924.038H1282.27V908.224Z" fill="#FB4B4D"/>
<path d="M1252.62 908.224H1268.43V924.038H1252.62V908.224Z" fill="#FB4B4D"/>
<path d="M1222.97 908.224H1238.78V924.038H1222.97V908.224Z" fill="black"/>
<path d="M1193.32 908.224H1209.13V924.038H1193.32V908.224Z" fill="black"/>
<path d="M1163.66 908.224H1179.48V924.038H1163.66V908.224Z" fill="black"/>
<path d="M1092.5 908.224H1108.31V924.038H1092.5V908.224Z" fill="black"/>
<path d="M1120.53 908.224H1136.35V924.038H1120.53V908.224Z" fill="black"/>
<path d="M1282.27 934.58H1298.08V950.394H1282.27V934.58Z" fill="#FB4B4D"/>
<path d="M1252.62 934.58H1268.43V950.394H1252.62V934.58Z" fill="#FB4B4D"/>
<path d="M1222.97 934.58H1238.78V950.394H1222.97V934.58Z" fill="black"/>
<path d="M1193.32 934.58H1209.13V950.394H1193.32V934.58Z" fill="black"/>
<path d="M1163.66 934.58H1179.48V950.394H1163.66V934.58Z" fill="black"/>
<path d="M1092.5 934.58H1108.31V950.394H1092.5V934.58Z" fill="black"/>
<path d="M1120.53 934.58H1136.35V950.394H1120.53V934.58Z" fill="black"/>
<path d="M1282.27 960.937H1298.08V976.751H1282.27V960.937Z" fill="#FB4B4D"/>
<path d="M1252.62 960.937H1268.43V976.751H1252.62V960.937Z" fill="#FB4B4D"/>
<path d="M1222.97 960.937H1238.78V976.751H1222.97V960.937Z" fill="black"/>
<path d="M1193.32 960.937H1209.13V976.751H1193.32V960.937Z" fill="black"/>
<path d="M1163.66 960.937H1179.48V976.751H1163.66V960.937Z" fill="black"/>
<path d="M1092.5 960.937H1108.31V976.751H1092.5V960.937Z" fill="black"/>
<path d="M1120.53 960.937H1136.35V976.751H1120.53V960.937Z" fill="black"/>
</g>
<path d="M1188.33 628.155C1188.26 629.745 1186.95 631 1185.36 631H1157.64C1156.05 631 1154.74 629.745 1154.67 628.155L1152.69 586.367H1190.31L1188.33 628.155ZM1165.23 596.746C1165.23 596.08 1164.69 595.54 1164.02 595.54H1162.09C1161.43 595.54 1160.89 596.08 1160.89 596.746V620.621C1160.89 621.287 1161.43 621.826 1162.09 621.826H1164.02C1164.69 621.826 1165.23 621.287 1165.23 620.621V596.746ZM1173.67 596.746C1173.67 596.08 1173.13 595.54 1172.46 595.54H1170.54C1169.87 595.54 1169.33 596.08 1169.33 596.746V620.621C1169.33 621.287 1169.87 621.826 1170.54 621.826H1172.46C1173.13 621.826 1173.67 621.287 1173.67 620.621V596.746ZM1182.11 596.746C1182.11 596.08 1181.57 595.54 1180.91 595.54H1178.98C1178.31 595.54 1177.77 596.08 1177.77 596.746V620.621C1177.77 621.287 1178.31 621.826 1178.98 621.826H1180.91C1181.57 621.826 1182.11 621.287 1182.11 620.621V596.746Z" fill="white"/>
<path d="M1151.38 575.039H1164.16V572.622C1164.16 572.278 1164.44 572 1164.79 572H1178.21C1178.56 572 1178.84 572.278 1178.84 572.622V575.039H1191.62C1192.65 575.039 1193.49 575.874 1193.49 576.903V582.756H1149.51V576.903C1149.51 575.874 1150.35 575.039 1151.38 575.039Z" fill="white"/>
<rect x="1120.49" y="222.058" width="85.891" height="305.516" fill="white" stroke="black" stroke-width="2.11546"/>
<rect x="1120.49" y="222.058" width="85.891" height="49.7617" fill="#B3B3B3" stroke="black" stroke-width="2.11546"/>
<path d="M1188.68 342.516H1190.79V348.422C1191.46 348.345 1192.09 348.275 1192.77 348.201V371.393H1190.81V382.443H1188.69C1188.63 384.348 1188.57 386.132 1188.51 388.043H1186.51C1186.45 389.859 1186.4 391.555 1186.34 393.401H1184.39C1184.32 395.262 1184.26 396.987 1184.2 398.772H1180.15V404.162H1178.01V409.553H1182.17V414.871H1184.3V419.697H1186.47V424.492H1188.65V429.768H1190.75V435.138H1188.54V430.324H1186.36C1186.31 428.528 1186.27 426.837 1186.22 424.997C1185.56 425.08 1184.91 425.162 1184.21 425.247V420.185H1182.04V415.341H1177.93V425.35H1180.09V430.424H1182.15V435.338H1184.33C1184.33 438.66 1184.33 441.92 1184.33 445.18C1183.62 445.18 1182.9 445.18 1182.14 445.18V440.735C1181.96 440.841 1181.83 440.967 1181.69 440.985C1179.93 441.2 1178.17 441.555 1176.41 441.57C1173.58 441.596 1170.75 441.373 1167.93 441.3C1165.86 441.247 1163.8 441.276 1161.74 441.244C1159.1 441.2 1156.45 441.176 1153.81 441.044C1152.89 440.997 1151.97 440.647 1150.96 440.415C1150.89 444.251 1150.83 447.828 1150.77 451.25C1150.22 450.994 1149.77 450.72 1149.33 450.626C1149.22 450.603 1148.98 451.144 1148.97 451.441C1148.94 453.654 1148.96 455.87 1148.96 457.949C1149.49 456.029 1150.38 455.847 1151.26 455.794C1154.65 455.588 1158.04 455.33 1161.43 455.315C1167.28 455.288 1173.14 455.435 1178.99 455.5C1180.71 455.518 1182.43 455.5 1184.31 455.5V445.15C1184.95 445.247 1185.58 445.341 1186.27 445.447V460.618H1184.31C1184.26 462.467 1184.22 464.198 1184.18 465.959C1183.72 466.012 1183.25 466.141 1182.78 466.067C1182.66 466.047 1182.47 465.447 1182.44 465.056C1182.37 464.098 1182.44 463.075 1182.34 462.149C1182.28 461.649 1182.03 461.076 1181.82 460.926C1181.48 460.688 1181.1 460.729 1180.74 460.729C1170.94 460.697 1161.13 460.676 1151.32 460.656C1151.2 460.656 1151.09 460.691 1150.92 460.718V466.232H1153.04V477.223H1157.27L1157.23 477.199V482.919H1161.32V488.404C1163.28 488.404 1165.18 488.431 1167.07 488.39C1167.85 488.372 1168.63 488.207 1169.4 488.11L1169.38 488.069C1169.31 489.962 1169.24 491.855 1169.16 493.825H1163.14C1163.18 495.591 1163.21 497.323 1163.25 499.198H1159.17C1159.13 501.1 1159.1 502.878 1159.06 504.771H1154.96V499.119H1152.88V493.754H1159.15C1159.15 492.079 1159.2 490.474 1159.13 488.901C1159.08 487.69 1158.62 488.269 1158.34 488.254C1157.25 488.201 1156.16 488.231 1155.02 488.231V482.849C1154.36 482.746 1153.71 482.646 1152.97 482.531V477.37H1150.89V471.749H1148.7V462.758C1148.11 462.628 1147.66 462.458 1147.2 462.446C1146.77 462.434 1146.78 461.729 1146.77 461.047C1146.75 456.787 1146.74 452.531 1146.73 448.272C1146.72 447.255 1146.73 446.235 1146.73 445.168C1147.29 445.168 1147.77 445.121 1148.24 445.183C1148.61 445.233 1148.75 444.871 1148.75 444.004C1148.74 442.74 1148.74 441.476 1148.74 440.1H1150.84V430.162C1151.55 430.259 1152.18 430.347 1152.88 430.444V425.538H1155.03V420.562C1156.14 420.444 1157.19 420.3 1158.25 420.227C1159.58 420.133 1159.37 420.441 1159.4 417.34C1159.4 416.808 1159.4 416.276 1159.4 415.588C1160.42 415.447 1161.41 415.253 1162.4 415.185C1163.38 415.115 1164.36 415.171 1165.4 415.171V409.659H1171.53V404.274C1172.51 404.274 1173.43 404.242 1174.34 404.283C1175.74 404.345 1175.73 404.368 1175.77 400.891C1175.78 400.268 1175.81 399.647 1175.84 398.798H1179.98C1179.98 397.311 1179.99 396.058 1179.97 394.809C1179.96 393.801 1180.07 393.272 1180.54 393.292C1181.08 393.316 1181.62 393.157 1182.23 393.069C1182.23 391.923 1182.25 390.817 1182.22 389.721C1182.19 388.542 1182.34 388.11 1182.86 388.104C1184 388.092 1185.13 387.884 1186.34 387.746V382.496C1186.91 382.496 1187.4 382.475 1187.9 382.502C1188.34 382.528 1188.53 382.14 1188.52 380.947C1188.49 378.31 1188.53 375.67 1188.56 373.034C1188.56 372.507 1188.6 371.987 1188.63 371.423C1189.33 371.343 1189.98 371.27 1190.66 371.194V348.413H1188.7V342.475L1188.68 342.516H1188.68ZM1154.98 435.979C1155.35 435.938 1155.67 435.882 1155.99 435.873C1159.72 435.77 1163.44 435.6 1167.17 435.594C1170.56 435.591 1173.95 435.767 1177.34 435.876C1178.06 435.9 1178.78 436.014 1179.5 436.003C1179.66 436.003 1179.95 435.656 1179.96 435.432C1180 433.898 1179.98 432.355 1179.98 430.723C1179.28 430.847 1178.64 430.961 1177.92 431.088V425.829H1157.17C1157.14 427.537 1157.11 429.121 1157.08 430.844H1154.99V435.976L1154.98 435.979ZM1175.89 409.744C1175.89 411.255 1175.91 412.672 1175.89 414.083C1175.87 414.891 1175.99 415.382 1176.32 415.212C1176.81 414.959 1177.54 416.126 1177.76 414.424C1177.94 413.022 1177.8 411.367 1177.8 409.742H1175.89V409.744Z" fill="#332A97"/>
<path d="M1188.7 342.475C1187.94 342.572 1187.19 342.669 1186.38 342.769V337.058H1184.21V331.552C1183.24 331.552 1182.32 331.464 1181.41 331.573C1179.97 331.746 1179.97 331.802 1179.98 328.336C1179.98 327.605 1179.98 326.873 1179.98 325.879H1175.92C1175.89 327.314 1175.85 328.951 1175.81 330.806C1176.39 330.806 1176.92 330.853 1177.45 330.791C1177.85 330.747 1177.99 331.094 1177.97 332.058C1177.95 333.422 1177.97 334.791 1177.97 336.364H1180.12V342.322H1182.25C1182.22 344.336 1182.18 346.267 1182.14 348.201L1182.16 348.154C1181.34 348.131 1180.52 348.087 1179.7 348.087C1171.02 348.095 1162.34 348.11 1153.66 348.125C1152.79 348.125 1151.91 348.125 1151.04 348.125C1151.04 352.322 1151.04 356.311 1151.04 360.3C1150.37 360.3 1149.7 360.3 1149.02 360.3V365.068C1150.11 365.623 1150.29 365.344 1150.25 362.749C1150.23 361.267 1150.39 360.406 1151.03 360.291C1151.95 360.191 1152.87 360.009 1153.79 360.006C1163.45 359.986 1173.12 359.991 1182.78 360.006C1183.25 360.006 1183.72 360.138 1184.33 360.23V354.039L1184.31 354.095H1186.3V365.526H1151.01V371.352H1153.04V376.923H1180.09V382.431C1179.43 382.514 1178.77 382.596 1178.1 382.678L1178.11 382.71C1177.85 382.534 1177.59 382.208 1177.33 382.208C1171.54 382.184 1165.74 382.208 1159.94 382.181C1159.48 382.181 1159.25 382.408 1159.26 383.692C1159.26 385.091 1159.18 386.494 1159.14 387.843C1159.27 387.993 1159.32 388.098 1159.37 388.11C1160.63 388.351 1161.88 388.581 1163.23 388.83V393.398H1169.32C1169.27 395.238 1169.22 396.882 1169.17 398.681H1163.25V404.248H1159.17V409.606H1155.03V398.839H1159.28C1159.28 397.131 1159.3 395.723 1159.26 394.327C1159.25 394.036 1159.01 393.607 1158.86 393.557C1158.51 393.439 1158.14 393.422 1157.79 393.525C1157.18 393.701 1157.01 393.057 1157.06 391.688C1157.1 390.579 1157.07 389.459 1157.07 388.087H1153.02V382.655H1150.96V376.993H1148.82C1148.77 373.942 1148.71 371.12 1148.68 368.298C1148.65 365.474 1148.14 364.759 1147.08 366.105C1147.03 366.17 1146.97 366.217 1146.83 366.364V353.98H1148.78V348.145H1150.85C1150.85 346.452 1150.86 344.906 1150.84 343.363C1150.83 342.352 1150.95 341.973 1151.4 342.099C1151.89 342.237 1152.39 342.131 1152.95 342.131V336.349H1157.07C1157.07 334.897 1157.09 333.589 1157.07 332.281C1157.06 331.405 1157.2 331.047 1157.56 331.079C1158.1 331.126 1158.64 331.091 1159.27 331.091C1159.27 329.827 1159.3 328.666 1159.26 327.519C1159.22 326.335 1159.37 325.873 1159.89 325.885C1161.49 325.92 1163.09 325.776 1164.7 325.841C1165.24 325.864 1165.4 325.376 1165.39 324.171C1165.37 323.007 1165.38 321.84 1165.38 320.523H1169.39C1169.39 319.159 1169.42 317.943 1169.38 316.737C1169.34 315.567 1169.51 315.206 1169.99 315.244C1171.61 315.373 1173.24 315.397 1174.86 315.459C1175.64 315.488 1175.63 315.482 1175.65 313.527C1175.65 312.51 1175.71 311.499 1175.75 310.453C1176.3 310.453 1176.8 310.397 1177.3 310.47C1177.73 310.535 1177.86 310.097 1177.85 309.104C1177.85 307.846 1177.89 306.585 1177.92 305.262C1178.69 305.124 1179.4 304.991 1180.18 304.85V300.115H1181.21C1180.83 300.438 1180.27 303.339 1180.44 304.295C1180.48 304.518 1180.61 304.668 1180.7 304.803C1180.75 304.865 1180.82 304.838 1180.88 304.812C1182.13 304.236 1181.98 305.282 1182 302.034C1182.01 301.593 1182.01 301.152 1182 300.711C1181.98 299.956 1182.1 299.674 1182.42 299.703C1182.9 299.744 1183.39 299.73 1183.86 299.606C1183.99 299.571 1184.2 299.077 1184.21 298.763C1184.28 296.388 1184.32 294.004 1184.37 291.496C1184.4 291.655 1184.41 291.702 1184.41 291.746C1184.42 294.503 1184.27 294.303 1185.49 294.348C1185.75 294.356 1186 294.348 1186.36 294.348C1186.36 291.293 1186.38 288.366 1186.35 285.447C1186.33 284.136 1186.47 283.569 1187.05 283.748C1187.5 283.886 1187.97 283.774 1188.5 283.774V272.881H1190.73C1190.73 274.533 1190.75 276.22 1190.73 277.904C1190.68 280.932 1190.59 283.957 1190.56 286.987C1190.54 288.145 1190.33 288.483 1189.89 288.501C1188.68 288.551 1188.68 288.589 1188.65 291.564C1188.64 292.481 1188.61 293.398 1188.58 294.483H1186.49V299.93H1184.44C1184.39 301.778 1184.34 303.425 1184.29 305.191H1182.25C1182.21 306.999 1182.18 308.689 1182.14 310.517H1180.09V315.559C1179.5 315.559 1178.93 315.585 1178.36 315.55C1177.96 315.526 1177.78 315.853 1177.82 316.923C1177.86 318.037 1177.82 319.162 1177.82 320.559H1180.11C1180.11 322.246 1180.12 323.66 1180.1 325.071C1180.09 325.838 1180.22 326.126 1180.53 326.12C1181.77 326.105 1183 326.114 1184.3 326.114V331.388H1186.35C1186.39 333.301 1186.43 335.085 1186.47 337.005H1188.67C1188.67 338.936 1188.67 340.732 1188.67 342.522L1188.7 342.478L1188.7 342.475ZM1157.25 342.381H1175.74C1175.78 340.303 1175.82 338.431 1175.86 336.385H1173.64V331.288H1161.32V336.549H1157.25V342.381Z" fill="#B00E11"/>
<path d="M1177.94 504.507C1178.65 504.651 1179.37 504.848 1180.09 504.921C1180.79 504.992 1181.49 504.936 1182.28 504.936C1182.24 506.673 1182.21 508.445 1182.17 510.324H1184.38V515.797H1188.58V521.626C1188.77 521.652 1188.96 521.685 1189.15 521.705C1190.15 521.808 1191.14 521.926 1192.14 521.993C1192.48 522.017 1192.61 522.334 1192.59 523.154C1192.57 524.219 1192.59 525.286 1192.59 526.353L1192.4 526.361C1192.42 525.503 1192.42 524.639 1192.47 523.786C1192.52 522.899 1192.38 522.531 1192.02 522.464C1191.47 522.361 1190.95 522.437 1190.38 522.766C1189.8 523.104 1189.12 522.423 1188.48 522.161C1188.28 522.076 1188.08 521.802 1187.88 521.796C1186.68 521.761 1185.48 521.779 1184.22 521.779V515.785H1182.14V510.515H1177.99V515.397H1180.1C1180.1 517.205 1180.12 518.854 1180.08 520.494C1180.07 520.809 1179.82 521.317 1179.66 521.341C1178.96 521.447 1178.26 521.353 1177.56 521.447C1177.07 521.511 1176.58 521.717 1176.09 521.964C1175.98 522.023 1175.89 522.478 1175.8 522.778C1175.58 523.528 1175.35 524.26 1175.17 525.062C1174.73 527.04 1174.03 526.617 1173.33 526.314C1173.1 526.214 1172.86 526.038 1172.63 526.088C1171.78 526.276 1170.93 526.641 1170.08 526.752C1169.18 526.87 1168.27 526.805 1167.37 526.752C1167.1 526.738 1166.83 526.482 1166.56 526.361C1166.32 526.261 1166.07 526 1165.86 526.15C1164.11 527.425 1162.31 526.408 1160.55 526.87L1160.54 526.491H1163.65C1163.67 526.347 1163.69 526.2 1163.71 526.056C1163.41 525.459 1163.07 524.942 1162.81 524.242C1162.56 523.548 1162.39 522.675 1162.15 521.785C1162.25 521.744 1162.39 521.635 1162.53 521.635C1166.08 521.591 1169.63 521.561 1173.18 521.517C1173.9 521.508 1174.62 521.508 1175.34 521.364C1175.49 521.335 1175.73 520.715 1175.74 520.33C1175.79 518.875 1175.76 517.405 1175.76 515.721C1175.07 515.721 1174.4 515.718 1173.73 515.721C1173.27 515.724 1172.8 515.756 1172.34 515.741C1171.94 515.726 1171.53 515.944 1171.17 515.039C1171.04 514.692 1170.67 514.95 1170.43 514.765C1170.25 514.627 1170.11 514.213 1169.95 513.922C1170.11 513.648 1170.25 513.248 1170.43 513.14C1170.61 513.025 1170.86 513.372 1171.01 513.184C1171.18 512.972 1171.35 512.408 1171.37 511.952C1171.39 511.608 1171.19 510.873 1171.08 510.859C1169.23 510.627 1167.38 510.48 1165.45 510.306V515.544H1161.28C1161.26 517.014 1161.21 518.548 1161.22 520.083C1161.23 521.05 1161.08 521.4 1160.7 521.379C1160.06 521.347 1159.42 521.335 1158.78 521.379C1157.68 521.453 1156.58 521.602 1155.47 521.647C1155.3 521.652 1155.12 521.279 1154.94 521.082C1154.97 520.973 1154.99 520.865 1155.02 520.753C1155.49 520.806 1155.96 520.829 1156.42 520.92C1156.85 521.003 1156.99 520.518 1156.97 519.53C1156.95 518.325 1156.96 517.114 1156.96 515.685C1157.62 515.685 1158.19 515.656 1158.77 515.697C1159.11 515.721 1159.24 515.4 1159.21 514.568C1159.18 513.692 1159.19 512.802 1159.16 511.929C1159.12 510.938 1159.25 510.491 1159.68 510.5C1161.54 510.527 1163.41 510.512 1165.35 510.512V504.848H1171.52V499.101C1172.48 499.101 1173.4 499.101 1174.31 499.101C1174.41 499.101 1174.51 499.119 1174.61 499.127C1175.38 499.182 1175.76 498.268 1175.76 496.385C1175.76 495.518 1175.76 494.651 1175.76 493.731C1177.19 493.578 1178.52 493.434 1179.98 493.281C1179.98 491.926 1179.99 490.621 1179.97 489.318C1179.95 488.345 1180.05 487.916 1180.51 487.993C1181.04 488.081 1181.58 487.893 1182.15 487.819C1182.15 486.364 1182.17 485.103 1182.14 483.845C1182.12 482.822 1182.28 482.455 1182.7 482.475C1183.68 482.525 1184.67 482.493 1185.65 482.496C1185.86 482.496 1186.08 482.496 1186.4 482.496V471.782H1188.51C1188.51 470.353 1188.52 468.904 1188.5 467.458C1188.49 466.447 1188.64 466.035 1189.06 466.082C1189.57 466.138 1190.09 466.097 1190.72 466.097V439.959H1192.77V466.059H1190.8V477.017H1188.67V482.449H1186.53C1186.49 484.257 1186.45 485.938 1186.42 487.711H1184.36C1184.3 489.621 1184.25 491.417 1184.19 493.384H1180.14V498.975H1177.96C1177.96 500.967 1177.96 502.763 1177.96 504.562C1177.29 504.562 1176.62 504.562 1175.91 504.562V510.068H1177.94V504.515L1177.94 504.507Z" fill="#B00E11"/>
<path d="M1177.94 288.804V283.63C1177.22 283.239 1176.79 284.412 1176.5 285.412C1175.91 287.513 1175.15 287.937 1174.18 287.931C1170.33 287.904 1166.48 288.045 1162.63 288.066C1160.67 288.075 1158.7 287.942 1156.74 287.91C1156.22 287.901 1155.7 288.039 1155.13 288.116V294.251C1155.13 294.251 1155.19 294.38 1155.24 294.383C1158.25 294.589 1161.26 294.803 1164.27 294.971C1165.4 295.032 1166.52 294.98 1167.56 294.98C1167.35 295.944 1167.06 296.849 1166.94 297.869C1166.52 301.311 1164.34 303.477 1163.14 300.855C1162.77 300.024 1162.07 300.065 1161.44 299.659C1161.41 301.435 1161.38 303.069 1161.34 304.856C1162.36 304.856 1163.35 305.241 1164.26 304.756C1165.3 304.198 1166.27 304.727 1167.34 304.98C1167.29 306.558 1167.24 308.139 1167.18 309.897H1161.29V315.282H1157.09C1157.04 316.867 1156.99 318.589 1156.93 320.515C1156.43 320.515 1155.9 320.582 1155.37 320.462C1155.25 320.435 1155.07 319.768 1155.06 319.377C1155.01 316.984 1154.99 314.586 1154.97 312.187C1154.96 311.655 1154.97 311.12 1154.97 310.418H1150.83C1150.8 308.76 1150.76 307.084 1150.73 305.347H1148.57V300.044H1146.38V294.668H1144.34V289.151L1144.32 289.198H1146.53V294.477H1148.73C1148.69 296.293 1148.65 297.934 1148.61 299.703H1150.79V305.015H1155.05V310.112C1155.63 310.176 1156.2 310.273 1156.77 310.291C1157.45 310.309 1158.13 310.226 1158.81 310.25C1159.15 310.262 1159.28 309.959 1159.27 309.139C1159.27 308.16 1159.29 307.178 1159.33 306.205C1159.37 305.224 1159.17 305.024 1158.83 305.097C1158.37 305.197 1157.91 305.235 1157.45 305.318C1157.11 305.379 1156.97 305.015 1157 304.198C1157.04 302.884 1157.07 301.564 1157.1 300.027C1156.41 300.103 1155.74 300.174 1154.98 300.256V294.462C1154.42 294.462 1153.94 294.38 1153.47 294.483C1152.93 294.603 1152.77 293.96 1152.78 292.775C1152.79 291.652 1152.78 290.526 1152.78 289.109C1152.28 289.109 1151.79 289.036 1151.3 289.13C1150.84 289.218 1150.7 288.757 1150.72 287.698C1150.75 286.432 1150.73 285.162 1150.73 283.763H1148.74V273.034H1150.86V283.554C1151.42 283.554 1151.92 283.569 1152.41 283.548C1152.85 283.53 1153.08 283.924 1153.05 285.1C1153.02 286.205 1153.04 287.322 1153.16 288.43C1153.16 288.116 1153.17 287.796 1153.16 287.484C1153.06 285.538 1153.33 283.945 1153.92 282.637C1154.34 281.702 1154.49 280.717 1153.81 279.58C1154.77 279.58 1155.61 279.453 1156.42 279.621C1157.04 279.744 1157.7 279.568 1158.21 280.926C1158.39 281.402 1158.81 281.449 1159.12 281.496C1160.62 281.714 1162.12 281.875 1163.61 282.037C1164.25 282.105 1164.83 281.781 1165.34 280.717C1165.57 280.265 1165.93 280.082 1166.24 280.053C1167.84 279.906 1169.44 279.865 1171.05 279.75C1173.35 279.586 1175.65 279.412 1177.95 279.189C1179.07 279.08 1179.07 279.03 1179.45 281.629C1179.49 281.905 1179.5 282.293 1179.58 282.44C1180.5 284.127 1179.96 286.485 1180.13 288.76C1179.35 288.76 1178.63 288.76 1177.92 288.76L1177.93 288.795L1177.94 288.804Z" fill="#332A97"/>
<path d="M1157.27 477.22C1156.19 477.105 1155.11 476.967 1154.03 476.882C1153.15 476.811 1153.16 476.84 1153.25 474.624C1153.28 473.904 1153.28 473.178 1153.3 472.211C1154.32 472.137 1155.32 472.008 1156.31 472.005C1163.65 471.981 1170.99 471.984 1178.33 471.981C1178.65 471.981 1178.97 471.987 1179.29 471.981C1180.08 471.967 1180.09 471.946 1180.07 470.003C1180.07 468.839 1180.07 467.678 1180.07 466.426H1182.25C1182.21 468.193 1182.18 469.974 1182.14 471.861H1180.07C1180.07 473.157 1180.03 474.362 1180.08 475.55C1180.13 476.899 1179.9 477.228 1179.39 477.196C1178.41 477.137 1177.43 477.237 1176.45 477.181C1175.96 477.155 1175.75 477.525 1175.78 478.766C1175.81 480.024 1175.78 481.288 1175.78 482.802C1175.02 482.678 1174.37 482.572 1173.72 482.466L1173.74 482.519V477.446C1172.93 477.349 1172.17 477.181 1171.42 477.178C1166.69 477.164 1161.96 477.184 1157.23 477.193L1157.27 477.217V477.22Z" fill="black"/>
<path d="M1142.41 465.956H1140.26V440.233H1142.29V429.633C1142.77 429.633 1143.18 429.562 1143.59 429.65C1144.18 429.777 1144.45 429.359 1144.36 427.79C1144.31 426.743 1144.35 425.662 1144.35 424.498H1146.5V419.621H1148.56V414.883C1149.18 414.883 1149.73 414.85 1150.28 414.894C1150.65 414.924 1150.79 414.592 1150.78 413.704C1150.76 412.44 1150.77 411.173 1150.77 409.859H1154.91V415.115H1150.75V419.936H1148.72C1148.67 421.608 1148.63 423.137 1148.58 424.692C1147.97 424.786 1147.34 424.883 1146.64 424.989V429.859H1144.35V440.133H1142.45C1142.15 448.798 1142.23 457.334 1142.41 465.959V465.956Z" fill="black"/>
<path d="M1148.72 387.793C1147.99 387.904 1147.25 388.019 1146.45 388.14V382.543H1144.27V376.973H1142.25V371.308C1141.58 371.232 1140.91 371.155 1140.23 371.079V348.539H1142.38V371.317C1143.12 371.214 1143.75 371.126 1144.44 371.026V376.843H1146.6C1146.6 378.019 1146.63 379.224 1146.6 380.421C1146.55 382.566 1146.53 382.581 1147.43 382.552C1147.87 382.537 1148.3 382.443 1148.71 382.39V387.831L1148.72 387.79V387.793Z" fill="black"/>
<path d="M1150.78 488.025C1150.24 488.069 1149.7 488.043 1149.16 488.204C1149.03 488.246 1148.84 488.863 1148.82 489.254C1148.74 491.156 1149.29 492.605 1150.24 493.337H1148.75C1148.75 491.896 1148.73 490.544 1148.75 489.198C1148.78 488.04 1148.56 487.619 1148.12 487.634C1147.58 487.655 1147.04 487.64 1146.44 487.64V482.32H1144.25C1144.28 480.82 1144.3 479.477 1144.33 478.131C1144.35 477.226 1144.2 476.799 1143.8 476.855C1143.28 476.926 1142.77 476.873 1142.19 476.873C1142.3 473.357 1142.4 470.012 1142.51 466.555H1144.41V476.796H1146.55V482.375H1150.76V488.063L1150.78 488.028V488.025Z" fill="black"/>
<path d="M1146.62 336.599C1146.57 334.812 1146.53 333.025 1146.48 331.199C1147.04 331.199 1147.53 331.164 1148.03 331.208C1148.6 331.261 1148.75 330.55 1148.67 329.289C1148.61 328.236 1148.6 327.166 1148.56 326.079C1149.12 326.079 1149.63 326.088 1150.14 326.079C1150.62 326.07 1150.88 325.629 1150.83 324.303C1150.79 323.145 1150.82 321.972 1150.82 320.67H1154.92V325.814H1150.84C1150.81 326.914 1150.76 327.878 1150.75 328.845C1150.72 331.082 1150.72 331.085 1149.78 331.117C1149.42 331.129 1149.07 331.117 1148.67 331.117V336.664C1148.03 336.964 1147.32 337.369 1146.61 336.564L1146.62 336.599Z" fill="black"/>
<path d="M1148.71 387.834H1150.87V393.413C1152.1 393.413 1153.25 393.495 1154.41 393.381C1155 393.322 1155.15 393.848 1155.07 395.156C1155.01 396.264 1155 397.396 1154.97 398.636H1150.77V393.486H1148.72C1148.72 391.638 1148.72 389.718 1148.72 387.799L1148.71 387.837V387.834Z" fill="black"/>
<path d="M1144.34 289.151H1142.29V273.116H1144.46C1144.43 274.979 1144.35 276.681 1144.38 278.366C1144.43 280.312 1144.26 282.219 1144.54 284.248C1144.74 285.67 1144.41 287.528 1144.32 289.195L1144.34 289.151Z" fill="black"/>
<path d="M1146.61 336.564C1146.55 338.404 1146.49 340.241 1146.42 342.311C1145.9 342.402 1145.24 342.516 1144.51 342.646C1144.44 344.445 1144.37 346.32 1144.3 348.301H1142.38V342.408C1142.91 342.408 1143.46 342.416 1144.01 342.408C1144.37 342.402 1144.49 341.92 1144.46 341.079C1144.43 339.774 1144.41 338.466 1144.38 337.017C1144.96 337.017 1145.5 337.052 1146.03 336.999C1146.23 336.978 1146.42 336.746 1146.62 336.608C1146.62 336.602 1146.61 336.567 1146.61 336.567V336.564Z" fill="black"/>
<path d="M1173.72 482.469C1173.67 484.38 1173.62 486.294 1173.57 488.069C1172.24 488.069 1170.81 488.069 1169.38 488.069L1169.4 488.11C1169.4 486.432 1169.4 484.751 1169.4 482.79C1170.66 482.79 1171.85 482.805 1173.04 482.778C1173.27 482.772 1173.51 482.614 1173.74 482.522L1173.72 482.469H1173.72Z" fill="black"/>
<path d="M1169.56 393.26C1169.52 391.605 1169.48 390.112 1169.44 388.507H1173.68V393.26H1169.56H1169.56Z" fill="black"/>
<path d="M1150.89 510.247C1150.84 508.551 1150.81 507.102 1150.77 505.585C1152.12 505.374 1153.46 505.165 1154.86 504.945C1154.81 506.711 1154.76 508.448 1154.7 510.247H1150.89Z" fill="black"/>
<path d="M1169.27 303.407C1169.27 302.357 1169.22 301.623 1169.28 300.941C1169.32 300.467 1169.5 299.733 1169.64 299.7C1170.25 299.565 1170.86 299.641 1171.47 299.641V304.794H1167.78C1167.92 303.912 1168.08 302.954 1168.26 301.84C1168.56 302.305 1168.84 302.734 1169.27 303.404L1169.27 303.407Z" fill="black"/>
<path d="M1148.54 515.597C1148.55 517.158 1148.54 518.719 1148.57 520.277C1148.58 520.782 1148.68 521.279 1148.74 521.782L1148.75 521.749C1147.86 521.749 1146.98 521.749 1146.09 521.749L1146.11 521.776C1146.16 521.059 1146.25 520.344 1146.27 519.621C1146.3 518.422 1146.28 517.214 1146.28 515.997C1147.02 515.879 1147.79 515.762 1148.55 515.641L1148.54 515.597Z" fill="black"/>
<path d="M1182.14 348.201H1184.31C1184.31 350.141 1184.31 352.117 1184.31 354.092L1184.33 354.036H1182.16V348.157L1182.14 348.204L1182.14 348.201Z" fill="black"/>
<path d="M1178.1 382.675C1178.09 384.139 1178.07 385.603 1178.06 387.067C1178.06 387.822 1177.94 388.066 1177.62 388.022C1177.03 387.943 1176.43 387.998 1175.77 387.998V382.437C1176.57 382.528 1177.34 382.616 1178.11 382.705L1178.1 382.672V382.675Z" fill="black"/>
<path d="M1175.78 294.38V288.804C1176.51 288.804 1177.23 288.804 1177.94 288.804L1177.93 288.768C1177.93 290.594 1177.93 292.419 1177.93 294.342H1175.76L1175.78 294.383L1175.78 294.38Z" fill="black"/>
<path d="M1150.76 488.063H1152.89V493.354C1152.15 493.457 1151.43 493.557 1150.64 493.669C1150.69 491.679 1150.73 489.856 1150.77 488.031L1150.76 488.066V488.063Z" fill="black"/>
<path d="M1184.16 371.467V376.867H1182.12V371.467H1184.16Z" fill="black"/>
<path d="M1175.76 294.342V299.58H1173.49C1173.52 297.916 1173.56 296.285 1173.6 294.383C1174.35 294.383 1175.07 294.383 1175.78 294.383L1175.76 294.342H1175.76Z" fill="black"/>
<path d="M1148.55 515.641V510.491H1150.7V515.603C1149.99 515.603 1149.26 515.603 1148.54 515.603L1148.55 515.644V515.641Z" fill="black"/>
<path d="M1182.19 278.621V273.01H1184.22V278.154C1183.53 278.313 1182.91 278.454 1182.19 278.618V278.621Z" fill="black"/>
<path d="M1146.09 521.749C1146.29 522.834 1145.86 525.512 1145.42 525.897C1144.85 526.391 1144.4 525.635 1144.37 524.122C1144.36 523.642 1144.35 523.163 1144.34 522.837C1143.93 522.837 1143.57 522.855 1143.21 522.834C1142.71 522.805 1142.61 523.157 1142.48 525.347C1142.44 524.301 1142.39 523.254 1142.33 521.788C1143.62 521.788 1144.87 521.788 1146.11 521.782C1146.1 521.776 1146.09 521.752 1146.09 521.752L1146.09 521.749Z" fill="black"/>
<path d="M1148.74 521.782C1150.15 521.779 1151.56 521.776 1152.97 521.773C1153.49 521.773 1154.01 521.773 1154.66 521.773C1153.22 522.02 1151.91 522.226 1150.59 522.478C1150.18 522.558 1149.77 522.766 1149.36 522.919C1148.98 523.057 1148.63 523.134 1148.75 521.752L1148.74 521.782Z" fill="black"/>
<path d="M1184.31 445.153V455.503C1182.44 455.503 1180.72 455.518 1179 455.503C1173.14 455.438 1167.28 455.294 1161.43 455.318C1158.04 455.333 1154.65 455.591 1151.27 455.797C1150.39 455.85 1149.49 456.032 1148.96 457.952C1148.96 455.876 1148.95 453.657 1148.98 451.444C1148.98 451.147 1149.22 450.606 1149.33 450.629C1149.78 450.721 1150.22 450.994 1150.77 451.253C1150.83 447.828 1150.89 444.251 1150.96 440.418C1151.97 440.65 1152.89 441 1153.81 441.047C1156.45 441.182 1159.1 441.206 1161.74 441.247C1163.8 441.282 1165.87 441.25 1167.93 441.303C1170.76 441.376 1173.58 441.599 1176.41 441.573C1178.17 441.558 1179.93 441.203 1181.69 440.988C1181.83 440.97 1181.96 440.844 1182.15 440.738V445.183C1182.91 445.183 1183.62 445.183 1184.33 445.183L1184.32 445.15L1184.31 445.153Z" fill="white"/>
<path d="M1154.99 435.979V430.847H1157.08C1157.11 429.124 1157.14 427.54 1157.17 425.832H1177.92V431.091C1178.64 430.962 1179.28 430.85 1179.98 430.726C1179.98 432.355 1180 433.901 1179.96 435.435C1179.95 435.659 1179.66 436.003 1179.5 436.006C1178.78 436.017 1178.06 435.903 1177.34 435.879C1173.95 435.77 1170.56 435.594 1167.17 435.597C1163.44 435.6 1159.72 435.77 1155.99 435.876C1155.67 435.885 1155.35 435.941 1154.98 435.982L1154.99 435.979Z" fill="white"/>
<path d="M1173.74 482.525C1173.5 482.614 1173.27 482.775 1173.04 482.781C1171.85 482.808 1170.66 482.793 1169.4 482.793C1169.4 484.753 1169.4 486.432 1169.4 488.113C1168.63 488.21 1167.85 488.378 1167.08 488.392C1165.18 488.434 1163.28 488.407 1161.32 488.407V482.922H1157.23V477.202C1161.96 477.193 1166.69 477.17 1171.42 477.187C1172.17 477.187 1172.93 477.358 1173.74 477.455V482.528V482.525Z" fill="white"/>
<path d="M1175.89 409.745H1177.8C1177.8 411.37 1177.94 413.025 1177.76 414.427C1177.54 416.129 1176.81 414.962 1176.32 415.215C1175.98 415.385 1175.87 414.895 1175.88 414.086C1175.91 412.675 1175.89 411.258 1175.89 409.748V409.745Z" fill="white"/>
<path d="M1182.16 348.154V354.033H1184.33V360.224C1183.72 360.132 1183.25 360 1182.78 360C1173.11 359.988 1163.45 359.98 1153.79 360C1152.87 360 1151.95 360.185 1151.03 360.285L1151.04 360.297V348.122C1151.91 348.122 1152.79 348.122 1153.66 348.122C1162.34 348.11 1171.02 348.092 1179.7 348.084C1180.52 348.084 1181.34 348.128 1182.16 348.151L1182.16 348.154Z" fill="white"/>
<path d="M1157.25 342.381V336.549H1161.32V331.288H1173.64V336.385H1175.86C1175.82 338.43 1175.78 340.303 1175.74 342.381H1157.25Z" fill="white"/>
<path d="M1151.02 360.288C1150.39 360.403 1150.23 361.264 1150.25 362.746C1150.28 365.344 1150.1 365.62 1149.02 365.065V360.297C1149.69 360.297 1150.36 360.297 1151.04 360.297C1151.04 360.297 1151.03 360.285 1151.03 360.285L1151.02 360.288Z" fill="white"/>
<path d="M1177.94 504.507V510.059H1175.9V504.554C1176.62 504.554 1177.29 504.554 1177.96 504.554L1177.94 504.507H1177.94Z" fill="white"/>
<path d="M1162.4 244.946C1162.4 253.753 1155.24 260.892 1146.42 260.892C1137.59 260.892 1130.43 253.753 1130.43 244.946C1130.43 236.139 1137.59 229 1146.42 229C1155.24 229 1162.4 236.139 1162.4 244.946Z" fill="#FF918E"/>
<defs>
<filter id="filter0_d_612_47" x="0" y="891" width="82" height="88" filterUnits="userSpaceOnUse" color-interpolation-filters="sRGB">
<feFlood flood-opacity="0" result="BackgroundImageFix"/>
<feColorMatrix in="SourceAlpha" type="matrix" values="0 0 0 0 0 0 0 0 0 0 0 0 0 0 0 0 0 0 127 0" result="hardAlpha"/>
<feOffset dy="4"/>
<feGaussianBlur stdDeviation="2"/>
<feComposite in2="hardAlpha" operator="out"/>
<feColorMatrix type="matrix" values="0 0 0 0 0 0 0 0 0 0 0 0 0 0 0 0 0 0 0.25 0"/>
<feBlend mode="normal" in2="BackgroundImageFix" result="effect1_dropShadow_612_47"/>
<feBlend mode="normal" in="SourceGraphic" in2="effect1_dropShadow_612_47" result="shape"/>
</filter>
<filter id="filter1_d_612_47" x="10" y="901" width="63" height="68" filterUnits="userSpaceOnUse" color-interpolation-filters="sRGB">
<feFlood flood-opacity="0" result="BackgroundImageFix"/>
<feColorMatrix in="SourceAlpha" type="matrix" values="0 0 0 0 0 0 0 0 0 0 0 0 0 0 0 0 0 0 127 0" result="hardAlpha"/>
<feOffset dy="4"/>
<feGaussianBlur stdDeviation="2"/>
<feComposite in2="hardAlpha" operator="out"/>
<feColorMatrix type="matrix" values="0 0 0 0 0 0 0 0 0 0 0 0 0 0 0 0 0 0 0.25 0"/>
<feBlend mode="normal" in2="BackgroundImageFix" result="effect1_dropShadow_612_47"/>
<feBlend mode="normal" in="SourceGraphic" in2="effect1_dropShadow_612_47" result="shape"/>
</filter>
<filter id="filter2_d_612_47" x="49" y="819" width="156" height="214" filterUnits="userSpaceOnUse" color-interpolation-filters="sRGB">
<feFlood flood-opacity="0" result="BackgroundImageFix"/>
<feColorMatrix in="SourceAlpha" type="matrix" values="0 0 0 0 0 0 0 0 0 0 0 0 0 0 0 0 0 0 127 0" result="hardAlpha"/>
<feMorphology radius="17" operator="erode" in="SourceAlpha" result="effect1_dropShadow_612_47"/>
<feOffset dx="-18" dy="23"/>
<feComposite in2="hardAlpha" operator="out"/>
<feColorMatrix type="matrix" values="0 0 0 0 0 0 0 0 0 0 0 0 0 0 0 0 0 0 0.25 0"/>
<feBlend mode="normal" in2="BackgroundImageFix" result="effect1_dropShadow_612_47"/>
<feBlend mode="normal" in="SourceGraphic" in2="effect1_dropShadow_612_47" result="shape"/>
</filter>
<clipPath id="clip0_612_47">
<rect width="321" height="321" fill="white" transform="matrix(-1 0 0 1 1365 744)"/>
</clipPath>
</defs>
</svg>
