<svg width="1440" height="733" viewBox="0 0 1440 733" fill="none" xmlns="http://www.w3.org/2000/svg">
<path d="M-5.5 28.5981H1461.5V848.389H-5.5V28.5981Z" fill="#898989"/>
<rect x="445.64" y="95.8258" width="177.351" height="739.77" fill="#B3B3B3" stroke="black" stroke-width="2.48165"/>
<rect x="463.793" y="163.345" width="141.045" height="61.7073" fill="black"/>
<ellipse cx="533.434" cy="708.133" rx="52.0105" ry="51.1289" fill="black"/>
<ellipse cx="533.434" cy="708.133" rx="52.0105" ry="51.1289" fill="black"/>
<ellipse cx="533.434" cy="708.133" rx="52.0105" ry="51.1289" fill="black"/>
<ellipse cx="532.553" cy="709.014" rx="47.6028" ry="44.9582" fill="#E2E3D6"/>
<ellipse cx="532.553" cy="709.014" rx="42.3136" ry="41.4321" fill="black"/>
<ellipse cx="532.553" cy="709.014" rx="42.3136" ry="41.4321" fill="black"/>
<ellipse cx="532.553" cy="709.014" rx="42.3136" ry="41.4321" fill="black"/>
<rect x="1471.75" y="673.299" width="162.382" height="677.984" transform="rotate(89.7704 1471.75 673.299)" fill="#B3B3B3" stroke="black" stroke-width="2.48165"/>
<rect x="1493.5" y="646.757" width="46.943" height="746.751" transform="rotate(89.7704 1493.5 646.757)" fill="#B3B3B3" stroke="black" stroke-width="2.48165"/>
<rect x="1425" y="772.605" width="355.105" height="56.5707" transform="rotate(179.404 1425 772.605)" fill="black"/>
<ellipse cx="907.07" cy="753.698" rx="27.6921" ry="27.2228" transform="rotate(89.7704 907.07 753.698)" fill="black"/>
<ellipse cx="907.07" cy="753.698" rx="27.6921" ry="27.2228" transform="rotate(89.7704 907.07 753.698)" fill="black"/>
<ellipse cx="907.07" cy="753.698" rx="27.6921" ry="27.2228" transform="rotate(89.7704 907.07 753.698)" fill="black"/>
<ellipse cx="906.599" cy="753.23" rx="25.3453" ry="23.9373" transform="rotate(89.7704 906.599 753.23)" fill="#E2E3D6"/>
<ellipse cx="906.599" cy="753.23" rx="22.5292" ry="22.0598" transform="rotate(89.7704 906.599 753.23)" fill="black"/>
<ellipse cx="906.599" cy="753.23" rx="22.5292" ry="22.0598" transform="rotate(89.7704 906.599 753.23)" fill="black"/>
<ellipse cx="906.599" cy="753.23" rx="22.5292" ry="22.0598" transform="rotate(89.7704 906.599 753.23)" fill="black"/>
<rect x="266.134" y="95.8258" width="177.351" height="739.77" fill="#B3B3B3" stroke="black" stroke-width="2.48165"/>
<rect x="284.287" y="163.345" width="141.045" height="61.7073" fill="black"/>
<ellipse cx="353.928" cy="708.133" rx="52.0105" ry="51.1289" fill="black"/>
<ellipse cx="353.928" cy="708.133" rx="52.0105" ry="51.1289" fill="black"/>
<ellipse cx="353.928" cy="708.133" rx="52.0105" ry="51.1289" fill="black"/>
<ellipse cx="353.047" cy="709.014" rx="47.6028" ry="44.9582" fill="#E2E3D6"/>
<ellipse cx="353.047" cy="709.014" rx="42.3136" ry="41.4321" fill="black"/>
<ellipse cx="353.047" cy="709.014" rx="42.3136" ry="41.4321" fill="black"/>
<ellipse cx="353.047" cy="709.014" rx="42.3136" ry="41.4321" fill="black"/>
<rect x="86.6285" y="95.8258" width="177.351" height="739.77" fill="#B3B3B3" stroke="black" stroke-width="2.48165"/>
<rect x="104.781" y="163.345" width="141.045" height="61.7073" fill="black"/>
<ellipse cx="174.423" cy="708.133" rx="52.0105" ry="51.1289" fill="black"/>
<ellipse cx="174.423" cy="708.133" rx="52.0105" ry="51.1289" fill="black"/>
<ellipse cx="174.423" cy="708.133" rx="52.0105" ry="51.1289" fill="black"/>
<ellipse cx="173.541" cy="709.014" rx="47.6028" ry="44.9582" fill="#E2E3D6"/>
<ellipse cx="173.541" cy="709.014" rx="42.3136" ry="41.4321" fill="black"/>
<ellipse cx="173.541" cy="709.014" rx="42.3136" ry="41.4321" fill="black"/>
<ellipse cx="173.541" cy="709.014" rx="42.3136" ry="41.4321" fill="black"/>
<rect x="699.5" y="51" width="742.067" height="577.861" fill="#D9D9D9"/>
<rect x="1284.06" y="263.149" width="355.105" height="142.1" transform="rotate(179.404 1284.06 263.149)" fill="black"/>
<rect x="1282.4" y="544.402" width="355.105" height="142.1" transform="rotate(179.404 1282.4 544.402)" fill="black"/>
<rect x="-93.4165" y="80.3439" width="177.351" height="739.77" transform="rotate(4.9817 -93.4165 80.3439)" fill="#B3B3B3" stroke="black" stroke-width="2.48165"/>
<path d="M-70.7622 206.201L39.1755 215.784L9.89383 551.712C9.35825 557.856 3.94314 562.403 -2.20116 561.867L-89.8885 554.224C-96.0327 553.688 -100.58 548.273 -100.044 542.129L-70.7622 206.201Z" fill="#D9D9D9" stroke="black" stroke-width="2.48165"/>
<rect x="-81.1963" y="149.184" width="141.045" height="61.7073" transform="rotate(4.9817 -81.1963 149.184)" fill="black"/>
<line x1="1441.5" y1="337.136" x2="699.5" y2="337.136" stroke="#B3B3B3" stroke-width="8.27216"/>
<path d="M634.828 860.588V16M-26 16H1448M634.828 617.34H1448M122.613 860.588H1379.15" stroke="#B3B3B3" stroke-width="30.607"/>
</svg>
