<svg width="295" height="246" viewBox="0 0 295 246" fill="none" xmlns="http://www.w3.org/2000/svg">
<path d="M1.03711 162.186L1.03711 204.677" stroke="black" stroke-width="1.99486"/>
<path d="M32.7158 205.674L32.7158 227.618" stroke="black" stroke-width="1.99486"/>
<path d="M65.3516 205.674L-8.96605e-05 205.674" stroke="black" stroke-width="1.99486"/>
<path d="M64.354 162.186L64.354 204.677" stroke="black" stroke-width="1.99486"/>
<path d="M154.124 162.186L154.124 204.677" stroke="black" stroke-width="1.99486"/>
<path d="M185.801 205.674L185.801 227.617" stroke="black" stroke-width="1.99486"/>
<path d="M218.437 205.674H153.085" stroke="black" stroke-width="1.99486"/>
<path d="M217.44 162.186L217.44 204.677" stroke="black" stroke-width="1.99486"/>
<path d="M141.356 67.2305L141.356 24.7399" stroke="black" stroke-width="1.99486"/>
<path d="M109.677 23.7422L109.677 1.79872" stroke="black" stroke-width="1.99486"/>
<path d="M77.0415 23.7422L142.393 23.7422" stroke="black" stroke-width="1.99486"/>
<path d="M78.0391 67.2305L78.0391 24.7399" stroke="black" stroke-width="1.99486"/>
<path d="M293.963 65.7144L293.963 23.2238" stroke="black" stroke-width="1.99486"/>
<path d="M262.284 22.2256L262.284 0.282116" stroke="black" stroke-width="1.99486"/>
<path d="M229.648 22.2256L295 22.2256" stroke="black" stroke-width="1.99486"/>
<path d="M230.646 65.7144L230.646 23.2238" stroke="black" stroke-width="1.99486"/>
<path d="M184.881 240.306C184.881 240.672 184.813 241.025 184.677 241.366C184.55 241.706 184.358 242.008 184.103 242.272C183.847 242.536 183.532 242.749 183.158 242.911C182.783 243.072 182.349 243.153 181.856 243.153C181.396 243.153 180.979 243.081 180.604 242.936C180.23 242.791 179.907 242.587 179.634 242.323C179.362 242.051 179.149 241.719 178.996 241.328C178.851 240.936 178.779 240.498 178.779 240.012C178.779 239.212 178.894 238.455 179.124 237.74C179.362 237.025 179.69 236.395 180.107 235.85C180.532 235.306 181.034 234.863 181.613 234.523C182.2 234.182 182.843 233.978 183.541 233.91L183.72 234.727C183.183 234.795 182.69 234.952 182.239 235.199C181.796 235.446 181.409 235.753 181.077 236.119C180.745 236.485 180.473 236.889 180.26 237.331C180.056 237.774 179.924 238.225 179.864 238.685C179.932 238.574 180.03 238.459 180.158 238.34C180.294 238.221 180.451 238.119 180.63 238.034C180.817 237.94 181.022 237.863 181.243 237.804C181.473 237.744 181.719 237.714 181.983 237.714C182.434 237.714 182.839 237.778 183.196 237.906C183.554 238.025 183.856 238.2 184.103 238.429C184.358 238.651 184.55 238.923 184.677 239.246C184.813 239.561 184.881 239.915 184.881 240.306ZM183.835 240.408C183.835 239.812 183.669 239.357 183.337 239.042C183.005 238.727 182.494 238.57 181.805 238.57C181.558 238.57 181.328 238.6 181.115 238.659C180.902 238.719 180.711 238.8 180.541 238.902C180.37 238.995 180.221 239.106 180.094 239.234C179.966 239.361 179.868 239.489 179.8 239.617C179.783 239.736 179.775 239.83 179.775 239.898C179.775 239.966 179.775 240.047 179.775 240.14C179.775 240.396 179.817 240.655 179.902 240.919C179.987 241.174 180.115 241.404 180.285 241.608C180.464 241.813 180.685 241.979 180.949 242.106C181.213 242.234 181.524 242.298 181.881 242.298C182.171 242.298 182.434 242.247 182.673 242.145C182.911 242.042 183.115 241.906 183.286 241.736C183.464 241.566 183.601 241.366 183.694 241.136C183.788 240.906 183.835 240.664 183.835 240.408ZM188.924 242.26C189.247 242.26 189.545 242.221 189.817 242.145C190.09 242.059 190.32 241.936 190.507 241.774C190.703 241.604 190.851 241.396 190.954 241.149C191.064 240.902 191.12 240.613 191.12 240.281C191.12 239.668 190.898 239.204 190.456 238.889C190.022 238.566 189.426 238.404 188.668 238.404L187.468 238.468V234.063H191.847V234.982H188.426V237.574L189.064 237.548C190.009 237.548 190.754 237.778 191.298 238.238C191.843 238.697 192.115 239.353 192.115 240.204C192.115 240.681 192.03 241.102 191.86 241.468C191.698 241.834 191.473 242.145 191.183 242.4C190.894 242.647 190.549 242.834 190.149 242.962C189.758 243.089 189.328 243.153 188.86 243.153C188.604 243.153 188.362 243.132 188.132 243.089C187.902 243.055 187.694 243.013 187.507 242.962C187.319 242.902 187.153 242.843 187.009 242.783C186.872 242.715 186.775 242.655 186.715 242.604L187.123 241.774C187.268 241.859 187.489 241.962 187.787 242.081C188.085 242.2 188.464 242.26 188.924 242.26Z" fill="black"/>
</svg>
