<svg width="1440" height="733" viewBox="0 0 1440 733" fill="none" xmlns="http://www.w3.org/2000/svg">
<path d="M-5.5 28.5981H1461.5V848.389H-5.5V28.5981Z" fill="#898989"/>
<rect x="445.64" y="95.8258" width="177.351" height="739.77" fill="#B3B3B3" stroke="black" stroke-width="2.48165"/>
<path d="M479.138 219.241H589.493V556.442C589.493 562.61 584.493 567.609 578.326 567.609H490.306C484.138 567.609 479.138 562.61 479.138 556.442V219.241Z" fill="#D9D9D9" stroke="black" stroke-width="2.48165"/>
<rect x="463.793" y="163.345" width="141.045" height="61.7073" fill="black"/>
<ellipse cx="533.434" cy="708.133" rx="52.0105" ry="51.1289" fill="black"/>
<ellipse cx="533.434" cy="708.133" rx="52.0105" ry="51.1289" fill="black"/>
<ellipse cx="533.434" cy="708.133" rx="52.0105" ry="51.1289" fill="black"/>
<ellipse cx="532.553" cy="709.014" rx="47.6028" ry="44.9582" fill="#E2E3D6"/>
<ellipse cx="532.553" cy="709.014" rx="42.3136" ry="41.4321" fill="black"/>
<ellipse cx="532.553" cy="709.014" rx="42.3136" ry="41.4321" fill="black"/>
<ellipse cx="532.553" cy="709.014" rx="42.3136" ry="41.4321" fill="black"/>
<rect x="1471.75" y="673.299" width="162.382" height="677.984" transform="rotate(89.7704 1471.75 673.299)" fill="#B3B3B3" stroke="black" stroke-width="2.48165"/>
<rect x="1493.5" y="646.757" width="46.943" height="746.751" transform="rotate(89.7704 1493.5 646.757)" fill="#B3B3B3" stroke="black" stroke-width="2.48165"/>
<rect x="1425" y="772.605" width="355.105" height="56.5707" transform="rotate(179.404 1425 772.605)" fill="black"/>
<ellipse cx="907.07" cy="753.698" rx="27.6921" ry="27.2228" transform="rotate(89.7704 907.07 753.698)" fill="black"/>
<ellipse cx="907.07" cy="753.698" rx="27.6921" ry="27.2228" transform="rotate(89.7704 907.07 753.698)" fill="black"/>
<ellipse cx="907.07" cy="753.698" rx="27.6921" ry="27.2228" transform="rotate(89.7704 907.07 753.698)" fill="black"/>
<ellipse cx="906.599" cy="753.23" rx="25.3453" ry="23.9373" transform="rotate(89.7704 906.599 753.23)" fill="#E2E3D6"/>
<ellipse cx="906.599" cy="753.23" rx="22.5292" ry="22.0598" transform="rotate(89.7704 906.599 753.23)" fill="black"/>
<ellipse cx="906.599" cy="753.23" rx="22.5292" ry="22.0598" transform="rotate(89.7704 906.599 753.23)" fill="black"/>
<ellipse cx="906.599" cy="753.23" rx="22.5292" ry="22.0598" transform="rotate(89.7704 906.599 753.23)" fill="black"/>
<rect x="266.134" y="95.8258" width="177.351" height="739.77" fill="#B3B3B3" stroke="black" stroke-width="2.48165"/>
<path d="M299.632 219.241H409.987V556.442C409.987 562.61 404.987 567.609 398.82 567.609H310.8C304.632 567.609 299.632 562.61 299.632 556.442V219.241Z" fill="#D9D9D9" stroke="black" stroke-width="2.48165"/>
<rect x="284.287" y="163.345" width="141.045" height="61.7073" fill="black"/>
<ellipse cx="353.928" cy="708.133" rx="52.0105" ry="51.1289" fill="black"/>
<ellipse cx="353.928" cy="708.133" rx="52.0105" ry="51.1289" fill="black"/>
<ellipse cx="353.928" cy="708.133" rx="52.0105" ry="51.1289" fill="black"/>
<ellipse cx="353.047" cy="709.014" rx="47.6028" ry="44.9582" fill="#E2E3D6"/>
<ellipse cx="353.047" cy="709.014" rx="42.3136" ry="41.4321" fill="black"/>
<ellipse cx="353.047" cy="709.014" rx="42.3136" ry="41.4321" fill="black"/>
<ellipse cx="353.047" cy="709.014" rx="42.3136" ry="41.4321" fill="black"/>
<rect x="86.6285" y="95.8258" width="177.351" height="739.77" fill="#B3B3B3" stroke="black" stroke-width="2.48165"/>
<path d="M120.127 219.241H230.481V556.442C230.481 562.61 225.481 567.609 219.314 567.609H131.294C125.126 567.609 120.127 562.61 120.127 556.442V219.241Z" fill="#D9D9D9" stroke="black" stroke-width="2.48165"/>
<rect x="104.781" y="163.345" width="141.045" height="61.7073" fill="black"/>
<ellipse cx="174.423" cy="708.133" rx="52.0105" ry="51.1289" fill="black"/>
<ellipse cx="174.423" cy="708.133" rx="52.0105" ry="51.1289" fill="black"/>
<ellipse cx="174.423" cy="708.133" rx="52.0105" ry="51.1289" fill="black"/>
<ellipse cx="173.541" cy="709.014" rx="47.6028" ry="44.9582" fill="#E2E3D6"/>
<ellipse cx="173.541" cy="709.014" rx="42.3136" ry="41.4321" fill="black"/>
<ellipse cx="173.541" cy="709.014" rx="42.3136" ry="41.4321" fill="black"/>
<ellipse cx="173.541" cy="709.014" rx="42.3136" ry="41.4321" fill="black"/>
<rect x="699.5" y="51" width="742.067" height="577.861" fill="#D9D9D9"/>
<rect x="1284.06" y="263.149" width="355.105" height="142.1" transform="rotate(179.404 1284.06 263.149)" fill="black"/>
<rect x="1282.4" y="544.402" width="355.105" height="142.1" transform="rotate(179.404 1282.4 544.402)" fill="black"/>
<rect x="1266.78" y="537.214" width="320.602" height="128.293" transform="rotate(179.404 1266.78 537.214)" fill="white"/>
<rect x="1265.13" y="255.96" width="320.602" height="128.293" transform="rotate(179.404 1265.13 255.96)" fill="white"/>
<path d="M366 416.695V432.305H362.605C362.372 432.025 362.068 431.675 361.695 431.255C361.298 430.835 360.855 430.368 360.365 429.855C359.875 429.318 359.338 428.758 358.755 428.175C358.172 427.592 357.565 427.02 356.935 426.46C356.048 425.667 355.243 424.978 354.52 424.395C353.797 423.788 353.12 423.298 352.49 422.925C351.837 422.528 351.207 422.237 350.6 422.05C349.97 421.863 349.328 421.77 348.675 421.77C348.208 421.77 347.753 421.875 347.31 422.085C346.867 422.295 346.482 422.587 346.155 422.96C345.805 423.333 345.537 423.788 345.35 424.325C345.14 424.838 345.035 425.41 345.035 426.04C345.035 426.88 345.163 427.65 345.42 428.35C345.677 429.027 346.108 429.738 346.715 430.485L343.495 432.305C342.795 431.325 342.212 430.24 341.745 429.05C341.255 427.837 341.01 426.448 341.01 424.885C341.01 423.882 341.15 422.925 341.43 422.015C341.71 421.082 342.13 420.265 342.69 419.565C343.227 418.842 343.903 418.27 344.72 417.85C345.537 417.43 346.482 417.22 347.555 417.22C348.302 417.22 349.002 417.29 349.655 417.43C350.285 417.547 350.927 417.745 351.58 418.025C352.21 418.282 352.863 418.632 353.54 419.075C354.217 419.495 354.952 420.008 355.745 420.615C356.352 421.082 356.97 421.595 357.6 422.155C358.207 422.692 358.79 423.228 359.35 423.765C359.91 424.302 360.435 424.838 360.925 425.375C361.415 425.888 361.823 426.355 362.15 426.775V416.695H366ZM353.715 412.684C351.592 412.684 349.737 412.462 348.15 412.019C346.54 411.575 345.21 410.957 344.16 410.164C343.11 409.347 342.328 408.379 341.815 407.259C341.278 406.139 341.01 404.89 341.01 403.514C341.01 400.574 342.048 398.31 344.125 396.724C346.178 395.137 349.375 394.344 353.715 394.344C355.862 394.344 357.74 394.565 359.35 395.009C360.937 395.452 362.267 396.082 363.34 396.899C364.39 397.692 365.183 398.66 365.72 399.804C366.233 400.924 366.49 402.172 366.49 403.549C366.49 406.512 365.405 408.775 363.235 410.339C361.042 411.902 357.868 412.684 353.715 412.684ZM353.715 398.824C353.342 398.824 352.992 398.835 352.665 398.859C352.315 398.859 351.977 398.87 351.65 398.894L359.455 407.469C361.578 406.745 362.64 405.427 362.64 403.514C362.64 402.02 361.928 400.865 360.505 400.049C359.082 399.232 356.818 398.824 353.715 398.824ZM353.715 408.204C354.065 408.204 354.403 408.204 354.73 408.204C355.033 408.18 355.348 408.157 355.675 408.134L347.87 399.594C345.863 400.294 344.86 401.612 344.86 403.549C344.86 405.042 345.583 406.197 347.03 407.014C348.453 407.807 350.682 408.204 353.715 408.204ZM366 374.722V390.332H362.605C362.372 390.052 362.068 389.702 361.695 389.282C361.298 388.862 360.855 388.396 360.365 387.882C359.875 387.346 359.338 386.786 358.755 386.202C358.172 385.619 357.565 385.047 356.935 384.487C356.048 383.694 355.243 383.006 354.52 382.422C353.797 381.816 353.12 381.326 352.49 380.952C351.837 380.556 351.207 380.264 350.6 380.077C349.97 379.891 349.328 379.797 348.675 379.797C348.208 379.797 347.753 379.902 347.31 380.112C346.867 380.322 346.482 380.614 346.155 380.987C345.805 381.361 345.537 381.816 345.35 382.352C345.14 382.866 345.035 383.437 345.035 384.067C345.035 384.907 345.163 385.677 345.42 386.377C345.677 387.054 346.108 387.766 346.715 388.512L343.495 390.332C342.795 389.352 342.212 388.267 341.745 387.077C341.255 385.864 341.01 384.476 341.01 382.912C341.01 381.909 341.15 380.952 341.43 380.042C341.71 379.109 342.13 378.292 342.69 377.592C343.227 376.869 343.903 376.297 344.72 375.877C345.537 375.457 346.482 375.247 347.555 375.247C348.302 375.247 349.002 375.317 349.655 375.457C350.285 375.574 350.927 375.772 351.58 376.052C352.21 376.309 352.863 376.659 353.54 377.102C354.217 377.522 354.952 378.036 355.745 378.642C356.352 379.109 356.97 379.622 357.6 380.182C358.207 380.719 358.79 381.256 359.35 381.792C359.91 382.329 360.435 382.866 360.925 383.402C361.415 383.916 361.823 384.382 362.15 384.802V374.722H366ZM359.175 351.846V356.046H366V360.281H359.175V370.886H356.06L341.325 359.791V356.046H355.535V351.846H359.175ZM347.765 360.281L355.535 366.371V360.281H347.765Z" fill="black"/>
<path d="M982 198.575H974.685L973.005 204H968.21L976.12 179.5H980.915L988.79 204H983.75L982 198.575ZM975.805 194.725H981.055L978.57 186.535H978.255L975.805 194.725ZM988.986 186.5H994.936L995.461 188.6H995.601C996.815 186.873 998.775 186.01 1001.48 186.01C1002.55 186.01 1003.53 186.185 1004.42 186.535C1005.33 186.862 1006.1 187.387 1006.73 188.11C1007.38 188.833 1007.89 189.743 1008.24 190.84C1008.59 191.937 1008.76 193.255 1008.76 194.795C1008.76 196.288 1008.56 197.642 1008.17 198.855C1007.77 200.045 1007.2 201.06 1006.45 201.9C1005.7 202.74 1004.79 203.382 1003.72 203.825C1002.65 204.268 1001.42 204.49 1000.05 204.49C999.323 204.49 998.611 204.432 997.911 204.315C997.211 204.222 996.628 204.058 996.161 203.825V211H991.611V190.35H988.986V186.5ZM1000.12 189.86C999.23 189.86 998.413 190.082 997.666 190.525C996.943 190.968 996.441 191.633 996.161 192.52V199.8C996.488 200.057 996.955 200.267 997.561 200.43C998.191 200.57 998.821 200.64 999.451 200.64C1000.1 200.64 1000.71 200.535 1001.27 200.325C1001.83 200.092 1002.32 199.73 1002.74 199.24C1003.16 198.75 1003.49 198.132 1003.72 197.385C1003.95 196.638 1004.07 195.74 1004.07 194.69C1004.07 193.15 1003.7 191.96 1002.95 191.12C1002.2 190.28 1001.26 189.86 1000.12 189.86ZM1013.12 187.69C1014.06 187.27 1015.13 186.908 1016.34 186.605C1017.58 186.302 1019.04 186.15 1020.72 186.15C1021.93 186.15 1022.96 186.302 1023.8 186.605C1024.66 186.885 1025.35 187.293 1025.86 187.83C1026.4 188.367 1026.78 189.008 1027.02 189.755C1027.25 190.502 1027.37 191.342 1027.37 192.275C1027.37 193.465 1027.32 194.48 1027.23 195.32C1027.16 196.16 1027.12 196.907 1027.12 197.56C1027.12 198.05 1027.15 198.598 1027.19 199.205C1027.24 199.532 1027.27 199.847 1027.3 200.15H1029.57V204H1023.76L1023.31 201.62H1023.13C1022.67 202.343 1022 202.973 1021.14 203.51C1020.27 204.023 1019.11 204.28 1017.64 204.28C1015.89 204.28 1014.5 203.813 1013.47 202.88C1012.45 201.947 1011.93 200.71 1011.93 199.17C1011.93 198.19 1012.11 197.35 1012.46 196.65C1012.83 195.927 1013.36 195.343 1014.03 194.9C1014.73 194.433 1015.56 194.095 1016.52 193.885C1017.5 193.652 1018.58 193.535 1019.77 193.535C1020.19 193.535 1020.64 193.558 1021.1 193.605C1021.57 193.652 1022.14 193.698 1022.82 193.745C1022.86 193.512 1022.89 193.278 1022.89 193.045V192.38C1022.89 191.493 1022.63 190.863 1022.12 190.49C1021.6 190.093 1020.85 189.895 1019.84 189.895C1018.65 189.895 1017.58 190.047 1016.62 190.35C1015.67 190.653 1014.86 190.957 1014.21 191.26L1013.12 187.69ZM1019.11 200.535C1020.23 200.535 1021.07 200.337 1021.63 199.94C1022.19 199.52 1022.6 199.077 1022.85 198.61V196.51C1022.62 196.463 1022.27 196.417 1021.8 196.37C1021.34 196.3 1020.83 196.265 1020.3 196.265C1019.85 196.265 1019.41 196.312 1018.97 196.405C1018.52 196.475 1018.13 196.603 1017.78 196.79C1017.43 196.953 1017.15 197.175 1016.94 197.455C1016.73 197.735 1016.62 198.073 1016.62 198.47C1016.62 199.123 1016.81 199.637 1017.18 200.01C1017.58 200.36 1018.22 200.535 1019.11 200.535ZM1040.44 197.105H1038.17V204H1033.62V186.5H1038.17V193.605H1040.02L1045.8 186.5H1050.94L1043.98 194.655L1048.28 200.15H1051.36V204H1046.11L1040.44 197.105ZM1070.64 202.145C1070.33 202.425 1069.94 202.705 1069.45 202.985C1068.98 203.242 1068.42 203.487 1067.77 203.72C1067.14 203.953 1066.44 204.14 1065.67 204.28C1064.9 204.42 1064.08 204.49 1063.22 204.49C1061.72 204.49 1060.38 204.28 1059.19 203.86C1058.02 203.44 1057.03 202.833 1056.22 202.04C1055.4 201.223 1054.77 200.255 1054.33 199.135C1053.91 197.992 1053.7 196.697 1053.7 195.25C1053.7 193.71 1053.94 192.368 1054.43 191.225C1054.92 190.058 1055.59 189.09 1056.43 188.32C1057.29 187.55 1058.29 186.978 1059.44 186.605C1060.58 186.208 1061.82 186.01 1063.15 186.01C1064.03 186.01 1064.94 186.127 1065.88 186.36C1066.83 186.593 1067.71 187.002 1068.5 187.585C1069.29 188.145 1069.94 188.903 1070.43 189.86C1070.94 190.817 1071.2 192.03 1071.2 193.5C1071.2 194.503 1071.08 195.588 1070.85 196.755H1058.25C1058.27 197.502 1058.42 198.132 1058.7 198.645C1059 199.158 1059.39 199.578 1059.86 199.905C1060.35 200.232 1060.89 200.477 1061.5 200.64C1062.13 200.78 1062.8 200.85 1063.5 200.85C1064.9 200.85 1066.04 200.687 1066.93 200.36C1067.84 200.033 1068.57 199.637 1069.13 199.17L1070.64 202.145ZM1063.08 189.65C1062.47 189.65 1061.9 189.732 1061.36 189.895C1060.82 190.058 1060.33 190.303 1059.89 190.63C1059.47 190.933 1059.12 191.318 1058.84 191.785C1058.56 192.252 1058.4 192.777 1058.35 193.36H1066.96C1066.96 192.217 1066.63 191.318 1065.98 190.665C1065.35 189.988 1064.38 189.65 1063.08 189.65ZM1086.55 190.525H1082.03C1081.89 192.182 1081.7 193.827 1081.47 195.46C1081.26 197.093 1080.92 198.563 1080.46 199.87C1080.01 201.153 1079.42 202.203 1078.67 203.02C1077.95 203.813 1077.03 204.21 1075.91 204.21C1074.55 204.21 1073.6 204.035 1073.04 203.685L1073.6 199.905C1073.97 200.045 1074.32 200.115 1074.65 200.115C1075.11 200.115 1075.53 199.917 1075.91 199.52C1076.3 199.123 1076.64 198.412 1076.92 197.385C1077.22 196.358 1077.47 194.97 1077.66 193.22C1077.84 191.447 1077.97 189.207 1078.04 186.5H1091.1V204H1086.55V190.525ZM1095.49 200.15H1098.12L1099.83 197.595C1098.62 197.175 1097.73 196.51 1097.17 195.6C1096.61 194.69 1096.33 193.558 1096.33 192.205C1096.33 190.105 1097.15 188.553 1098.78 187.55C1100.44 186.523 1102.73 186.01 1105.64 186.01C1106.2 186.01 1106.8 186.033 1107.43 186.08C1108.06 186.103 1108.68 186.138 1109.28 186.185C1109.91 186.232 1110.5 186.29 1111.03 186.36C1111.57 186.43 1112.01 186.5 1112.36 186.57V204H1107.81V198.155H1104.31L1100.6 204H1095.49V200.15ZM1107.81 194.76V190.07C1107.7 190.047 1107.51 190.023 1107.25 190C1107 189.953 1106.73 189.93 1106.45 189.93C1106.17 189.907 1105.9 189.895 1105.64 189.895C1105.39 189.872 1105.19 189.86 1105.05 189.86C1104.51 189.86 1104 189.918 1103.51 190.035C1103.04 190.128 1102.62 190.292 1102.25 190.525C1101.87 190.735 1101.57 191.015 1101.34 191.365C1101.13 191.692 1101.02 192.077 1101.02 192.52C1101.02 192.963 1101.12 193.325 1101.3 193.605C1101.51 193.885 1101.79 194.118 1102.14 194.305C1102.52 194.468 1102.96 194.585 1103.47 194.655C1103.99 194.725 1104.55 194.76 1105.15 194.76H1107.81ZM1129.15 197.105H1121.69V204H1117.14V186.5H1121.69V193.08H1129.15V186.5H1133.7V204H1129.15V197.105ZM1177.6 208.725H1173.4V204H1161.22V208.725H1157.02V199.73H1159.08C1159.32 199.287 1159.6 198.622 1159.92 197.735C1160.27 196.848 1160.59 195.658 1160.87 194.165C1161.17 192.648 1161.42 190.782 1161.6 188.565C1161.79 186.325 1161.85 183.642 1161.78 180.515V179.5H1175.04V199.73H1177.6V208.725ZM1170.25 199.73V183.77H1166.12C1166.07 185.847 1165.98 187.725 1165.84 189.405C1165.7 191.062 1165.52 192.555 1165.31 193.885C1165.1 195.192 1164.87 196.335 1164.61 197.315C1164.36 198.272 1164.1 199.077 1163.84 199.73H1170.25ZM1185.53 201.69C1185.53 200.873 1185.78 200.232 1186.3 199.765C1186.81 199.275 1187.49 199.03 1188.33 199.03C1189.21 199.03 1189.91 199.275 1190.43 199.765C1190.94 200.232 1191.2 200.873 1191.2 201.69C1191.2 202.507 1190.94 203.16 1190.43 203.65C1189.91 204.14 1189.21 204.385 1188.33 204.385C1187.49 204.385 1186.81 204.14 1186.3 203.65C1185.78 203.16 1185.53 202.507 1185.53 201.69ZM1212.85 198.575H1205.53L1203.85 204H1199.06L1206.97 179.5H1211.76L1219.64 204H1214.6L1212.85 198.575ZM1206.65 194.725H1211.9L1209.42 186.535H1209.1L1206.65 194.725ZM1227.5 201.69C1227.5 200.873 1227.76 200.232 1228.27 199.765C1228.78 199.275 1229.46 199.03 1230.3 199.03C1231.19 199.03 1231.89 199.275 1232.4 199.765C1232.91 200.232 1233.17 200.873 1233.17 201.69C1233.17 202.507 1232.91 203.16 1232.4 203.65C1231.89 204.14 1231.19 204.385 1230.3 204.385C1229.46 204.385 1228.78 204.14 1228.27 203.65C1227.76 203.16 1227.5 202.507 1227.5 201.69Z" fill="black"/>
<path d="M973.285 452.466H998.242V459.531H981.218V467.985C981.874 467.869 982.666 467.753 983.592 467.638C984.557 467.522 985.503 467.464 986.429 467.464C988.591 467.464 990.579 467.676 992.394 468.101C994.208 468.525 995.752 469.24 997.026 470.243C998.339 471.208 999.362 472.502 1000.1 474.123C1000.83 475.706 1001.2 477.655 1001.2 479.971C1001.2 482.249 1000.81 484.237 1000.04 485.936C999.304 487.634 998.223 489.043 996.794 490.163C995.405 491.282 993.706 492.131 991.699 492.71C989.73 493.29 987.51 493.579 985.04 493.579C984.383 493.579 983.553 493.56 982.55 493.521C981.585 493.483 980.542 493.425 979.423 493.347C978.342 493.27 977.261 493.174 976.18 493.058C975.099 492.942 974.134 492.788 973.285 492.595V452.466ZM985.619 487.036C986.622 487.036 987.549 486.92 988.398 486.688C989.286 486.418 990.058 486.032 990.714 485.53C991.371 484.99 991.892 484.314 992.278 483.504C992.664 482.693 992.857 481.709 992.857 480.55C992.857 479.161 992.645 478.041 992.22 477.192C991.795 476.343 991.216 475.686 990.483 475.223C989.749 474.721 988.9 474.393 987.935 474.239C987.008 474.084 986.005 474.007 984.924 474.007C984.383 474.007 983.708 474.065 982.897 474.181C982.087 474.258 981.527 474.335 981.218 474.412V486.746C981.643 486.862 982.28 486.939 983.129 486.978C984.017 487.016 984.847 487.036 985.619 487.036ZM1034 493H1008.18V487.383C1008.64 486.997 1009.22 486.495 1009.92 485.878C1010.61 485.221 1011.38 484.488 1012.23 483.677C1013.12 482.867 1014.05 481.979 1015.01 481.014C1015.98 480.049 1016.92 479.045 1017.85 478.003C1019.16 476.536 1020.3 475.204 1021.27 474.007C1022.27 472.81 1023.08 471.691 1023.7 470.649C1024.35 469.568 1024.84 468.525 1025.15 467.522C1025.45 466.479 1025.61 465.418 1025.61 464.337C1025.61 463.565 1025.43 462.812 1025.09 462.079C1024.74 461.345 1024.26 460.708 1023.64 460.168C1023.02 459.589 1022.27 459.145 1021.38 458.836C1020.53 458.489 1019.59 458.315 1018.54 458.315C1017.15 458.315 1015.88 458.527 1014.72 458.952C1013.6 459.376 1012.43 460.091 1011.19 461.094L1008.18 455.767C1009.8 454.609 1011.6 453.644 1013.56 452.872C1015.57 452.061 1017.87 451.656 1020.46 451.656C1022.11 451.656 1023.7 451.887 1025.2 452.351C1026.75 452.814 1028.1 453.509 1029.26 454.435C1030.45 455.323 1031.4 456.443 1032.09 457.794C1032.79 459.145 1033.14 460.708 1033.14 462.484C1033.14 463.719 1033.02 464.877 1032.79 465.958C1032.6 467.001 1032.27 468.062 1031.8 469.143C1031.38 470.185 1030.8 471.266 1030.07 472.386C1029.37 473.505 1028.52 474.721 1027.52 476.034C1026.75 477.037 1025.9 478.06 1024.97 479.103C1024.08 480.106 1023.2 481.072 1022.31 481.998C1021.42 482.925 1020.53 483.793 1019.64 484.604C1018.8 485.414 1018.02 486.09 1017.33 486.63H1034V493ZM1071.85 481.709H1064.9V493H1057.9V481.709H1040.35V476.555L1058.71 452.177H1064.9V475.686H1071.85V481.709ZM1057.9 462.831L1047.82 475.686H1057.9V462.831ZM1090.36 473.775H1093.14L1098.87 452.466H1107.04L1097.77 482.403C1097.23 484.102 1096.63 485.646 1095.98 487.036C1095.36 488.387 1094.59 489.545 1093.66 490.51C1092.77 491.437 1091.69 492.151 1090.42 492.653C1089.14 493.154 1087.6 493.405 1085.78 493.405C1084.67 493.405 1083.66 493.309 1082.77 493.116C1081.89 492.923 1080.92 492.517 1079.88 491.9L1081.91 485.472C1082.6 485.82 1083.2 486.051 1083.7 486.167C1084.24 486.283 1084.82 486.341 1085.44 486.341C1086.29 486.341 1087 486.225 1087.58 485.993C1088.16 485.762 1088.62 485.414 1088.97 484.951C1089.36 484.488 1089.68 483.909 1089.95 483.214C1090.22 482.519 1090.47 481.728 1090.71 480.84H1084.86L1073.51 452.466H1082.02L1090.36 473.775ZM1122.71 476.092H1118.59V493H1110.66V452.466H1118.59V469.027H1122.71L1131.97 452.466H1141L1129.6 472.038L1142.45 493H1132.67L1122.71 476.092ZM1166.52 471.575L1166.98 466.306H1166.69L1164.32 471.749L1152.85 493H1145.5V452.466H1153.43V473.486L1152.85 478.929H1153.2L1155.69 473.312L1167.15 452.466H1174.45V493H1166.52V471.575ZM1179.52 472.675C1179.52 469.162 1179.89 466.093 1180.62 463.468C1181.36 460.805 1182.38 458.604 1183.69 456.867C1185.04 455.13 1186.65 453.837 1188.5 452.988C1190.35 452.1 1192.42 451.656 1194.69 451.656C1199.56 451.656 1203.3 453.374 1205.93 456.809C1208.55 460.206 1209.87 465.495 1209.87 472.675C1209.87 476.227 1209.5 479.334 1208.77 481.998C1208.03 484.623 1206.99 486.823 1205.64 488.599C1204.33 490.336 1202.72 491.649 1200.83 492.537C1198.98 493.386 1196.91 493.811 1194.64 493.811C1189.73 493.811 1185.99 492.016 1183.4 488.425C1180.82 484.797 1179.52 479.547 1179.52 472.675ZM1202.45 472.675C1202.45 472.058 1202.43 471.479 1202.4 470.938C1202.4 470.359 1202.38 469.799 1202.34 469.259L1188.15 482.172C1189.35 485.685 1191.53 487.441 1194.69 487.441C1197.16 487.441 1199.08 486.264 1200.43 483.909C1201.78 481.554 1202.45 477.81 1202.45 472.675ZM1186.93 472.675C1186.93 473.254 1186.93 473.814 1186.93 474.355C1186.97 474.856 1187.01 475.378 1187.05 475.918L1201.18 463.005C1200.02 459.685 1197.84 458.025 1194.64 458.025C1192.17 458.025 1190.25 459.222 1188.9 461.615C1187.59 463.97 1186.93 467.657 1186.93 472.675ZM1242.33 493H1216.5V487.383C1216.97 486.997 1217.54 486.495 1218.24 485.878C1218.93 485.221 1219.71 484.488 1220.56 483.677C1221.44 482.867 1222.37 481.979 1223.33 481.014C1224.3 480.049 1225.25 479.045 1226.17 478.003C1227.48 476.536 1228.62 475.204 1229.59 474.007C1230.59 472.81 1231.4 471.691 1232.02 470.649C1232.68 469.568 1233.16 468.525 1233.47 467.522C1233.78 466.479 1233.93 465.418 1233.93 464.337C1233.93 463.565 1233.76 462.812 1233.41 462.079C1233.06 461.345 1232.58 460.708 1231.96 460.168C1231.34 459.589 1230.59 459.145 1229.7 458.836C1228.85 458.489 1227.91 458.315 1226.87 458.315C1225.48 458.315 1224.2 458.527 1223.05 458.952C1221.93 459.376 1220.75 460.091 1219.51 461.094L1216.5 455.767C1218.12 454.609 1219.92 453.644 1221.89 452.872C1223.89 452.061 1226.19 451.656 1228.78 451.656C1230.44 451.656 1232.02 451.887 1233.53 452.351C1235.07 452.814 1236.42 453.509 1237.58 454.435C1238.78 455.323 1239.72 456.443 1240.42 457.794C1241.11 459.145 1241.46 460.708 1241.46 462.484C1241.46 463.719 1241.34 464.877 1241.11 465.958C1240.92 467.001 1240.59 468.062 1240.13 469.143C1239.7 470.185 1239.12 471.266 1238.39 472.386C1237.7 473.505 1236.85 474.721 1235.84 476.034C1235.07 477.037 1234.22 478.06 1233.29 479.103C1232.41 480.106 1231.52 481.072 1230.63 481.998C1229.74 482.925 1228.85 483.793 1227.97 484.604C1227.12 485.414 1226.35 486.09 1225.65 486.63H1242.33V493Z" fill="black"/>
<path d="M148.205 479.277C148.812 479.277 149.418 479.358 150.025 479.522C150.632 479.662 151.192 479.907 151.705 480.257C152.195 480.607 152.638 481.062 153.035 481.622C153.408 482.182 153.688 482.858 153.875 483.652H154.085C154.202 482.952 154.4 482.287 154.68 481.657C154.96 481.027 155.345 480.478 155.835 480.012C156.325 479.545 156.92 479.183 157.62 478.927C158.32 478.647 159.148 478.507 160.105 478.507C161.365 478.507 162.462 478.775 163.395 479.312C164.305 479.848 165.052 480.572 165.635 481.482C166.218 482.368 166.65 483.383 166.93 484.527C167.21 485.67 167.35 486.848 167.35 488.062C167.35 488.458 167.35 488.972 167.35 489.602C167.35 490.208 167.327 490.873 167.28 491.597C167.257 492.297 167.21 493.02 167.14 493.767C167.07 494.49 166.965 495.155 166.825 495.762H142.675C142.605 495.318 142.535 494.817 142.465 494.257C142.395 493.673 142.337 493.055 142.29 492.402C142.243 491.748 142.208 491.083 142.185 490.407C142.162 489.707 142.15 489.018 142.15 488.342C142.15 487.198 142.243 486.09 142.43 485.017C142.593 483.92 142.897 482.952 143.34 482.112C143.783 481.248 144.402 480.56 145.195 480.047C145.988 479.533 146.992 479.277 148.205 479.277ZM163.395 488.027C163.395 487.443 163.325 486.883 163.185 486.347C163.045 485.787 162.835 485.297 162.555 484.877C162.252 484.457 161.878 484.118 161.435 483.862C160.992 483.605 160.467 483.477 159.86 483.477C159.09 483.477 158.483 483.628 158.04 483.932C157.597 484.235 157.258 484.632 157.025 485.122C156.768 485.612 156.605 486.16 156.535 486.767C156.465 487.373 156.43 487.98 156.43 488.587V491.142H163.185C163.232 491.025 163.267 490.838 163.29 490.582C163.313 490.325 163.337 490.057 163.36 489.777C163.36 489.473 163.372 489.17 163.395 488.867C163.395 488.54 163.395 488.26 163.395 488.027ZM152.79 489.602C152.79 489.275 152.778 488.902 152.755 488.482C152.732 488.038 152.697 487.677 152.65 487.397C152.37 486.51 151.95 485.752 151.39 485.122C150.83 484.468 150.095 484.142 149.185 484.142C148.578 484.142 148.077 484.258 147.68 484.492C147.283 484.725 146.968 485.04 146.735 485.437C146.502 485.81 146.338 486.242 146.245 486.732C146.152 487.222 146.105 487.735 146.105 488.272C146.105 488.878 146.117 489.438 146.14 489.952C146.163 490.465 146.198 490.862 146.245 491.142H152.79V489.602ZM159.02 462.77L156.535 462.595V462.7L167 471.135V474.705H149.5V470.155H157.83L160.21 470.365V470.225L149.5 461.79V458.22H167V462.77H159.02ZM151.005 453.159C150.795 452.809 150.585 452.366 150.375 451.829C150.165 451.292 149.978 450.686 149.815 450.009C149.628 449.309 149.477 448.562 149.36 447.769C149.243 446.976 149.185 446.147 149.185 445.284C149.185 442.554 149.558 440.582 150.305 439.369C151.052 438.156 152.137 437.549 153.56 437.549C153.957 437.549 154.377 437.607 154.82 437.724C155.263 437.841 155.683 438.039 156.08 438.319C156.477 438.599 156.827 438.961 157.13 439.404C157.433 439.824 157.643 440.349 157.76 440.979H157.9C158.017 439.626 158.448 438.611 159.195 437.934C159.942 437.234 160.91 436.884 162.1 436.884C162.847 436.884 163.547 437.047 164.2 437.374C164.83 437.701 165.378 438.214 165.845 438.914C166.312 439.591 166.685 440.454 166.965 441.504C167.245 442.554 167.385 443.814 167.385 445.284C167.385 446.264 167.315 447.197 167.175 448.084C167.035 448.971 166.848 449.787 166.615 450.534C166.358 451.281 166.078 451.957 165.775 452.564C165.472 453.147 165.157 453.626 164.83 453.999L161.47 452.249C161.75 451.899 162.018 451.479 162.275 450.989C162.508 450.499 162.718 449.974 162.905 449.414C163.092 448.831 163.243 448.236 163.36 447.629C163.477 446.999 163.535 446.381 163.535 445.774C163.535 444.537 163.36 443.511 163.01 442.694C162.66 441.854 162.158 441.434 161.505 441.434C160.898 441.434 160.478 441.831 160.245 442.624C160.012 443.394 159.895 444.526 159.895 446.019V447.034H156.71V445.599C156.71 444.409 156.523 443.534 156.15 442.974C155.777 442.391 155.322 442.099 154.785 442.099C154.155 442.099 153.712 442.437 153.455 443.114C153.175 443.767 153.035 444.689 153.035 445.879C153.035 446.532 153.093 447.197 153.21 447.874C153.28 448.387 153.373 448.877 153.49 449.344H156.5V453.159H151.005ZM162.065 424.438V423.108L149.5 419.713V415.023L165.285 419.993C166.592 420.436 167.782 420.868 168.855 421.288C169.952 421.708 170.897 422.198 171.69 422.758C172.483 423.318 173.09 423.983 173.51 424.753C173.953 425.499 174.175 426.421 174.175 427.518C174.175 428.054 174.105 428.568 173.965 429.058C173.825 429.524 173.65 429.956 173.44 430.353C173.253 430.749 173.043 431.099 172.81 431.403C172.6 431.706 172.402 431.951 172.215 432.138L169.1 429.793C169.357 429.489 169.59 429.128 169.8 428.708C170.033 428.288 170.15 427.891 170.15 427.518C170.15 426.818 169.905 426.269 169.415 425.873C168.925 425.453 168.12 425.056 167 424.683V427.168L149.5 434.448V429.513L162.065 424.438ZM150.69 410.836C150.27 409.903 149.908 408.83 149.605 407.616C149.302 406.38 149.15 404.921 149.15 403.241C149.15 402.028 149.302 401.001 149.605 400.161C149.885 399.298 150.293 398.61 150.83 398.096C151.367 397.56 152.008 397.175 152.755 396.941C153.502 396.708 154.342 396.591 155.275 396.591C156.465 396.591 157.48 396.638 158.32 396.731C159.16 396.801 159.907 396.836 160.56 396.836C161.05 396.836 161.598 396.813 162.205 396.766C162.532 396.72 162.847 396.685 163.15 396.661V394.386H167V400.196L164.62 400.651V400.826C165.343 401.293 165.973 401.958 166.51 402.821C167.023 403.685 167.28 404.851 167.28 406.321C167.28 408.071 166.813 409.46 165.88 410.486C164.947 411.513 163.71 412.026 162.17 412.026C161.19 412.026 160.35 411.851 159.65 411.501C158.927 411.128 158.343 410.603 157.9 409.926C157.433 409.226 157.095 408.398 156.885 407.441C156.652 406.461 156.535 405.376 156.535 404.186C156.535 403.766 156.558 403.323 156.605 402.856C156.652 402.39 156.698 401.818 156.745 401.141C156.512 401.095 156.278 401.071 156.045 401.071H155.38C154.493 401.071 153.863 401.328 153.49 401.841C153.093 402.355 152.895 403.113 152.895 404.116C152.895 405.306 153.047 406.38 153.35 407.336C153.653 408.293 153.957 409.098 154.26 409.751L150.69 410.836ZM163.535 404.851C163.535 403.731 163.337 402.891 162.94 402.331C162.52 401.771 162.077 401.363 161.61 401.106H159.51C159.463 401.34 159.417 401.69 159.37 402.156C159.3 402.623 159.265 403.125 159.265 403.661C159.265 404.105 159.312 404.548 159.405 404.991C159.475 405.435 159.603 405.831 159.79 406.181C159.953 406.531 160.175 406.811 160.455 407.021C160.735 407.231 161.073 407.336 161.47 407.336C162.123 407.336 162.637 407.15 163.01 406.776C163.36 406.38 163.535 405.738 163.535 404.851ZM153.525 379.385V383.9C155.182 384.04 156.827 384.227 158.46 384.46C160.093 384.67 161.563 385.008 162.87 385.475C164.153 385.918 165.203 386.513 166.02 387.26C166.813 387.983 167.21 388.905 167.21 390.025C167.21 391.378 167.035 392.335 166.685 392.895L162.905 392.335C163.045 391.962 163.115 391.612 163.115 391.285C163.115 390.818 162.917 390.398 162.52 390.025C162.123 389.628 161.412 389.29 160.385 389.01C159.358 388.707 157.97 388.462 156.22 388.275C154.447 388.088 152.207 387.96 149.5 387.89V374.835H167V379.385H153.525ZM163.185 364.209C163.255 363.859 163.313 363.404 163.36 362.844C163.383 362.284 163.395 361.84 163.395 361.514C163.395 358.924 162.602 357.629 161.015 357.629C160.268 357.629 159.708 357.955 159.335 358.609C158.938 359.239 158.74 360.172 158.74 361.409C158.74 361.595 158.752 361.817 158.775 362.074C158.775 362.33 158.787 362.587 158.81 362.844C158.81 363.1 158.833 363.357 158.88 363.614C158.903 363.847 158.938 364.045 158.985 364.209H163.185ZM155.73 364.209C155.683 363.929 155.648 363.614 155.625 363.264C155.578 362.89 155.555 362.529 155.555 362.179C155.532 361.805 155.52 361.455 155.52 361.129C155.497 360.779 155.485 360.487 155.485 360.254C155.485 358.97 155.625 357.862 155.905 356.929C156.162 355.995 156.535 355.237 157.025 354.654C157.515 354.07 158.098 353.639 158.775 353.359C159.428 353.079 160.14 352.939 160.91 352.939C163.033 352.939 164.62 353.639 165.67 355.039C166.72 356.439 167.245 358.737 167.245 361.934C167.245 363.264 167.222 364.535 167.175 365.749C167.128 366.939 167.07 367.942 167 368.759H149.5V364.209H155.73ZM160.105 336.782V344.237H167V348.787H149.5V344.237H156.08V336.782H149.5V332.232H167V336.782H160.105ZM163.185 324.581C163.255 324.231 163.313 323.939 163.36 323.706C163.383 323.449 163.395 323.193 163.395 322.936C163.395 321.279 162.602 320.451 161.015 320.451C159.498 320.451 158.74 321.244 158.74 322.831C158.74 323.368 158.822 323.951 158.985 324.581H163.185ZM155.73 324.581C155.637 324.021 155.578 323.519 155.555 323.076C155.508 322.609 155.485 322.143 155.485 321.676C155.485 320.579 155.625 319.658 155.905 318.911C156.162 318.164 156.535 317.558 157.025 317.091C157.515 316.624 158.098 316.286 158.775 316.076C159.428 315.866 160.14 315.761 160.91 315.761C163.033 315.761 164.62 316.344 165.67 317.511C166.72 318.654 167.245 320.603 167.245 323.356C167.245 324.686 167.222 325.783 167.175 326.646C167.128 327.509 167.07 328.338 167 329.131H149.5V324.581H155.73ZM149.5 314.501V309.951H167V314.501H149.5ZM165.145 290.365C165.425 290.668 165.705 291.065 165.985 291.555C166.242 292.021 166.487 292.581 166.72 293.235C166.953 293.865 167.14 294.565 167.28 295.335C167.42 296.105 167.49 296.921 167.49 297.785C167.49 299.278 167.28 300.62 166.86 301.81C166.44 302.976 165.833 303.968 165.04 304.785C164.223 305.601 163.255 306.231 162.135 306.675C160.992 307.095 159.697 307.305 158.25 307.305C156.71 307.305 155.368 307.06 154.225 306.57C153.058 306.08 152.09 305.415 151.32 304.575C150.55 303.711 149.978 302.708 149.605 301.565C149.208 300.421 149.01 299.185 149.01 297.855C149.01 296.968 149.127 296.058 149.36 295.125C149.593 294.168 150.002 293.293 150.585 292.5C151.145 291.706 151.903 291.065 152.86 290.575C153.817 290.061 155.03 289.805 156.5 289.805C157.503 289.805 158.588 289.921 159.755 290.155V302.755C160.502 302.731 161.132 302.58 161.645 302.3C162.158 301.996 162.578 301.611 162.905 301.145C163.232 300.655 163.477 300.106 163.64 299.5C163.78 298.87 163.85 298.205 163.85 297.505C163.85 296.105 163.687 294.961 163.36 294.075C163.033 293.165 162.637 292.43 162.17 291.87L165.145 290.365ZM152.65 297.925C152.65 298.531 152.732 299.103 152.895 299.64C153.058 300.176 153.303 300.666 153.63 301.11C153.933 301.53 154.318 301.88 154.785 302.16C155.252 302.44 155.777 302.603 156.36 302.65V294.04C155.217 294.04 154.318 294.366 153.665 295.02C152.988 295.65 152.65 296.618 152.65 297.925ZM199.105 509.433V511.708H206V516.258H188.5V511.708H195.605V509.853L188.5 504.078V498.933L196.655 505.898L202.15 501.593V498.513H206V503.763L199.105 509.433ZM197.25 496.707C195.78 496.707 194.473 496.485 193.33 496.042C192.187 495.598 191.218 494.968 190.425 494.152C189.632 493.335 189.037 492.367 188.64 491.247C188.22 490.103 188.01 488.832 188.01 487.432C188.01 485.962 188.232 484.655 188.675 483.512C189.118 482.345 189.748 481.365 190.565 480.572C191.358 479.778 192.327 479.183 193.47 478.787C194.613 478.367 195.873 478.157 197.25 478.157C198.72 478.157 200.027 478.378 201.17 478.822C202.313 479.265 203.282 479.895 204.075 480.712C204.868 481.528 205.475 482.508 205.895 483.652C206.292 484.772 206.49 486.032 206.49 487.432C206.49 488.902 206.268 490.22 205.825 491.387C205.382 492.53 204.763 493.498 203.97 494.292C203.153 495.085 202.173 495.692 201.03 496.112C199.887 496.508 198.627 496.707 197.25 496.707ZM197.25 492.017C198.02 492.017 198.732 491.912 199.385 491.702C200.038 491.492 200.61 491.188 201.1 490.792C201.59 490.395 201.975 489.917 202.255 489.357C202.512 488.797 202.64 488.155 202.64 487.432C202.64 486.078 202.208 484.982 201.345 484.142C200.482 483.278 199.117 482.847 197.25 482.847C195.64 482.847 194.345 483.243 193.365 484.037C192.362 484.83 191.86 485.962 191.86 487.432C191.86 488.085 191.965 488.692 192.175 489.252C192.362 489.812 192.677 490.302 193.12 490.722C193.563 491.118 194.123 491.433 194.8 491.667C195.477 491.9 196.293 492.017 197.25 492.017ZM197.985 461.51L194.345 461.405V461.58L201.03 466.095V467.04L194.345 471.8V472.01L197.95 471.73H206V475.79H188.5V471.065L195.185 466.41V466.27L188.5 461.895V457.135H206V461.51H197.985ZM197.985 440.524L194.345 440.419V440.594L201.03 445.109V446.054L194.345 450.814V451.024L197.95 450.744H206V454.804H188.5V450.079L195.185 445.424V445.284L188.5 440.909V436.149H206V440.524H197.985ZM201.065 424.438V423.108L188.5 419.713V415.023L204.285 419.993C205.592 420.436 206.782 420.868 207.855 421.288C208.952 421.708 209.897 422.198 210.69 422.758C211.483 423.318 212.09 423.983 212.51 424.753C212.953 425.499 213.175 426.421 213.175 427.518C213.175 428.054 213.105 428.568 212.965 429.058C212.825 429.524 212.65 429.956 212.44 430.353C212.253 430.749 212.043 431.099 211.81 431.403C211.6 431.706 211.402 431.951 211.215 432.138L208.1 429.793C208.357 429.489 208.59 429.128 208.8 428.708C209.033 428.288 209.15 427.891 209.15 427.518C209.15 426.818 208.905 426.269 208.415 425.873C207.925 425.453 207.12 425.056 206 424.683V427.168L188.5 434.448V429.513L201.065 424.438ZM199.105 399.741V407.196H206V411.746H188.5V407.196H195.08V399.741H188.5V395.191H206V399.741H199.105ZM198.02 378.825L195.535 378.65V378.755L206 387.19V390.76H188.5V386.21H196.83L199.21 386.42V386.28L188.5 377.845V374.275H206V378.825H198.02ZM199.105 362.529V364.804H206V369.354H188.5V364.804H195.605V362.949L188.5 357.174V352.029L196.655 358.994L202.15 354.689V351.609H206V356.859L199.105 362.529ZM189.69 347.877C189.27 346.944 188.908 345.871 188.605 344.657C188.302 343.421 188.15 341.962 188.15 340.282C188.15 339.069 188.302 338.042 188.605 337.202C188.885 336.339 189.293 335.651 189.83 335.137C190.367 334.601 191.008 334.216 191.755 333.982C192.502 333.749 193.342 333.632 194.275 333.632C195.465 333.632 196.48 333.679 197.32 333.772C198.16 333.842 198.907 333.877 199.56 333.877C200.05 333.877 200.598 333.854 201.205 333.807C201.532 333.761 201.847 333.726 202.15 333.702V331.427H206V337.237L203.62 337.692V337.867C204.343 338.334 204.973 338.999 205.51 339.862C206.023 340.726 206.28 341.892 206.28 343.362C206.28 345.112 205.813 346.501 204.88 347.527C203.947 348.554 202.71 349.067 201.17 349.067C200.19 349.067 199.35 348.892 198.65 348.542C197.927 348.169 197.343 347.644 196.9 346.967C196.433 346.267 196.095 345.439 195.885 344.482C195.652 343.502 195.535 342.417 195.535 341.227C195.535 340.807 195.558 340.364 195.605 339.897C195.652 339.431 195.698 338.859 195.745 338.182C195.512 338.136 195.278 338.112 195.045 338.112H194.38C193.493 338.112 192.863 338.369 192.49 338.882C192.093 339.396 191.895 340.154 191.895 341.157C191.895 342.347 192.047 343.421 192.35 344.377C192.653 345.334 192.957 346.139 193.26 346.792L189.69 347.877ZM202.535 341.892C202.535 340.772 202.337 339.932 201.94 339.372C201.52 338.812 201.077 338.404 200.61 338.147H198.51C198.463 338.381 198.417 338.731 198.37 339.197C198.3 339.664 198.265 340.166 198.265 340.702C198.265 341.146 198.312 341.589 198.405 342.032C198.475 342.476 198.603 342.872 198.79 343.222C198.953 343.572 199.175 343.852 199.455 344.062C199.735 344.272 200.073 344.377 200.47 344.377C201.123 344.377 201.637 344.191 202.01 343.817C202.36 343.421 202.535 342.779 202.535 341.892ZM210.2 309.146V312.996H206V327.836H188.5V323.286H201.975V316.461H188.5V311.911H201.975V309.146H210.2ZM198.02 294.88L195.535 294.705V294.81L206 303.245L206 306.815H188.5V302.265H196.83L199.21 302.475V302.335L188.5 293.9V290.33H206V294.88H198.02ZM198.02 273.893L195.535 273.718V273.823L206 282.258V285.828H188.5L188.5 281.278H196.83L199.21 281.488V281.348L188.5 272.913V269.343H206V273.893H198.02Z" fill="black"/>
<path d="M520.7 446.561V448.336H528V451.761H510.5V448.336H517.65V446.561L510.5 442.561V438.661L518.95 443.586L528 438.036V442.261L520.7 446.561ZM524.475 430.446V429.496L515.5 427.071V423.721L526.775 427.271C527.708 427.587 528.558 427.896 529.325 428.196C530.108 428.496 530.783 428.846 531.35 429.246C531.917 429.646 532.35 430.121 532.65 430.671C532.967 431.204 533.125 431.862 533.125 432.646C533.125 433.029 533.075 433.396 532.975 433.746C532.875 434.079 532.75 434.387 532.6 434.671C532.467 434.954 532.317 435.204 532.15 435.421C532 435.637 531.858 435.812 531.725 435.946L529.5 434.271C529.683 434.054 529.85 433.796 530 433.496C530.167 433.196 530.25 432.912 530.25 432.646C530.25 432.146 530.075 431.754 529.725 431.471C529.375 431.171 528.8 430.887 528 430.621V432.396L515.5 437.596V434.071L524.475 430.446ZM515.5 422.98V418.73L517 418.355V418.255C515.767 417.389 515.15 415.989 515.15 414.055C515.15 413.289 515.275 412.589 515.525 411.955C515.758 411.305 516.133 410.755 516.65 410.305C517.167 409.839 517.817 409.48 518.6 409.23C519.383 408.98 520.325 408.855 521.425 408.855C522.492 408.855 523.458 408.997 524.325 409.28C525.175 409.564 525.9 409.972 526.5 410.505C527.1 411.039 527.558 411.689 527.875 412.455C528.192 413.222 528.35 414.097 528.35 415.08C528.35 415.597 528.308 416.105 528.225 416.605C528.158 417.105 528.042 417.522 527.875 417.855H533V421.105H518.25V422.98H515.5ZM517.9 415.03C517.9 415.664 518.058 416.247 518.375 416.78C518.692 417.297 519.167 417.655 519.8 417.855H525C525.183 417.622 525.333 417.289 525.45 416.855C525.55 416.405 525.6 415.955 525.6 415.505C525.6 415.039 525.525 414.605 525.375 414.205C525.208 413.805 524.95 413.455 524.6 413.155C524.25 412.855 523.808 412.622 523.275 412.455C522.742 412.289 522.1 412.205 521.35 412.205C520.25 412.205 519.4 412.472 518.8 413.005C518.2 413.539 517.9 414.214 517.9 415.03ZM516.35 405.74C516.05 405.074 515.792 404.307 515.575 403.44C515.358 402.557 515.25 401.515 515.25 400.315C515.25 399.449 515.358 398.715 515.575 398.115C515.775 397.499 516.067 397.007 516.45 396.64C516.833 396.257 517.292 395.982 517.825 395.815C518.358 395.649 518.958 395.565 519.625 395.565C520.475 395.565 521.2 395.599 521.8 395.665C522.4 395.715 522.933 395.74 523.4 395.74C523.75 395.74 524.142 395.724 524.575 395.69C524.808 395.657 525.033 395.632 525.25 395.615V393.99H528V398.14L526.3 398.465V398.59C526.817 398.924 527.267 399.399 527.65 400.015C528.017 400.632 528.2 401.465 528.2 402.515C528.2 403.765 527.867 404.757 527.2 405.49C526.533 406.224 525.65 406.59 524.55 406.59C523.85 406.59 523.25 406.465 522.75 406.215C522.233 405.949 521.817 405.574 521.5 405.09C521.167 404.59 520.925 403.999 520.775 403.315C520.608 402.615 520.525 401.84 520.525 400.99C520.525 400.69 520.542 400.374 520.575 400.04C520.608 399.707 520.642 399.299 520.675 398.815C520.508 398.782 520.342 398.765 520.175 398.765H519.7C519.067 398.765 518.617 398.949 518.35 399.315C518.067 399.682 517.925 400.224 517.925 400.94C517.925 401.79 518.033 402.557 518.25 403.24C518.467 403.924 518.683 404.499 518.9 404.965L516.35 405.74ZM525.525 401.465C525.525 400.665 525.383 400.065 525.1 399.665C524.8 399.265 524.483 398.974 524.15 398.79H522.65C522.617 398.957 522.583 399.207 522.55 399.54C522.5 399.874 522.475 400.232 522.475 400.615C522.475 400.932 522.508 401.249 522.575 401.565C522.625 401.882 522.717 402.165 522.85 402.415C522.967 402.665 523.125 402.865 523.325 403.015C523.525 403.165 523.767 403.24 524.05 403.24C524.517 403.24 524.883 403.107 525.15 402.84C525.4 402.557 525.525 402.099 525.525 401.465ZM525.25 390.425V387.175H518.375V389.15H520.5V391.925H515.5V379.075H520.5V381.825H518.375V383.825H525.25V380.575H528V390.425H525.25ZM521.75 377.135C520.7 377.135 519.767 376.976 518.95 376.66C518.133 376.343 517.442 375.893 516.875 375.31C516.308 374.726 515.883 374.035 515.6 373.235C515.3 372.418 515.15 371.51 515.15 370.51C515.15 369.46 515.308 368.526 515.625 367.71C515.942 366.876 516.392 366.176 516.975 365.61C517.542 365.043 518.233 364.618 519.05 364.335C519.867 364.035 520.767 363.885 521.75 363.885C522.8 363.885 523.733 364.043 524.55 364.36C525.367 364.676 526.058 365.126 526.625 365.71C527.192 366.293 527.625 366.993 527.925 367.81C528.208 368.61 528.35 369.51 528.35 370.51C528.35 371.56 528.192 372.501 527.875 373.335C527.558 374.151 527.117 374.843 526.55 375.41C525.967 375.976 525.267 376.41 524.45 376.71C523.633 376.993 522.733 377.135 521.75 377.135ZM521.75 373.785C522.3 373.785 522.808 373.71 523.275 373.56C523.742 373.41 524.15 373.193 524.5 372.91C524.85 372.626 525.125 372.285 525.325 371.885C525.508 371.485 525.6 371.026 525.6 370.51C525.6 369.543 525.292 368.76 524.675 368.16C524.058 367.543 523.083 367.235 521.75 367.235C520.6 367.235 519.675 367.518 518.975 368.085C518.258 368.651 517.9 369.46 517.9 370.51C517.9 370.976 517.975 371.41 518.125 371.81C518.258 372.21 518.483 372.56 518.8 372.86C519.117 373.143 519.517 373.368 520 373.535C520.483 373.701 521.067 373.785 521.75 373.785ZM515.5 363.02V358.77L517 358.395V358.295C515.767 357.428 515.15 356.028 515.15 354.095C515.15 353.328 515.275 352.628 515.525 351.995C515.758 351.345 516.133 350.795 516.65 350.345C517.167 349.878 517.817 349.52 518.6 349.27C519.383 349.02 520.325 348.895 521.425 348.895C522.492 348.895 523.458 349.036 524.325 349.32C525.175 349.603 525.9 350.011 526.5 350.545C527.1 351.078 527.558 351.728 527.875 352.495C528.192 353.261 528.35 354.136 528.35 355.12C528.35 355.636 528.308 356.145 528.225 356.645C528.158 357.145 528.042 357.561 527.875 357.895H533V361.145H518.25V363.02H515.5ZM517.9 355.07C517.9 355.703 518.058 356.286 518.375 356.82C518.692 357.336 519.167 357.695 519.8 357.895H525C525.183 357.661 525.333 357.328 525.45 356.895C525.55 356.445 525.6 355.995 525.6 355.545C525.6 355.078 525.525 354.645 525.375 354.245C525.208 353.845 524.95 353.495 524.6 353.195C524.25 352.895 523.808 352.661 523.275 352.495C522.742 352.328 522.1 352.245 521.35 352.245C520.25 352.245 519.4 352.511 518.8 353.045C518.2 353.578 517.9 354.253 517.9 355.07ZM517.3 342.554C516.717 342.554 516.258 342.371 515.925 342.004C515.575 341.638 515.4 341.154 515.4 340.554C515.4 339.921 515.575 339.421 515.925 339.054C516.258 338.688 516.717 338.504 517.3 338.504C517.883 338.504 518.35 338.688 518.7 339.054C519.05 339.421 519.225 339.921 519.225 340.554C519.225 341.154 519.05 341.638 518.7 342.004C518.35 342.371 517.883 342.554 517.3 342.554ZM526.35 342.554C525.767 342.554 525.308 342.371 524.975 342.004C524.625 341.638 524.45 341.154 524.45 340.554C524.45 339.921 524.625 339.421 524.975 339.054C525.308 338.688 525.767 338.504 526.35 338.504C526.933 338.504 527.4 338.688 527.75 339.054C528.1 339.421 528.275 339.921 528.275 340.554C528.275 341.154 528.1 341.638 527.75 342.004C527.4 342.371 526.933 342.554 526.35 342.554ZM547.025 477.441L538.5 482.391V478.391L543.25 475.841L544.525 475.266L543.25 474.716L538.5 472.116V468.241L547.05 473.266L556 468.091V472.091L551 474.766L549.65 475.441L551 476.091L556 478.891V482.766L547.025 477.441ZM544.35 465.701C544.05 465.035 543.792 464.268 543.575 463.401C543.358 462.518 543.25 461.476 543.25 460.276C543.25 459.41 543.358 458.676 543.575 458.076C543.775 457.46 544.067 456.968 544.45 456.601C544.833 456.218 545.292 455.943 545.825 455.776C546.358 455.61 546.958 455.526 547.625 455.526C548.475 455.526 549.2 455.56 549.8 455.626C550.4 455.676 550.933 455.701 551.4 455.701C551.75 455.701 552.142 455.685 552.575 455.651C552.808 455.618 553.033 455.593 553.25 455.576V453.951H556V458.101L554.3 458.426V458.551C554.817 458.885 555.267 459.36 555.65 459.976C556.017 460.593 556.2 461.426 556.2 462.476C556.2 463.726 555.867 464.718 555.2 465.451C554.533 466.185 553.65 466.551 552.55 466.551C551.85 466.551 551.25 466.426 550.75 466.176C550.233 465.91 549.817 465.535 549.5 465.051C549.167 464.551 548.925 463.96 548.775 463.276C548.608 462.576 548.525 461.801 548.525 460.951C548.525 460.651 548.542 460.335 548.575 460.001C548.608 459.668 548.642 459.26 548.675 458.776C548.508 458.743 548.342 458.726 548.175 458.726H547.7C547.067 458.726 546.617 458.91 546.35 459.276C546.067 459.643 545.925 460.185 545.925 460.901C545.925 461.751 546.033 462.518 546.25 463.201C546.467 463.885 546.683 464.46 546.9 464.926L544.35 465.701ZM553.525 461.426C553.525 460.626 553.383 460.026 553.1 459.626C552.8 459.226 552.483 458.935 552.15 458.751H550.65C550.617 458.918 550.583 459.168 550.55 459.501C550.5 459.835 550.475 460.193 550.475 460.576C550.475 460.893 550.508 461.21 550.575 461.526C550.625 461.843 550.717 462.126 550.85 462.376C550.967 462.626 551.125 462.826 551.325 462.976C551.525 463.126 551.767 463.201 552.05 463.201C552.517 463.201 552.883 463.068 553.15 462.801C553.4 462.518 553.525 462.06 553.525 461.426ZM543.5 452.961V448.711L545 448.336V448.236C543.767 447.369 543.15 445.969 543.15 444.036C543.15 443.269 543.275 442.569 543.525 441.936C543.758 441.286 544.133 440.736 544.65 440.286C545.167 439.819 545.817 439.461 546.6 439.211C547.383 438.961 548.325 438.836 549.425 438.836C550.492 438.836 551.458 438.978 552.325 439.261C553.175 439.544 553.9 439.953 554.5 440.486C555.1 441.019 555.558 441.669 555.875 442.436C556.192 443.203 556.35 444.078 556.35 445.061C556.35 445.578 556.308 446.086 556.225 446.586C556.158 447.086 556.042 447.503 555.875 447.836H561V451.086H546.25V452.961H543.5ZM545.9 445.011C545.9 445.644 546.058 446.228 546.375 446.761C546.692 447.278 547.167 447.636 547.8 447.836H553C553.183 447.603 553.333 447.269 553.45 446.836C553.55 446.386 553.6 445.936 553.6 445.486C553.6 445.019 553.525 444.586 553.375 444.186C553.208 443.786 552.95 443.436 552.6 443.136C552.25 442.836 551.808 442.603 551.275 442.436C550.742 442.269 550.1 442.186 549.35 442.186C548.25 442.186 547.4 442.453 546.8 442.986C546.2 443.519 545.9 444.194 545.9 445.011ZM550.3 427.846L548.525 427.721V427.796L556 433.821V436.371H543.5V433.121H549.45L551.15 433.271V433.171L543.5 427.146V424.596H556V427.846H550.3ZM553.25 420.405V417.155H546.375V419.13H548.5V421.905H543.5V409.055H548.5V411.805H546.375V413.805H553.25V410.555H556V420.405H553.25ZM549.75 407.115C548.7 407.115 547.767 406.957 546.95 406.64C546.133 406.324 545.442 405.874 544.875 405.29C544.308 404.707 543.883 404.015 543.6 403.215C543.3 402.399 543.15 401.49 543.15 400.49C543.15 399.44 543.308 398.507 543.625 397.69C543.942 396.857 544.392 396.157 544.975 395.59C545.542 395.024 546.233 394.599 547.05 394.315C547.867 394.015 548.767 393.865 549.75 393.865C550.8 393.865 551.733 394.024 552.55 394.34C553.367 394.657 554.058 395.107 554.625 395.69C555.192 396.274 555.625 396.974 555.925 397.79C556.208 398.59 556.35 399.49 556.35 400.49C556.35 401.54 556.192 402.482 555.875 403.315C555.558 404.132 555.117 404.824 554.55 405.39C553.967 405.957 553.267 406.39 552.45 406.69C551.633 406.974 550.733 407.115 549.75 407.115ZM549.75 403.765C550.3 403.765 550.808 403.69 551.275 403.54C551.742 403.39 552.15 403.174 552.5 402.89C552.85 402.607 553.125 402.265 553.325 401.865C553.508 401.465 553.6 401.007 553.6 400.49C553.6 399.524 553.292 398.74 552.675 398.14C552.058 397.524 551.083 397.215 549.75 397.215C548.6 397.215 547.675 397.499 546.975 398.065C546.258 398.632 545.9 399.44 545.9 400.49C545.9 400.957 545.975 401.39 546.125 401.79C546.258 402.19 546.483 402.54 546.8 402.84C547.117 403.124 547.517 403.349 548 403.515C548.483 403.682 549.067 403.765 549.75 403.765ZM551.075 382.825V388.15H556V391.4H543.5V388.15H548.2V382.825H543.5V379.575H556V382.825H551.075ZM549.75 377.135C548.7 377.135 547.767 376.976 546.95 376.66C546.133 376.343 545.442 375.893 544.875 375.31C544.308 374.726 543.883 374.035 543.6 373.235C543.3 372.418 543.15 371.51 543.15 370.51C543.15 369.46 543.308 368.526 543.625 367.71C543.942 366.876 544.392 366.176 544.975 365.61C545.542 365.043 546.233 364.618 547.05 364.335C547.867 364.035 548.767 363.885 549.75 363.885C550.8 363.885 551.733 364.043 552.55 364.36C553.367 364.676 554.058 365.126 554.625 365.71C555.192 366.293 555.625 366.993 555.925 367.81C556.208 368.61 556.35 369.51 556.35 370.51C556.35 371.56 556.192 372.501 555.875 373.335C555.558 374.151 555.117 374.843 554.55 375.41C553.967 375.976 553.267 376.41 552.45 376.71C551.633 376.993 550.733 377.135 549.75 377.135ZM549.75 373.785C550.3 373.785 550.808 373.71 551.275 373.56C551.742 373.41 552.15 373.193 552.5 372.91C552.85 372.626 553.125 372.285 553.325 371.885C553.508 371.485 553.6 371.026 553.6 370.51C553.6 369.543 553.292 368.76 552.675 368.16C552.058 367.543 551.083 367.235 549.75 367.235C548.6 367.235 547.675 367.518 546.975 368.085C546.258 368.651 545.9 369.46 545.9 370.51C545.9 370.976 545.975 371.41 546.125 371.81C546.258 372.21 546.483 372.56 546.8 372.86C547.117 373.143 547.517 373.368 548 373.535C548.483 373.701 549.067 373.785 549.75 373.785ZM543.525 361.12C543.508 360.836 543.483 360.478 543.45 360.045C543.417 359.595 543.392 359.111 543.375 358.595C543.358 358.061 543.342 357.503 543.325 356.92C543.308 356.32 543.3 355.728 543.3 355.145C543.3 353.261 543.567 351.895 544.1 351.045C544.617 350.195 545.4 349.77 546.45 349.77C547.033 349.77 547.6 349.945 548.15 350.295C548.683 350.645 549.083 351.245 549.35 352.095H549.45C549.567 351.061 549.9 350.336 550.45 349.92C551 349.503 551.675 349.295 552.475 349.295C553.708 349.295 554.642 349.828 555.275 350.895C555.892 351.945 556.2 353.678 556.2 356.095C556.2 356.445 556.192 356.853 556.175 357.32C556.175 357.77 556.158 358.228 556.125 358.695C556.108 359.161 556.083 359.611 556.05 360.045C556.033 360.478 556.008 360.836 555.975 361.12H543.525ZM553.5 357.945C553.517 357.828 553.533 357.678 553.55 357.495C553.567 357.311 553.583 357.12 553.6 356.92C553.6 356.72 553.6 356.52 553.6 356.32C553.6 356.12 553.6 355.945 553.6 355.795C553.6 354.661 553.475 353.836 553.225 353.32C552.975 352.803 552.592 352.545 552.075 352.545C551.642 352.545 551.292 352.77 551.025 353.22C550.742 353.653 550.6 354.42 550.6 355.52V357.945H553.5ZM548.6 355.47C548.6 354.636 548.475 354.003 548.225 353.57C547.958 353.12 547.625 352.895 547.225 352.895C546.792 352.895 546.467 353.103 546.25 353.52C546.017 353.936 545.9 354.653 545.9 355.67C545.9 356.053 545.908 356.486 545.925 356.97C545.942 357.436 545.958 357.761 545.975 357.945H548.6V355.47ZM544.35 345.779C544.05 345.113 543.792 344.346 543.575 343.479C543.358 342.596 543.25 341.554 543.25 340.354C543.25 339.488 543.358 338.754 543.575 338.154C543.775 337.538 544.067 337.046 544.45 336.679C544.833 336.296 545.292 336.021 545.825 335.854C546.358 335.688 546.958 335.604 547.625 335.604C548.475 335.604 549.2 335.638 549.8 335.704C550.4 335.754 550.933 335.779 551.4 335.779C551.75 335.779 552.142 335.763 552.575 335.729C552.808 335.696 553.033 335.671 553.25 335.654V334.029H556V338.179L554.3 338.504V338.629C554.817 338.963 555.267 339.438 555.65 340.054C556.017 340.671 556.2 341.504 556.2 342.554C556.2 343.804 555.867 344.796 555.2 345.529C554.533 346.263 553.65 346.629 552.55 346.629C551.85 346.629 551.25 346.504 550.75 346.254C550.233 345.988 549.817 345.613 549.5 345.129C549.167 344.629 548.925 344.038 548.775 343.354C548.608 342.654 548.525 341.879 548.525 341.029C548.525 340.729 548.542 340.413 548.575 340.079C548.608 339.746 548.642 339.338 548.675 338.854C548.508 338.821 548.342 338.804 548.175 338.804H547.7C547.067 338.804 546.617 338.988 546.35 339.354C546.067 339.721 545.925 340.263 545.925 340.979C545.925 341.829 546.033 342.596 546.25 343.279C546.467 343.963 546.683 344.538 546.9 345.004L544.35 345.779ZM553.525 341.504C553.525 340.704 553.383 340.104 553.1 339.704C552.8 339.304 552.483 339.013 552.15 338.829H550.65C550.617 338.996 550.583 339.246 550.55 339.579C550.5 339.913 550.475 340.271 550.475 340.654C550.475 340.971 550.508 341.288 550.575 341.604C550.625 341.921 550.717 342.204 550.85 342.454C550.967 342.704 551.125 342.904 551.325 343.054C551.525 343.204 551.767 343.279 552.05 343.279C552.517 343.279 552.883 343.146 553.15 342.879C553.4 342.596 553.525 342.138 553.525 341.504ZM548.7 311.649V313.424H556V316.849H538.5V313.424H545.65V311.649L538.5 307.649V303.749L546.95 308.674L556 303.124V307.349L548.7 311.649ZM554.35 297.584C553.767 297.584 553.308 297.4 552.975 297.034C552.625 296.667 552.45 296.184 552.45 295.584C552.45 294.95 552.625 294.45 552.975 294.084C553.308 293.717 553.767 293.534 554.35 293.534C554.933 293.534 555.4 293.717 555.75 294.084C556.1 294.45 556.275 294.95 556.275 295.584C556.275 296.184 556.1 296.667 555.75 297.034C555.4 297.4 554.933 297.584 554.35 297.584Z" fill="black"/>
<rect x="-93.4165" y="80.3439" width="177.351" height="739.77" transform="rotate(4.9817 -93.4165 80.3439)" fill="#B3B3B3" stroke="black" stroke-width="2.48165"/>
<path d="M-70.7622 206.201L39.1755 215.784L9.89383 551.712C9.35825 557.856 3.94314 562.403 -2.20116 561.867L-89.8885 554.224C-96.0327 553.688 -100.58 548.273 -100.044 542.129L-70.7622 206.201Z" fill="#D9D9D9" stroke="black" stroke-width="2.48165"/>
<rect x="-81.1963" y="149.184" width="141.045" height="61.7073" transform="rotate(4.9817 -81.1963 149.184)" fill="black"/>
<line x1="1441.5" y1="337.136" x2="699.5" y2="337.136" stroke="#B3B3B3" stroke-width="8.27216"/>
<path d="M634.828 860.588V16M-26 16H1448M634.828 617.34H1448M122.613 860.588H1379.15" stroke="#B3B3B3" stroke-width="30.607"/>
</svg>
