<svg width="296" height="68" viewBox="0 0 296 68" fill="none" xmlns="http://www.w3.org/2000/svg">
<line x1="34" y1="34" x2="262" y2="34" stroke="black" stroke-width="68" stroke-linecap="round"/>
<path d="M79.625 33.275H82.375V35.75C82.425 35.7667 82.475 35.7833 82.525 35.8C82.9083 35.9667 83.325 36.1083 83.775 36.225C84.2417 36.325 84.7333 36.375 85.25 36.375C86.1833 36.375 86.9083 36.1917 87.425 35.825C87.9417 35.4417 88.2 34.9333 88.2 34.3C88.2 33.7333 87.9833 33.275 87.55 32.925C87.1333 32.575 86.6083 32.2667 85.975 32C85.3583 31.7333 84.675 31.4667 83.925 31.2C83.1917 30.9333 82.5083 30.6 81.875 30.2C81.2583 29.7833 80.7333 29.2667 80.3 28.65C79.8833 28.0333 79.675 27.2333 79.675 26.25C79.675 25.5 79.8167 24.8167 80.1 24.2C80.4 23.5667 80.8083 23.025 81.325 22.575C81.8583 22.125 82.4917 21.775 83.225 21.525C83.9583 21.275 84.775 21.15 85.675 21.15C86.6917 21.15 87.6917 21.2417 88.675 21.425C89.6583 21.6083 90.4417 21.8583 91.025 22.175V27.25H88.275V24.475C88.225 24.475 88.175 24.4667 88.125 24.45C87.7583 24.35 87.3583 24.275 86.925 24.225C86.5083 24.1583 86.0917 24.125 85.675 24.125C84.875 24.125 84.2417 24.2833 83.775 24.6C83.325 24.9167 83.1 25.3417 83.1 25.875C83.1 26.425 83.3083 26.875 83.725 27.225C84.1583 27.575 84.6833 27.8917 85.3 28.175C85.9333 28.4583 86.6167 28.7417 87.35 29.025C88.1 29.3083 88.7833 29.6583 89.4 30.075C90.0333 30.475 90.5583 30.9833 90.975 31.6C91.4083 32.2167 91.625 32.9917 91.625 33.925C91.625 34.825 91.4583 35.6167 91.125 36.3C90.7917 36.9667 90.325 37.5333 89.725 38C89.125 38.45 88.4167 38.7833 87.6 39C86.7833 39.2333 85.9 39.35 84.95 39.35C84.3167 39.35 83.725 39.3 83.175 39.2C82.6417 39.1 82.1417 38.975 81.675 38.825C81.225 38.675 80.825 38.5167 80.475 38.35C80.125 38.1833 79.8417 38.0417 79.625 37.925V33.275ZM106.34 37.675C106.124 37.875 105.84 38.075 105.49 38.275C105.157 38.4583 104.757 38.6333 104.29 38.8C103.84 38.9667 103.34 39.1 102.79 39.2C102.24 39.3 101.657 39.35 101.04 39.35C99.9736 39.35 99.0152 39.2 98.1652 38.9C97.3319 38.6 96.6236 38.1667 96.0402 37.6C95.4569 37.0167 95.0069 36.325 94.6902 35.525C94.3902 34.7083 94.2402 33.7833 94.2402 32.75C94.2402 31.65 94.4152 30.6917 94.7652 29.875C95.1152 29.0417 95.5902 28.35 96.1902 27.8C96.8069 27.25 97.5236 26.8417 98.3402 26.575C99.1569 26.2917 100.04 26.15 100.99 26.15C101.624 26.15 102.274 26.2333 102.94 26.4C103.624 26.5667 104.249 26.8583 104.815 27.275C105.382 27.675 105.84 28.2167 106.19 28.9C106.557 29.5833 106.74 30.45 106.74 31.5C106.74 32.2167 106.657 32.9917 106.49 33.825H97.4902C97.5069 34.3583 97.6152 34.8083 97.8152 35.175C98.0319 35.5417 98.3069 35.8417 98.6402 36.075C98.9902 36.3083 99.3819 36.4833 99.8152 36.6C100.265 36.7 100.74 36.75 101.24 36.75C102.24 36.75 103.057 36.6333 103.69 36.4C104.34 36.1667 104.865 35.8833 105.265 35.55L106.34 37.675ZM100.94 28.75C100.507 28.75 100.099 28.8083 99.7152 28.925C99.3319 29.0417 98.9819 29.2167 98.6652 29.45C98.3652 29.6667 98.1152 29.9417 97.9152 30.275C97.7152 30.6083 97.5986 30.9833 97.5652 31.4H103.715C103.715 30.5833 103.482 29.9417 103.015 29.475C102.565 28.9917 101.874 28.75 100.94 28.75ZM110.23 27.35C110.897 27.05 111.664 26.7917 112.53 26.575C113.414 26.3583 114.455 26.25 115.655 26.25C116.522 26.25 117.255 26.3583 117.855 26.575C118.472 26.775 118.964 27.0667 119.33 27.45C119.714 27.8333 119.989 28.2917 120.155 28.825C120.322 29.3583 120.405 29.9583 120.405 30.625C120.405 31.475 120.372 32.2 120.305 32.8C120.255 33.4 120.23 33.9333 120.23 34.4C120.23 34.75 120.247 35.1417 120.28 35.575C120.314 35.8083 120.339 36.0333 120.355 36.25H121.98V39H117.83L117.505 37.3H117.38C117.047 37.8167 116.572 38.2667 115.955 38.65C115.339 39.0167 114.505 39.2 113.455 39.2C112.205 39.2 111.214 38.8667 110.48 38.2C109.747 37.5333 109.38 36.65 109.38 35.55C109.38 34.85 109.505 34.25 109.755 33.75C110.022 33.2333 110.397 32.8167 110.88 32.5C111.38 32.1667 111.972 31.925 112.655 31.775C113.355 31.6083 114.13 31.525 114.98 31.525C115.28 31.525 115.597 31.5417 115.93 31.575C116.264 31.6083 116.672 31.6417 117.155 31.675C117.189 31.5083 117.205 31.3417 117.205 31.175V30.7C117.205 30.0667 117.022 29.6167 116.655 29.35C116.289 29.0667 115.747 28.925 115.03 28.925C114.18 28.925 113.414 29.0333 112.73 29.25C112.047 29.4667 111.472 29.6833 111.005 29.9L110.23 27.35ZM114.505 36.525C115.305 36.525 115.905 36.3833 116.305 36.1C116.705 35.8 116.997 35.4833 117.18 35.15V33.65C117.014 33.6167 116.764 33.5833 116.43 33.55C116.097 33.5 115.739 33.475 115.355 33.475C115.039 33.475 114.722 33.5083 114.405 33.575C114.089 33.625 113.805 33.7167 113.555 33.85C113.305 33.9667 113.105 34.125 112.955 34.325C112.805 34.525 112.73 34.7667 112.73 35.05C112.73 35.5167 112.864 35.8833 113.13 36.15C113.414 36.4 113.872 36.525 114.505 36.525ZM123.946 36.25H127.046V29.25H123.946V26.5H129.571L129.946 28.15H130.046C130.512 27.6 131.046 27.1417 131.646 26.775C132.246 26.4083 132.946 26.225 133.746 26.225C134.746 26.225 135.529 26.5917 136.096 27.325C136.679 28.0583 136.971 29.2833 136.971 31H134.046C134.046 30.4 133.954 29.9667 133.771 29.7C133.604 29.4167 133.329 29.275 132.946 29.275C132.279 29.275 131.737 29.4417 131.321 29.775C130.921 30.1083 130.579 30.4917 130.296 30.925V36.25H135.721V39H123.946V36.25ZM151.611 37.8C150.928 38.3167 150.128 38.7083 149.211 38.975C148.294 39.225 147.336 39.35 146.336 39.35C145.253 39.35 144.286 39.1917 143.436 38.875C142.603 38.5583 141.894 38.1167 141.311 37.55C140.744 36.9667 140.311 36.2667 140.011 35.45C139.711 34.6333 139.561 33.7333 139.561 32.75C139.561 31.7 139.736 30.7667 140.086 29.95C140.436 29.1333 140.919 28.4417 141.536 27.875C142.169 27.3083 142.911 26.8833 143.761 26.6C144.611 26.3 145.536 26.15 146.536 26.15C147.469 26.15 148.344 26.2583 149.161 26.475C149.978 26.6917 150.603 26.9 151.036 27.1V31.5H148.286V29.2C147.769 29.0833 147.253 29.025 146.736 29.025C146.269 29.025 145.803 29.1 145.336 29.25C144.886 29.3833 144.478 29.6083 144.111 29.925C143.761 30.225 143.469 30.6083 143.236 31.075C143.019 31.5417 142.911 32.1 142.911 32.75C142.911 33.2833 143.003 33.775 143.186 34.225C143.369 34.675 143.628 35.0667 143.961 35.4C144.294 35.7333 144.703 36 145.186 36.2C145.686 36.3833 146.236 36.475 146.836 36.475C147.786 36.475 148.561 36.3417 149.161 36.075C149.778 35.8083 150.236 35.575 150.536 35.375L151.611 37.8ZM152.951 21.5H158.001V27.9H158.101C158.501 27.3667 159.035 26.9417 159.701 26.625C160.368 26.3083 161.151 26.15 162.051 26.15C162.685 26.15 163.268 26.2333 163.801 26.4C164.335 26.5667 164.793 26.8417 165.176 27.225C165.56 27.6083 165.86 28.1333 166.076 28.8C166.293 29.45 166.401 30.2583 166.401 31.225V39H163.151V31.9C163.151 30.8833 162.935 30.15 162.501 29.7C162.068 29.25 161.501 29.025 160.801 29.025C160.185 29.025 159.618 29.2167 159.101 29.6C158.585 29.9667 158.218 30.4417 158.001 31.025V39H154.751V24.25H152.951V21.5Z" fill="#E2E3D6"/>
<path d="M60.1811 27.4956C60.1811 33.687 55.4357 38.4913 49.8406 38.4913C44.2454 38.4913 39.5 33.687 39.5 27.4956C39.5 21.3042 44.2454 16.5 49.8406 16.5C55.4357 16.5 60.1811 21.3042 60.1811 27.4956Z" stroke="#E2E3D6" stroke-width="5"/>
<line x1="2.5" y1="-2.5" x2="10.6432" y2="-2.5" transform="matrix(0.734737 0.678352 -0.604123 0.796891 55.3433 35.5928)" stroke="#E2E3D6" stroke-width="5" stroke-linecap="round"/>
</svg>
