<svg width="293" height="94" viewBox="0 0 293 94" fill="none" xmlns="http://www.w3.org/2000/svg">
<path d="M228.161 46.9313C228.161 32.1214 230.757 20.7162 235.949 12.7154C241.226 4.71472 249.312 0.714355 260.207 0.714355C266.165 0.714355 271.186 1.82084 275.272 4.0338C279.442 6.24677 282.804 9.39599 285.358 13.4815C287.911 17.4818 289.741 22.3333 290.848 28.036C291.954 33.6535 292.507 39.9519 292.507 46.9313C292.507 61.7411 289.869 73.1464 284.592 81.1471C279.4 89.1479 271.271 93.1482 260.207 93.1482C254.334 93.1482 249.355 92.0417 245.269 89.8288C241.184 87.6158 237.864 84.5091 235.311 80.5088C232.757 76.4233 230.927 71.5718 229.821 65.9543C228.714 60.2516 228.161 53.9106 228.161 46.9313ZM239.396 46.9313C239.396 51.8679 239.694 56.5492 240.29 60.9751C240.971 65.401 242.12 69.3163 243.737 72.7208C245.354 76.0403 247.482 78.7214 250.121 80.7641C252.759 82.7217 256.121 83.7006 260.207 83.7006C267.526 83.7006 272.846 80.7216 276.165 74.7636C279.57 68.8056 281.272 59.5282 281.272 46.9313C281.272 42.0798 280.932 37.4411 280.251 33.0151C279.655 28.5041 278.549 24.5889 276.931 21.2694C275.314 17.8648 273.144 15.1837 270.42 13.2261C267.697 11.1834 264.292 10.162 260.207 10.162C252.972 10.162 247.695 13.1836 244.375 19.2267C241.056 25.1846 239.396 34.4195 239.396 46.9313Z" fill="black"/>
<path d="M203.826 50.6339H163.737V91.6163H153.14V2.24658H163.737V41.1863H203.826V2.24658H214.422V91.6163H203.826V50.6339Z" fill="black"/>
<path d="M75.0552 46.9313C75.0552 32.1214 77.6512 20.7162 82.8431 12.7154C88.1202 4.71472 96.206 0.714355 107.101 0.714355C113.059 0.714355 118.08 1.82084 122.166 4.0338C126.336 6.24677 129.698 9.39599 132.252 13.4815C134.805 17.4818 136.635 22.3333 137.742 28.036C138.848 33.6535 139.401 39.9519 139.401 46.9313C139.401 61.7411 136.763 73.1464 131.486 81.1471C126.294 89.1479 118.165 93.1482 107.101 93.1482C101.228 93.1482 96.2486 92.0417 92.1631 89.8288C88.0776 87.6158 84.7582 84.5091 82.2048 80.5088C79.6513 76.4233 77.8214 71.5718 76.7149 65.9543C75.6084 60.2516 75.0552 53.9106 75.0552 46.9313ZM86.2902 46.9313C86.2902 51.8679 86.5881 56.5492 87.1839 60.9751C87.8648 65.401 89.0139 69.3163 90.631 72.7208C92.2482 76.0403 94.3761 78.7214 97.0146 80.7641C99.6531 82.7217 103.015 83.7006 107.101 83.7006C114.42 83.7006 119.74 80.7216 123.06 74.7636C126.464 68.8056 128.166 59.5282 128.166 46.9313C128.166 42.0798 127.826 37.4411 127.145 33.0151C126.549 28.5041 125.443 24.5889 123.826 21.2694C122.208 17.8648 120.038 15.1837 117.314 13.2261C114.591 11.1834 111.186 10.162 107.101 10.162C99.8659 10.162 94.5888 13.1836 91.2694 19.2267C87.95 25.1846 86.2902 34.4195 86.2902 46.9313Z" fill="black"/>
<path d="M50.7201 32.2493L51.9968 20.1205H51.3584L45.2302 31.1002L32.2078 52.932H29.016L15.3552 30.9726L9.48233 20.1205H8.84397L10.376 32.1216V91.6163H0.034668V2.24658H9.86534L31.0587 36.2071H31.3141L51.7415 2.24658H61.3168V91.6163H50.7201V32.2493Z" fill="black"/>
</svg>
