<svg width="1233" height="1111" viewBox="0 0 1233 1111" fill="none" xmlns="http://www.w3.org/2000/svg">
<rect x="-2.03741" y="2.57403" width="706.796" height="898.158" transform="matrix(-0.993297 0.115587 0.115587 0.993297 741.61 48.2528)" fill="#D9D9D9" stroke="black" stroke-width="4.64256"/>
<path d="M35.1102 507.863L79.8076 470.62L110.227 727.017L62.917 700.063L35.1102 507.863Z" fill="#D9D9D9" stroke="black" stroke-width="4.64256"/>
<path d="M391.021 2.8984L1064.25 208.663L794.351 1091.73L121.121 885.97L391.021 2.8984Z" fill="white" stroke="black" stroke-width="4.64256"/>
<path d="M276.148 228.516L945.974 11.9228L1230.08 890.528L560.252 1107.12L276.148 228.516Z" fill="#F5F5F5" stroke="black" stroke-width="4.64256"/>
<g filter="url(#filter0_d_732_345)">
<rect x="258" y="57.2422" width="731.84" height="949.758" rx="18.1598" fill="black"/>
</g>
<rect x="288.568" y="103.247" width="670.097" height="857.748" fill="#D9D9D9"/>
<path d="M480.037 789.186L480.037 831.677" stroke="black" stroke-width="1.99486"/>
<path d="M511.716 832.674L511.716 854.618" stroke="black" stroke-width="1.99486"/>
<path d="M544.352 832.674L479 832.674" stroke="black" stroke-width="1.99486"/>
<path d="M543.354 789.186L543.354 831.677" stroke="black" stroke-width="1.99486"/>
<path d="M633.124 789.186L633.124 831.677" stroke="black" stroke-width="1.99486"/>
<path d="M664.802 832.674L664.802 854.617" stroke="black" stroke-width="1.99486"/>
<path d="M697.438 832.674H632.086" stroke="black" stroke-width="1.99486"/>
<path d="M696.44 789.186L696.44 831.677" stroke="black" stroke-width="1.99486"/>
<path d="M620.355 694.23L620.355 651.74" stroke="black" stroke-width="1.99486"/>
<path d="M588.677 650.742L588.677 628.799" stroke="black" stroke-width="1.99486"/>
<path d="M556.041 650.742H621.393" stroke="black" stroke-width="1.99486"/>
<path d="M557.038 694.23L557.038 651.74" stroke="black" stroke-width="1.99486"/>
<path d="M772.963 692.714L772.963 650.224" stroke="black" stroke-width="1.99486"/>
<path d="M741.284 649.226L741.284 627.282" stroke="black" stroke-width="1.99486"/>
<path d="M708.648 649.226H774" stroke="black" stroke-width="1.99486"/>
<path d="M709.646 692.714L709.646 650.224" stroke="black" stroke-width="1.99486"/>
<path d="M663.881 867.306C663.881 867.672 663.813 868.025 663.677 868.366C663.55 868.706 663.358 869.008 663.103 869.272C662.847 869.536 662.532 869.749 662.158 869.911C661.783 870.072 661.349 870.153 660.856 870.153C660.396 870.153 659.979 870.081 659.604 869.936C659.23 869.791 658.907 869.587 658.634 869.323C658.362 869.051 658.149 868.719 657.996 868.328C657.851 867.936 657.779 867.498 657.779 867.012C657.779 866.212 657.894 865.455 658.124 864.74C658.362 864.025 658.69 863.395 659.107 862.85C659.532 862.306 660.034 861.863 660.613 861.523C661.2 861.182 661.843 860.978 662.541 860.91L662.72 861.727C662.183 861.795 661.69 861.952 661.239 862.199C660.796 862.446 660.409 862.753 660.077 863.119C659.745 863.485 659.473 863.889 659.26 864.331C659.056 864.774 658.924 865.225 658.864 865.685C658.932 865.574 659.03 865.459 659.158 865.34C659.294 865.221 659.451 865.119 659.63 865.034C659.817 864.94 660.022 864.863 660.243 864.804C660.473 864.744 660.719 864.714 660.983 864.714C661.434 864.714 661.839 864.778 662.196 864.906C662.554 865.025 662.856 865.2 663.103 865.429C663.358 865.651 663.55 865.923 663.677 866.246C663.813 866.561 663.881 866.915 663.881 867.306ZM662.835 867.408C662.835 866.812 662.669 866.357 662.337 866.042C662.005 865.727 661.494 865.57 660.805 865.57C660.558 865.57 660.328 865.6 660.115 865.659C659.902 865.719 659.711 865.8 659.541 865.902C659.37 865.995 659.221 866.106 659.094 866.234C658.966 866.361 658.868 866.489 658.8 866.617C658.783 866.736 658.775 866.83 658.775 866.898C658.775 866.966 658.775 867.047 658.775 867.14C658.775 867.396 658.817 867.655 658.902 867.919C658.987 868.174 659.115 868.404 659.285 868.608C659.464 868.813 659.685 868.979 659.949 869.106C660.213 869.234 660.524 869.298 660.881 869.298C661.171 869.298 661.434 869.247 661.673 869.145C661.911 869.042 662.115 868.906 662.286 868.736C662.464 868.566 662.601 868.366 662.694 868.136C662.788 867.906 662.835 867.664 662.835 867.408ZM667.924 869.26C668.247 869.26 668.545 869.221 668.817 869.145C669.09 869.059 669.32 868.936 669.507 868.774C669.703 868.604 669.851 868.396 669.954 868.149C670.064 867.902 670.12 867.613 670.12 867.281C670.12 866.668 669.898 866.204 669.456 865.889C669.022 865.566 668.426 865.404 667.668 865.404L666.468 865.468V861.063H670.847V861.982H667.426V864.574L668.064 864.548C669.009 864.548 669.754 864.778 670.298 865.238C670.843 865.697 671.115 866.353 671.115 867.204C671.115 867.681 671.03 868.102 670.86 868.468C670.698 868.834 670.473 869.145 670.183 869.4C669.894 869.647 669.549 869.834 669.149 869.962C668.758 870.089 668.328 870.153 667.86 870.153C667.604 870.153 667.362 870.132 667.132 870.089C666.902 870.055 666.694 870.013 666.507 869.962C666.319 869.902 666.153 869.843 666.009 869.783C665.872 869.715 665.775 869.655 665.715 869.604L666.123 868.774C666.268 868.859 666.489 868.962 666.787 869.081C667.085 869.2 667.464 869.26 667.924 869.26Z" fill="black"/>
<path d="M739.881 618.306C739.881 618.672 739.813 619.025 739.677 619.366C739.55 619.706 739.358 620.008 739.103 620.272C738.847 620.536 738.532 620.749 738.158 620.911C737.783 621.072 737.349 621.153 736.856 621.153C736.396 621.153 735.979 621.081 735.604 620.936C735.23 620.791 734.907 620.587 734.634 620.323C734.362 620.051 734.149 619.719 733.996 619.328C733.851 618.936 733.779 618.498 733.779 618.012C733.779 617.212 733.894 616.455 734.124 615.74C734.362 615.025 734.69 614.395 735.107 613.85C735.532 613.306 736.034 612.863 736.613 612.523C737.2 612.182 737.843 611.978 738.541 611.91L738.72 612.727C738.183 612.795 737.69 612.952 737.239 613.199C736.796 613.446 736.409 613.753 736.077 614.119C735.745 614.485 735.473 614.889 735.26 615.331C735.056 615.774 734.924 616.225 734.864 616.685C734.932 616.574 735.03 616.459 735.158 616.34C735.294 616.221 735.451 616.119 735.63 616.034C735.817 615.94 736.022 615.863 736.243 615.804C736.473 615.744 736.719 615.714 736.983 615.714C737.434 615.714 737.839 615.778 738.196 615.906C738.554 616.025 738.856 616.2 739.103 616.429C739.358 616.651 739.55 616.923 739.677 617.246C739.813 617.561 739.881 617.915 739.881 618.306ZM738.835 618.408C738.835 617.812 738.669 617.357 738.337 617.042C738.005 616.727 737.494 616.57 736.805 616.57C736.558 616.57 736.328 616.6 736.115 616.659C735.902 616.719 735.711 616.8 735.541 616.902C735.37 616.995 735.221 617.106 735.094 617.234C734.966 617.361 734.868 617.489 734.8 617.617C734.783 617.736 734.775 617.83 734.775 617.898C734.775 617.966 734.775 618.047 734.775 618.14C734.775 618.396 734.817 618.655 734.902 618.919C734.987 619.174 735.115 619.404 735.285 619.608C735.464 619.813 735.685 619.979 735.949 620.106C736.213 620.234 736.524 620.298 736.881 620.298C737.171 620.298 737.434 620.247 737.673 620.145C737.911 620.042 738.115 619.906 738.286 619.736C738.464 619.566 738.601 619.366 738.694 619.136C738.788 618.906 738.835 618.664 738.835 618.408ZM743.924 620.26C744.247 620.26 744.545 620.221 744.817 620.145C745.09 620.059 745.32 619.936 745.507 619.774C745.703 619.604 745.851 619.396 745.954 619.149C746.064 618.902 746.12 618.613 746.12 618.281C746.12 617.668 745.898 617.204 745.456 616.889C745.022 616.566 744.426 616.404 743.668 616.404L742.468 616.468V612.063H746.847V612.982H743.426V615.574L744.064 615.548C745.009 615.548 745.754 615.778 746.298 616.238C746.843 616.697 747.115 617.353 747.115 618.204C747.115 618.681 747.03 619.102 746.86 619.468C746.698 619.834 746.473 620.145 746.183 620.4C745.894 620.647 745.549 620.834 745.149 620.962C744.758 621.089 744.328 621.153 743.86 621.153C743.604 621.153 743.362 621.132 743.132 621.089C742.902 621.055 742.694 621.013 742.507 620.962C742.319 620.902 742.153 620.843 742.009 620.783C741.872 620.715 741.775 620.655 741.715 620.604L742.123 619.774C742.268 619.859 742.489 619.962 742.787 620.081C743.085 620.2 743.464 620.26 743.924 620.26Z" fill="black"/>
<path d="M586.881 618.306C586.881 618.672 586.813 619.025 586.677 619.366C586.55 619.706 586.358 620.008 586.103 620.272C585.847 620.536 585.532 620.749 585.158 620.911C584.783 621.072 584.349 621.153 583.856 621.153C583.396 621.153 582.979 621.081 582.604 620.936C582.23 620.791 581.907 620.587 581.634 620.323C581.362 620.051 581.149 619.719 580.996 619.328C580.851 618.936 580.779 618.498 580.779 618.012C580.779 617.212 580.894 616.455 581.124 615.74C581.362 615.025 581.69 614.395 582.107 613.85C582.532 613.306 583.034 612.863 583.613 612.523C584.2 612.182 584.843 611.978 585.541 611.91L585.72 612.727C585.183 612.795 584.69 612.952 584.239 613.199C583.796 613.446 583.409 613.753 583.077 614.119C582.745 614.485 582.473 614.889 582.26 615.331C582.056 615.774 581.924 616.225 581.864 616.685C581.932 616.574 582.03 616.459 582.158 616.34C582.294 616.221 582.451 616.119 582.63 616.034C582.817 615.94 583.022 615.863 583.243 615.804C583.473 615.744 583.719 615.714 583.983 615.714C584.434 615.714 584.839 615.778 585.196 615.906C585.554 616.025 585.856 616.2 586.103 616.429C586.358 616.651 586.55 616.923 586.677 617.246C586.813 617.561 586.881 617.915 586.881 618.306ZM585.835 618.408C585.835 617.812 585.669 617.357 585.337 617.042C585.005 616.727 584.494 616.57 583.805 616.57C583.558 616.57 583.328 616.6 583.115 616.659C582.902 616.719 582.711 616.8 582.541 616.902C582.37 616.995 582.221 617.106 582.094 617.234C581.966 617.361 581.868 617.489 581.8 617.617C581.783 617.736 581.775 617.83 581.775 617.898C581.775 617.966 581.775 618.047 581.775 618.14C581.775 618.396 581.817 618.655 581.902 618.919C581.987 619.174 582.115 619.404 582.285 619.608C582.464 619.813 582.685 619.979 582.949 620.106C583.213 620.234 583.524 620.298 583.881 620.298C584.171 620.298 584.434 620.247 584.673 620.145C584.911 620.042 585.115 619.906 585.286 619.736C585.464 619.566 585.601 619.366 585.694 619.136C585.788 618.906 585.835 618.664 585.835 618.408ZM590.924 620.26C591.247 620.26 591.545 620.221 591.817 620.145C592.09 620.059 592.32 619.936 592.507 619.774C592.703 619.604 592.851 619.396 592.954 619.149C593.064 618.902 593.12 618.613 593.12 618.281C593.12 617.668 592.898 617.204 592.456 616.889C592.022 616.566 591.426 616.404 590.668 616.404L589.468 616.468V612.063H593.847V612.982H590.426V615.574L591.064 615.548C592.009 615.548 592.754 615.778 593.298 616.238C593.843 616.697 594.115 617.353 594.115 618.204C594.115 618.681 594.03 619.102 593.86 619.468C593.698 619.834 593.473 620.145 593.183 620.4C592.894 620.647 592.549 620.834 592.149 620.962C591.758 621.089 591.328 621.153 590.86 621.153C590.604 621.153 590.362 621.132 590.132 621.089C589.902 621.055 589.694 621.013 589.507 620.962C589.319 620.902 589.153 620.843 589.009 620.783C588.872 620.715 588.775 620.655 588.715 620.604L589.123 619.774C589.268 619.859 589.489 619.962 589.787 620.081C590.085 620.2 590.464 620.26 590.924 620.26Z" fill="black"/>
<path d="M510.881 867.306C510.881 867.672 510.813 868.025 510.677 868.366C510.55 868.706 510.358 869.008 510.103 869.272C509.847 869.536 509.532 869.749 509.158 869.911C508.783 870.072 508.349 870.153 507.856 870.153C507.396 870.153 506.979 870.081 506.604 869.936C506.23 869.791 505.907 869.587 505.634 869.323C505.362 869.051 505.149 868.719 504.996 868.328C504.851 867.936 504.779 867.498 504.779 867.012C504.779 866.212 504.894 865.455 505.124 864.74C505.362 864.025 505.69 863.395 506.107 862.85C506.532 862.306 507.034 861.863 507.613 861.523C508.2 861.182 508.843 860.978 509.541 860.91L509.72 861.727C509.183 861.795 508.69 861.952 508.239 862.199C507.796 862.446 507.409 862.753 507.077 863.119C506.745 863.485 506.473 863.889 506.26 864.331C506.056 864.774 505.924 865.225 505.864 865.685C505.932 865.574 506.03 865.459 506.158 865.34C506.294 865.221 506.451 865.119 506.63 865.034C506.817 864.94 507.022 864.863 507.243 864.804C507.473 864.744 507.719 864.714 507.983 864.714C508.434 864.714 508.839 864.778 509.196 864.906C509.554 865.025 509.856 865.2 510.103 865.429C510.358 865.651 510.55 865.923 510.677 866.246C510.813 866.561 510.881 866.915 510.881 867.306ZM509.835 867.408C509.835 866.812 509.669 866.357 509.337 866.042C509.005 865.727 508.494 865.57 507.805 865.57C507.558 865.57 507.328 865.6 507.115 865.659C506.902 865.719 506.711 865.8 506.541 865.902C506.37 865.995 506.221 866.106 506.094 866.234C505.966 866.361 505.868 866.489 505.8 866.617C505.783 866.736 505.775 866.83 505.775 866.898C505.775 866.966 505.775 867.047 505.775 867.14C505.775 867.396 505.817 867.655 505.902 867.919C505.987 868.174 506.115 868.404 506.285 868.608C506.464 868.813 506.685 868.979 506.949 869.106C507.213 869.234 507.524 869.298 507.881 869.298C508.171 869.298 508.434 869.247 508.673 869.145C508.911 869.042 509.115 868.906 509.286 868.736C509.464 868.566 509.601 868.366 509.694 868.136C509.788 867.906 509.835 867.664 509.835 867.408ZM514.924 869.26C515.247 869.26 515.545 869.221 515.817 869.145C516.09 869.059 516.32 868.936 516.507 868.774C516.703 868.604 516.851 868.396 516.954 868.149C517.064 867.902 517.12 867.613 517.12 867.281C517.12 866.668 516.898 866.204 516.456 865.889C516.022 865.566 515.426 865.404 514.668 865.404L513.468 865.468V861.063H517.847V861.982H514.426V864.574L515.064 864.548C516.009 864.548 516.754 864.778 517.298 865.238C517.843 865.697 518.115 866.353 518.115 867.204C518.115 867.681 518.03 868.102 517.86 868.468C517.698 868.834 517.473 869.145 517.183 869.4C516.894 869.647 516.549 869.834 516.149 869.962C515.758 870.089 515.328 870.153 514.86 870.153C514.604 870.153 514.362 870.132 514.132 870.089C513.902 870.055 513.694 870.013 513.507 869.962C513.319 869.902 513.153 869.843 513.009 869.783C512.872 869.715 512.775 869.655 512.715 869.604L513.123 868.774C513.268 868.859 513.489 868.962 513.787 869.081C514.085 869.2 514.464 869.26 514.924 869.26Z" fill="black"/>
<ellipse cx="624.516" cy="42.4116" rx="40.8596" ry="35.4116" fill="#B3B3B3"/>
<ellipse cx="624.516" cy="42.4116" rx="40.8596" ry="35.4116" fill="#B3B3B3"/>
<ellipse cx="624.516" cy="42.4116" rx="40.8596" ry="35.4116" fill="#B3B3B3"/>
<ellipse cx="624.328" cy="49.9783" rx="27.5424" ry="27.845" fill="#E2E3D6"/>
<g filter="url(#filter1_d_732_345)">
<rect x="466.733" y="42.1089" width="313.559" height="78.0872" fill="#B3B3B3"/>
</g>
<defs>
<filter id="filter0_d_732_345" x="233.787" y="57.2422" width="756.053" height="969.734" filterUnits="userSpaceOnUse" color-interpolation-filters="sRGB">
<feFlood flood-opacity="0" result="BackgroundImageFix"/>
<feColorMatrix in="SourceAlpha" type="matrix" values="0 0 0 0 0 0 0 0 0 0 0 0 0 0 0 0 0 0 127 0" result="hardAlpha"/>
<feOffset dx="-21.7918" dy="17.5545"/>
<feGaussianBlur stdDeviation="1.21065"/>
<feComposite in2="hardAlpha" operator="out"/>
<feColorMatrix type="matrix" values="0 0 0 0 0 0 0 0 0 0 0 0 0 0 0 0 0 0 0.25 0"/>
<feBlend mode="normal" in2="BackgroundImageFix" result="effect1_dropShadow_732_345"/>
<feBlend mode="normal" in="SourceGraphic" in2="effect1_dropShadow_732_345" result="shape"/>
</filter>
<filter id="filter1_d_732_345" x="450.995" y="42.1089" width="329.298" height="92.0099" filterUnits="userSpaceOnUse" color-interpolation-filters="sRGB">
<feFlood flood-opacity="0" result="BackgroundImageFix"/>
<feColorMatrix in="SourceAlpha" type="matrix" values="0 0 0 0 0 0 0 0 0 0 0 0 0 0 0 0 0 0 127 0" result="hardAlpha"/>
<feOffset dx="-13.3172" dy="11.5012"/>
<feGaussianBlur stdDeviation="1.21065"/>
<feComposite in2="hardAlpha" operator="out"/>
<feColorMatrix type="matrix" values="0 0 0 0 0 0 0 0 0 0 0 0 0 0 0 0 0 0 0.25 0"/>
<feBlend mode="normal" in2="BackgroundImageFix" result="effect1_dropShadow_732_345"/>
<feBlend mode="normal" in="SourceGraphic" in2="effect1_dropShadow_732_345" result="shape"/>
</filter>
</defs>
</svg>
