<svg width="1233" height="1111" viewBox="0 0 1233 1111" fill="none" xmlns="http://www.w3.org/2000/svg">
<rect x="-2.03741" y="2.57403" width="706.796" height="898.158" transform="matrix(-0.993297 0.115587 0.115587 0.993297 741.385 48.2528)" fill="#D9D9D9" stroke="black" stroke-width="4.64256"/>
<path d="M34.8846 507.863L79.582 470.62L110.001 727.017L62.6914 700.063L34.8846 507.863Z" fill="#D9D9D9" stroke="black" stroke-width="4.64256"/>
<path d="M390.795 2.8984L1064.03 208.663L794.126 1091.73L120.895 885.97L390.795 2.8984Z" fill="white" stroke="black" stroke-width="4.64256"/>
<path d="M275.922 228.516L945.748 11.9228L1229.85 890.528L560.026 1107.12L275.922 228.516Z" fill="#F5F5F5" stroke="black" stroke-width="4.64256"/>
<g filter="url(#filter0_d_2001_2)">
<rect x="300" y="57.2422" width="731.84" height="949.758" rx="18.1598" fill="black"/>
</g>
<rect x="330.568" y="103.247" width="670.097" height="857.748" fill="#D9D9D9"/>
<path d="M522.037 789.186L522.037 831.677" stroke="black" stroke-width="1.99486"/>
<path d="M553.716 832.674L553.716 854.618" stroke="black" stroke-width="1.99486"/>
<path d="M586.352 832.674L521 832.674" stroke="black" stroke-width="1.99486"/>
<path d="M585.354 789.186L585.354 831.677" stroke="black" stroke-width="1.99486"/>
<path d="M675.124 789.186L675.124 831.677" stroke="black" stroke-width="1.99486"/>
<path d="M706.801 832.674L706.801 854.617" stroke="black" stroke-width="1.99486"/>
<path d="M739.437 832.674H674.085" stroke="black" stroke-width="1.99486"/>
<path d="M738.44 789.186L738.44 831.677" stroke="black" stroke-width="1.99486"/>
<path d="M662.356 694.23L662.356 651.74" stroke="black" stroke-width="1.99486"/>
<path d="M630.677 650.742L630.677 628.799" stroke="black" stroke-width="1.99486"/>
<path d="M598.042 650.742H663.393" stroke="black" stroke-width="1.99486"/>
<path d="M599.039 694.23L599.039 651.74" stroke="black" stroke-width="1.99486"/>
<path d="M814.963 692.714L814.963 650.224" stroke="black" stroke-width="1.99486"/>
<path d="M783.284 649.226L783.284 627.282" stroke="black" stroke-width="1.99486"/>
<path d="M750.648 649.226H816" stroke="black" stroke-width="1.99486"/>
<path d="M751.646 692.714L751.646 650.224" stroke="black" stroke-width="1.99486"/>
<path d="M705.881 867.306C705.881 867.672 705.813 868.025 705.677 868.366C705.55 868.706 705.358 869.008 705.103 869.272C704.847 869.536 704.532 869.749 704.158 869.911C703.783 870.072 703.349 870.153 702.856 870.153C702.396 870.153 701.979 870.081 701.604 869.936C701.23 869.791 700.907 869.587 700.634 869.323C700.362 869.051 700.149 868.719 699.996 868.328C699.851 867.936 699.779 867.498 699.779 867.012C699.779 866.212 699.894 865.455 700.124 864.74C700.362 864.025 700.69 863.395 701.107 862.85C701.532 862.306 702.034 861.863 702.613 861.523C703.2 861.182 703.843 860.978 704.541 860.91L704.72 861.727C704.183 861.795 703.69 861.952 703.239 862.199C702.796 862.446 702.409 862.753 702.077 863.119C701.745 863.485 701.473 863.889 701.26 864.331C701.056 864.774 700.924 865.225 700.864 865.685C700.932 865.574 701.03 865.459 701.158 865.34C701.294 865.221 701.451 865.119 701.63 865.034C701.817 864.94 702.022 864.863 702.243 864.804C702.473 864.744 702.719 864.714 702.983 864.714C703.434 864.714 703.839 864.778 704.196 864.906C704.554 865.025 704.856 865.2 705.103 865.429C705.358 865.651 705.55 865.923 705.677 866.246C705.813 866.561 705.881 866.915 705.881 867.306ZM704.835 867.408C704.835 866.812 704.669 866.357 704.337 866.042C704.005 865.727 703.494 865.57 702.805 865.57C702.558 865.57 702.328 865.6 702.115 865.659C701.902 865.719 701.711 865.8 701.541 865.902C701.37 865.995 701.221 866.106 701.094 866.234C700.966 866.361 700.868 866.489 700.8 866.617C700.783 866.736 700.775 866.83 700.775 866.898C700.775 866.966 700.775 867.047 700.775 867.14C700.775 867.396 700.817 867.655 700.902 867.919C700.987 868.174 701.115 868.404 701.285 868.608C701.464 868.813 701.685 868.979 701.949 869.106C702.213 869.234 702.524 869.298 702.881 869.298C703.171 869.298 703.434 869.247 703.673 869.145C703.911 869.042 704.115 868.906 704.286 868.736C704.464 868.566 704.601 868.366 704.694 868.136C704.788 867.906 704.835 867.664 704.835 867.408ZM709.924 869.26C710.247 869.26 710.545 869.221 710.817 869.145C711.09 869.059 711.32 868.936 711.507 868.774C711.703 868.604 711.851 868.396 711.954 868.149C712.064 867.902 712.12 867.613 712.12 867.281C712.12 866.668 711.898 866.204 711.456 865.889C711.022 865.566 710.426 865.404 709.668 865.404L708.468 865.468V861.063H712.847V861.982H709.426V864.574L710.064 864.548C711.009 864.548 711.754 864.778 712.298 865.238C712.843 865.697 713.115 866.353 713.115 867.204C713.115 867.681 713.03 868.102 712.86 868.468C712.698 868.834 712.473 869.145 712.183 869.4C711.894 869.647 711.549 869.834 711.149 869.962C710.758 870.089 710.328 870.153 709.86 870.153C709.604 870.153 709.362 870.132 709.132 870.089C708.902 870.055 708.694 870.013 708.507 869.962C708.319 869.902 708.153 869.843 708.009 869.783C707.872 869.715 707.775 869.655 707.715 869.604L708.123 868.774C708.268 868.859 708.489 868.962 708.787 869.081C709.085 869.2 709.464 869.26 709.924 869.26Z" fill="black"/>
<path d="M781.881 618.306C781.881 618.672 781.813 619.025 781.677 619.366C781.55 619.706 781.358 620.008 781.103 620.272C780.847 620.536 780.532 620.749 780.158 620.911C779.783 621.072 779.349 621.153 778.856 621.153C778.396 621.153 777.979 621.081 777.604 620.936C777.23 620.791 776.907 620.587 776.634 620.323C776.362 620.051 776.149 619.719 775.996 619.328C775.851 618.936 775.779 618.498 775.779 618.012C775.779 617.212 775.894 616.455 776.124 615.74C776.362 615.025 776.69 614.395 777.107 613.85C777.532 613.306 778.034 612.863 778.613 612.523C779.2 612.182 779.843 611.978 780.541 611.91L780.72 612.727C780.183 612.795 779.69 612.952 779.239 613.199C778.796 613.446 778.409 613.753 778.077 614.119C777.745 614.485 777.473 614.889 777.26 615.331C777.056 615.774 776.924 616.225 776.864 616.685C776.932 616.574 777.03 616.459 777.158 616.34C777.294 616.221 777.451 616.119 777.63 616.034C777.817 615.94 778.022 615.863 778.243 615.804C778.473 615.744 778.719 615.714 778.983 615.714C779.434 615.714 779.839 615.778 780.196 615.906C780.554 616.025 780.856 616.2 781.103 616.429C781.358 616.651 781.55 616.923 781.677 617.246C781.813 617.561 781.881 617.915 781.881 618.306ZM780.835 618.408C780.835 617.812 780.669 617.357 780.337 617.042C780.005 616.727 779.494 616.57 778.805 616.57C778.558 616.57 778.328 616.6 778.115 616.659C777.902 616.719 777.711 616.8 777.541 616.902C777.37 616.995 777.221 617.106 777.094 617.234C776.966 617.361 776.868 617.489 776.8 617.617C776.783 617.736 776.775 617.83 776.775 617.898C776.775 617.966 776.775 618.047 776.775 618.14C776.775 618.396 776.817 618.655 776.902 618.919C776.987 619.174 777.115 619.404 777.285 619.608C777.464 619.813 777.685 619.979 777.949 620.106C778.213 620.234 778.524 620.298 778.881 620.298C779.171 620.298 779.434 620.247 779.673 620.145C779.911 620.042 780.115 619.906 780.286 619.736C780.464 619.566 780.601 619.366 780.694 619.136C780.788 618.906 780.835 618.664 780.835 618.408ZM785.924 620.26C786.247 620.26 786.545 620.221 786.817 620.145C787.09 620.059 787.32 619.936 787.507 619.774C787.703 619.604 787.851 619.396 787.954 619.149C788.064 618.902 788.12 618.613 788.12 618.281C788.12 617.668 787.898 617.204 787.456 616.889C787.022 616.566 786.426 616.404 785.668 616.404L784.468 616.468V612.063H788.847V612.982H785.426V615.574L786.064 615.548C787.009 615.548 787.754 615.778 788.298 616.238C788.843 616.697 789.115 617.353 789.115 618.204C789.115 618.681 789.03 619.102 788.86 619.468C788.698 619.834 788.473 620.145 788.183 620.4C787.894 620.647 787.549 620.834 787.149 620.962C786.758 621.089 786.328 621.153 785.86 621.153C785.604 621.153 785.362 621.132 785.132 621.089C784.902 621.055 784.694 621.013 784.507 620.962C784.319 620.902 784.153 620.843 784.009 620.783C783.872 620.715 783.775 620.655 783.715 620.604L784.123 619.774C784.268 619.859 784.489 619.962 784.787 620.081C785.085 620.2 785.464 620.26 785.924 620.26Z" fill="black"/>
<path d="M628.881 618.306C628.881 618.672 628.813 619.025 628.677 619.366C628.55 619.706 628.358 620.008 628.103 620.272C627.847 620.536 627.532 620.749 627.158 620.911C626.783 621.072 626.349 621.153 625.856 621.153C625.396 621.153 624.979 621.081 624.604 620.936C624.23 620.791 623.907 620.587 623.634 620.323C623.362 620.051 623.149 619.719 622.996 619.328C622.851 618.936 622.779 618.498 622.779 618.012C622.779 617.212 622.894 616.455 623.124 615.74C623.362 615.025 623.69 614.395 624.107 613.85C624.532 613.306 625.034 612.863 625.613 612.523C626.2 612.182 626.843 611.978 627.541 611.91L627.72 612.727C627.183 612.795 626.69 612.952 626.239 613.199C625.796 613.446 625.409 613.753 625.077 614.119C624.745 614.485 624.473 614.889 624.26 615.331C624.056 615.774 623.924 616.225 623.864 616.685C623.932 616.574 624.03 616.459 624.158 616.34C624.294 616.221 624.451 616.119 624.63 616.034C624.817 615.94 625.022 615.863 625.243 615.804C625.473 615.744 625.719 615.714 625.983 615.714C626.434 615.714 626.839 615.778 627.196 615.906C627.554 616.025 627.856 616.2 628.103 616.429C628.358 616.651 628.55 616.923 628.677 617.246C628.813 617.561 628.881 617.915 628.881 618.306ZM627.835 618.408C627.835 617.812 627.669 617.357 627.337 617.042C627.005 616.727 626.494 616.57 625.805 616.57C625.558 616.57 625.328 616.6 625.115 616.659C624.902 616.719 624.711 616.8 624.541 616.902C624.37 616.995 624.221 617.106 624.094 617.234C623.966 617.361 623.868 617.489 623.8 617.617C623.783 617.736 623.775 617.83 623.775 617.898C623.775 617.966 623.775 618.047 623.775 618.14C623.775 618.396 623.817 618.655 623.902 618.919C623.987 619.174 624.115 619.404 624.285 619.608C624.464 619.813 624.685 619.979 624.949 620.106C625.213 620.234 625.524 620.298 625.881 620.298C626.171 620.298 626.434 620.247 626.673 620.145C626.911 620.042 627.115 619.906 627.286 619.736C627.464 619.566 627.601 619.366 627.694 619.136C627.788 618.906 627.835 618.664 627.835 618.408ZM632.924 620.26C633.247 620.26 633.545 620.221 633.817 620.145C634.09 620.059 634.32 619.936 634.507 619.774C634.703 619.604 634.851 619.396 634.954 619.149C635.064 618.902 635.12 618.613 635.12 618.281C635.12 617.668 634.898 617.204 634.456 616.889C634.022 616.566 633.426 616.404 632.668 616.404L631.468 616.468V612.063H635.847V612.982H632.426V615.574L633.064 615.548C634.009 615.548 634.754 615.778 635.298 616.238C635.843 616.697 636.115 617.353 636.115 618.204C636.115 618.681 636.03 619.102 635.86 619.468C635.698 619.834 635.473 620.145 635.183 620.4C634.894 620.647 634.549 620.834 634.149 620.962C633.758 621.089 633.328 621.153 632.86 621.153C632.604 621.153 632.362 621.132 632.132 621.089C631.902 621.055 631.694 621.013 631.507 620.962C631.319 620.902 631.153 620.843 631.009 620.783C630.872 620.715 630.775 620.655 630.715 620.604L631.123 619.774C631.268 619.859 631.489 619.962 631.787 620.081C632.085 620.2 632.464 620.26 632.924 620.26Z" fill="black"/>
<path d="M552.881 867.306C552.881 867.672 552.813 868.025 552.677 868.366C552.55 868.706 552.358 869.008 552.103 869.272C551.847 869.536 551.532 869.749 551.158 869.911C550.783 870.072 550.349 870.153 549.856 870.153C549.396 870.153 548.979 870.081 548.604 869.936C548.23 869.791 547.907 869.587 547.634 869.323C547.362 869.051 547.149 868.719 546.996 868.328C546.851 867.936 546.779 867.498 546.779 867.012C546.779 866.212 546.894 865.455 547.124 864.74C547.362 864.025 547.69 863.395 548.107 862.85C548.532 862.306 549.034 861.863 549.613 861.523C550.2 861.182 550.843 860.978 551.541 860.91L551.72 861.727C551.183 861.795 550.69 861.952 550.239 862.199C549.796 862.446 549.409 862.753 549.077 863.119C548.745 863.485 548.473 863.889 548.26 864.331C548.056 864.774 547.924 865.225 547.864 865.685C547.932 865.574 548.03 865.459 548.158 865.34C548.294 865.221 548.451 865.119 548.63 865.034C548.817 864.94 549.022 864.863 549.243 864.804C549.473 864.744 549.719 864.714 549.983 864.714C550.434 864.714 550.839 864.778 551.196 864.906C551.554 865.025 551.856 865.2 552.103 865.429C552.358 865.651 552.55 865.923 552.677 866.246C552.813 866.561 552.881 866.915 552.881 867.306ZM551.835 867.408C551.835 866.812 551.669 866.357 551.337 866.042C551.005 865.727 550.494 865.57 549.805 865.57C549.558 865.57 549.328 865.6 549.115 865.659C548.902 865.719 548.711 865.8 548.541 865.902C548.37 865.995 548.221 866.106 548.094 866.234C547.966 866.361 547.868 866.489 547.8 866.617C547.783 866.736 547.775 866.83 547.775 866.898C547.775 866.966 547.775 867.047 547.775 867.14C547.775 867.396 547.817 867.655 547.902 867.919C547.987 868.174 548.115 868.404 548.285 868.608C548.464 868.813 548.685 868.979 548.949 869.106C549.213 869.234 549.524 869.298 549.881 869.298C550.171 869.298 550.434 869.247 550.673 869.145C550.911 869.042 551.115 868.906 551.286 868.736C551.464 868.566 551.601 868.366 551.694 868.136C551.788 867.906 551.835 867.664 551.835 867.408ZM556.924 869.26C557.247 869.26 557.545 869.221 557.817 869.145C558.09 869.059 558.32 868.936 558.507 868.774C558.703 868.604 558.851 868.396 558.954 868.149C559.064 867.902 559.12 867.613 559.12 867.281C559.12 866.668 558.898 866.204 558.456 865.889C558.022 865.566 557.426 865.404 556.668 865.404L555.468 865.468V861.063H559.847V861.982H556.426V864.574L557.064 864.548C558.009 864.548 558.754 864.778 559.298 865.238C559.843 865.697 560.115 866.353 560.115 867.204C560.115 867.681 560.03 868.102 559.86 868.468C559.698 868.834 559.473 869.145 559.183 869.4C558.894 869.647 558.549 869.834 558.149 869.962C557.758 870.089 557.328 870.153 556.86 870.153C556.604 870.153 556.362 870.132 556.132 870.089C555.902 870.055 555.694 870.013 555.507 869.962C555.319 869.902 555.153 869.843 555.009 869.783C554.872 869.715 554.775 869.655 554.715 869.604L555.123 868.774C555.268 868.859 555.489 868.962 555.787 869.081C556.085 869.2 556.464 869.26 556.924 869.26Z" fill="black"/>
<ellipse cx="666.515" cy="42.4116" rx="40.8596" ry="35.4116" fill="#B3B3B3"/>
<ellipse cx="666.515" cy="42.4116" rx="40.8596" ry="35.4116" fill="#B3B3B3"/>
<ellipse cx="666.515" cy="42.4116" rx="40.8596" ry="35.4116" fill="#B3B3B3"/>
<ellipse cx="666.327" cy="49.9783" rx="27.5424" ry="27.845" fill="#E2E3D6"/>
<g filter="url(#filter1_d_2001_2)">
<rect x="508.733" y="42.1089" width="313.559" height="78.0872" fill="#B3B3B3"/>
</g>
<defs>
<filter id="filter0_d_2001_2" x="275.787" y="57.2422" width="756.053" height="969.734" filterUnits="userSpaceOnUse" color-interpolation-filters="sRGB">
<feFlood flood-opacity="0" result="BackgroundImageFix"/>
<feColorMatrix in="SourceAlpha" type="matrix" values="0 0 0 0 0 0 0 0 0 0 0 0 0 0 0 0 0 0 127 0" result="hardAlpha"/>
<feOffset dx="-21.7918" dy="17.5545"/>
<feGaussianBlur stdDeviation="1.21065"/>
<feComposite in2="hardAlpha" operator="out"/>
<feColorMatrix type="matrix" values="0 0 0 0 0 0 0 0 0 0 0 0 0 0 0 0 0 0 0.25 0"/>
<feBlend mode="normal" in2="BackgroundImageFix" result="effect1_dropShadow_2001_2"/>
<feBlend mode="normal" in="SourceGraphic" in2="effect1_dropShadow_2001_2" result="shape"/>
</filter>
<filter id="filter1_d_2001_2" x="492.995" y="42.1089" width="329.298" height="92.0099" filterUnits="userSpaceOnUse" color-interpolation-filters="sRGB">
<feFlood flood-opacity="0" result="BackgroundImageFix"/>
<feColorMatrix in="SourceAlpha" type="matrix" values="0 0 0 0 0 0 0 0 0 0 0 0 0 0 0 0 0 0 127 0" result="hardAlpha"/>
<feOffset dx="-13.3172" dy="11.5012"/>
<feGaussianBlur stdDeviation="1.21065"/>
<feComposite in2="hardAlpha" operator="out"/>
<feColorMatrix type="matrix" values="0 0 0 0 0 0 0 0 0 0 0 0 0 0 0 0 0 0 0.25 0"/>
<feBlend mode="normal" in2="BackgroundImageFix" result="effect1_dropShadow_2001_2"/>
<feBlend mode="normal" in="SourceGraphic" in2="effect1_dropShadow_2001_2" result="shape"/>
</filter>
</defs>
</svg>
