<svg width="15" height="15" viewBox="0 0 15 15" fill="none" xmlns="http://www.w3.org/2000/svg">
<mask id="path-1-outside-1_794_4" maskUnits="userSpaceOnUse" x="-1" y="-1" width="17" height="17" fill="black">
<rect fill="white" x="-1" y="-1" width="17" height="17"/>
<path d="M14.6 5.74286H9.11429V0.0571426H5.77143V5.74286H0.257144V8.94286H5.77143V14.6857H9.11429V8.94286H14.6V5.74286Z"/>
</mask>
<path d="M14.6 5.74286H9.11429V0.0571426H5.77143V5.74286H0.257144V8.94286H5.77143V14.6857H9.11429V8.94286H14.6V5.74286Z" fill="#FF6F6A"/>
<path d="M14.6 5.74286V4.88571H15.4571V5.74286H14.6ZM9.11429 5.74286V6.6H8.25714V5.74286H9.11429ZM9.11429 0.0571426V-0.8H9.97143V0.0571426H9.11429ZM5.77143 0.0571426H4.91429V-0.8H5.77143V0.0571426ZM5.77143 5.74286H6.62857V6.6H5.77143V5.74286ZM0.257144 5.74286H-0.599999V4.88571H0.257144V5.74286ZM0.257144 8.94286V9.8H-0.599999V8.94286H0.257144ZM5.77143 8.94286V8.08571H6.62857V8.94286H5.77143ZM5.77143 14.6857V15.5429H4.91429V14.6857H5.77143ZM9.11429 14.6857H9.97143V15.5429H9.11429V14.6857ZM9.11429 8.94286H8.25714V8.08571H9.11429V8.94286ZM14.6 8.94286H15.4571V9.8H14.6V8.94286ZM14.6 6.6H9.11429V4.88571H14.6V6.6ZM8.25714 5.74286V0.0571426H9.97143V5.74286H8.25714ZM9.11429 0.914285H5.77143V-0.8H9.11429V0.914285ZM6.62857 0.0571426V5.74286H4.91429V0.0571426H6.62857ZM5.77143 6.6H0.257144V4.88571H5.77143V6.6ZM1.11429 5.74286V8.94286H-0.599999V5.74286H1.11429ZM0.257144 8.08571H5.77143V9.8H0.257144V8.08571ZM6.62857 8.94286V14.6857H4.91429V8.94286H6.62857ZM5.77143 13.8286H9.11429V15.5429H5.77143V13.8286ZM8.25714 14.6857V8.94286H9.97143V14.6857H8.25714ZM9.11429 8.08571H14.6V9.8H9.11429V8.08571ZM13.7429 8.94286V5.74286H15.4571V8.94286H13.7429Z" fill="black" mask="url(#path-1-outside-1_794_4)"/>
</svg>
