<svg width="112" height="114" viewBox="0 0 112 114" fill="none" xmlns="http://www.w3.org/2000/svg">
<g clip-path="url(#clip0_529_131)">
<mask id="path-1-outside-1_529_131" maskUnits="userSpaceOnUse" x="-1" y="-1" width="114" height="115" fill="black">
<rect fill="white" x="-1" y="-1" width="114" height="115"/>
<path d="M5.8 45.2H44.2V5.39999H67.6V45.2H106.2V67.6H67.6V107.8H44.2V67.6H5.8V45.2Z"/>
</mask>
<path d="M5.8 45.2H44.2V5.39999H67.6V45.2H106.2V67.6H67.6V107.8H44.2V67.6H5.8V45.2Z" fill="#FF6F6A"/>
<path d="M5.8 45.2V39.2H-0.2V45.2H5.8ZM44.2 45.2V51.2H50.2V45.2H44.2ZM44.2 5.39999V-0.600011H38.2V5.39999H44.2ZM67.6 5.39999H73.6V-0.600011H67.6V5.39999ZM67.6 45.2H61.6V51.2H67.6V45.2ZM106.2 45.2H112.2V39.2H106.2V45.2ZM106.2 67.6V73.6H112.2V67.6H106.2ZM67.6 67.6V61.6H61.6V67.6H67.6ZM67.6 107.8V113.8H73.6V107.8H67.6ZM44.2 107.8H38.2V113.8H44.2V107.8ZM44.2 67.6H50.2V61.6H44.2V67.6ZM5.8 67.6H-0.2V73.6H5.8V67.6ZM5.8 51.2H44.2V39.2H5.8V51.2ZM50.2 45.2V5.39999H38.2V45.2H50.2ZM44.2 11.4H67.6V-0.600011H44.2V11.4ZM61.6 5.39999V45.2H73.6V5.39999H61.6ZM67.6 51.2H106.2V39.2H67.6V51.2ZM100.2 45.2V67.6H112.2V45.2H100.2ZM106.2 61.6H67.6V73.6H106.2V61.6ZM61.6 67.6V107.8H73.6V67.6H61.6ZM67.6 101.8H44.2V113.8H67.6V101.8ZM50.2 107.8V67.6H38.2V107.8H50.2ZM44.2 61.6H5.8V73.6H44.2V61.6ZM11.8 67.6V45.2H-0.2V67.6H11.8Z" fill="black" mask="url(#path-1-outside-1_529_131)"/>
</g>
<defs>
<clipPath id="clip0_529_131">
<rect width="112" height="114" fill="white"/>
</clipPath>
</defs>
</svg>
